<?xml version="1.0" encoding="UTF-8" standalone="no"?>
<svg width="38px" height="19px" viewBox="0 0 38 19" version="1.1" xmlns="http://www.w3.org/2000/svg" xmlns:xlink="http://www.w3.org/1999/xlink">
    <!-- Generator: Sketch 41.2 (35397) - http://www.bohemiancoding.com/sketch -->
    <title>arrow-left</title>
    <desc>Created with Sketch.</desc>
    <defs></defs>
    <g id="pages" stroke="none" stroke-width="1" fill="none" fill-rule="evenodd">
        <g id="01" transform="translate(-22.000000, -1533.000000)" fill="#000000">
            <g id="Group-17" transform="translate(22.000000, 1533.000000)">
                <path d="M8.02373862,11.2592593 C7.62758185,11.3383183 7.4792176,11.7327175 7.4792176,12.1658163 C7.4792176,12.6020408 7.66503667,12.8928571 8.12958435,13.377551 C9.47677262,14.7346939 10.9168704,16.4795918 11.9388753,18.0790816 L11.00978,19 C7.99022005,15.3647959 4.4596577,11.6811224 0,9.74234694 L0,9.25765306 C4.4596577,7.27040816 7.94376528,3.68367347 11.00978,0 L11.9388753,0.920918367 C10.8704156,2.52040816 9.56968215,4.07142857 8.17603912,5.57397959 C7.75794621,6.01020408 7.52567237,6.54336735 7.52567237,6.93112245 C7.52567237,7.35757262 7.66951639,7.67146118 8.02048386,7.74074074 L38,7.74074074 L38,11.2592593 L8.02373862,11.2592593 Z" id="arrow-left"></path>
            </g>
        </g>
    </g>
</svg>