<?xml version="1.0" encoding="UTF-8" standalone="no"?>
<svg width="38px" height="19px" viewBox="0 0 38 19" version="1.1" xmlns="http://www.w3.org/2000/svg" xmlns:xlink="http://www.w3.org/1999/xlink">
    <!-- Generator: Sketch 41.2 (35397) - http://www.bohemiancoding.com/sketch -->
    <title>arrow-left</title>
    <desc>Created with Sketch.</desc>
    <defs></defs>
    <g id="pages" stroke="none" stroke-width="1" fill="none" fill-rule="evenodd">
        <g id="01" transform="translate(-1220.000000, -1533.000000)" fill="#000000">
            <g id="Group-17" transform="translate(22.000000, 1533.000000)">
                <path d="M1206.02374,11.2592593 C1205.62758,11.3383183 1205.47922,11.7327175 1205.47922,12.1658163 C1205.47922,12.6020408 1205.66504,12.8928571 1206.12958,13.377551 C1207.47677,14.7346939 1208.91687,16.4795918 1209.93888,18.0790816 L1209.00978,19 C1205.99022,15.3647959 1202.45966,11.6811224 1198,9.74234694 L1198,9.25765306 C1202.45966,7.27040816 1205.94377,3.68367347 1209.00978,0 L1209.93888,0.920918367 C1208.87042,2.52040816 1207.56968,4.07142857 1206.17604,5.57397959 C1205.75795,6.01020408 1205.52567,6.54336735 1205.52567,6.93112245 C1205.52567,7.35757262 1205.66952,7.67146118 1206.02048,7.74074074 L1236,7.74074074 L1236,11.2592593 L1206.02374,11.2592593 Z" id="arrow-left" transform="translate(1217.000000, 9.500000) scale(-1, 1) translate(-1217.000000, -9.500000) "></path>
            </g>
        </g>
    </g>
</svg>