<?xml version="1.0" standalone="no"?>
<!DOCTYPE svg PUBLIC "-//W3C//DTD SVG 1.1//EN" "http://www.w3.org/Graphics/SVG/1.1/DTD/svg11.dtd" >
<svg xmlns="http://www.w3.org/2000/svg" xmlns:xlink="http://www.w3.org/1999/xlink" version="1.1">
<metadata>
Created by FontForge 20160407 at Wed Dec 14 16:53:43 2016
 By Jimmy Wärting
Copyright (c) 2007-2011 by Radim Pesko. All rights reserved.
</metadata>
<defs>
<font id="FGrotesk-Regular" horiz-adv-x="430" >
  <font-face 
    font-family="F Grotesk"
    font-weight="400"
    font-stretch="normal"
    units-per-em="1000"
    panose-1="2 0 0 0 0 0 0 0 0 0"
    ascent="768"
    descent="-232"
    x-height="508"
    cap-height="722"
    bbox="-41 -232.026 1335 1075"
    underline-thickness="50"
    underline-position="-100"
    unicode-range="U+0020-FB04"
  />
<missing-glyph horiz-adv-x="225" 
 />
    <glyph glyph-name="fi" unicode="fi" horiz-adv-x="552" 
d="M477 622l-97 -26c-6 47 -50 62 -83 62c-60 0 -90 -36 -90 -79v-71h100v-73h-99v-435h-91v435h-92v73h92v59c0 115 92 168 187 168c42 0 131 -8 173 -113zM385 0v508h88v-508h-88z" />
    <glyph glyph-name="fl" unicode="fl" horiz-adv-x="548" 
d="M384 0v572c-6 76 -65 88 -89 88c-60 0 -88 -38 -88 -78v-74h100v-73h-99v-435h-91v435h-92v73h92v67c0 115 88 161 181 161c34 0 70 -7 89 -14h86v-722h-89z" />
    <glyph glyph-name="ff" unicode="ff" horiz-adv-x="591" 
d="M591 715l-18 -67c-12 6 -26 11 -40 11c-37 0 -57 -22 -57 -60v-91h99v-73h-99v-435h-91v435h-177v-435h-91v435h-92v73h92v66c0 101 78 161 173 161c28 0 78 -11 118 -48c24 36 63 49 99 49c41 0 69 -12 84 -21zM207 579v-71h178v84c-6 47 -52 68 -85 68
c-60 0 -93 -38 -93 -81z" />
    <glyph glyph-name="ffl" unicode="ffl" horiz-adv-x="816" 
d="M422 681c34 38 87 55 142 55c34 0 72 -7 91 -14h86v-722h-89v572c-6 76 -63 88 -87 88c-60 0 -90 -36 -90 -83v-69h102v-73h-101v-435h-91v435h-177v-435h-91v435h-92v73h92v66c0 101 78 161 173 161c52 0 99 -18 132 -54zM385 508v84c-6 47 -52 68 -85 68
c-60 0 -93 -38 -93 -81v-71h178z" />
    <glyph glyph-name="ffi" unicode="ffi" horiz-adv-x="819" 
d="M560 736c42 0 142 -9 184 -114l-97 -26c-6 47 -50 62 -83 62c-60 0 -90 -36 -90 -79v-71h100v-73h-98v-435h-91v435h-177v-435h-91v435h-92v73h92v66c0 101 78 161 173 161c52 0 100 -18 133 -54c34 36 82 55 137 55zM385 508v84c-6 47 -52 68 -85 68
c-60 0 -93 -38 -93 -81v-71h178zM652 0v508h88v-508h-88z" />
    <glyph glyph-name=".notdef" horiz-adv-x="225" 
 />
    <glyph glyph-name="A" unicode="A" horiz-adv-x="638" 
d="M455 177h-273l-52 -177h-105l237 722h127l224 -722h-107zM210 265h220l-106 365z" />
    <glyph glyph-name="B" unicode="B" horiz-adv-x="691" 
d="M407 632h-223v-224h209c90 0 141 38 141 115c0 76 -61 109 -127 109zM520 369c87 -30 126 -94 126 -165c0 -124 -90 -204 -240 -204h-326v722h320c147 0 241 -65 240 -194c-1 -68 -37 -125 -120 -159zM184 94h226c73 0 131 35 131 112s-47 115 -142 115h-215v-227z" />
    <glyph glyph-name="C" unicode="C" horiz-adv-x="710" 
d="M591 219l84 -41c-45 -126 -157 -198 -296 -198c-200 0 -329 146 -329 379c0 232 128 383 336 383c134 0 231 -73 276 -192l-86 -54c-22 93 -100 160 -193 160c-147 0 -230 -112 -230 -296c0 -177 82 -292 228 -292c97 0 165 53 210 151z" />
    <glyph glyph-name="D" unicode="D" horiz-adv-x="720" 
d="M670 362c0 -240 -134 -362 -340 -362h-250v722h279c184 0 311 -113 311 -360zM569 362c0 169 -65 274 -205 274h-181v-545h165c154 0 221 107 221 271z" />
    <glyph glyph-name="E" unicode="E" horiz-adv-x="675" 
d="M80 0v722h535v-91h-432v-222h379v-88h-379v-225h452v-96h-555z" />
    <glyph glyph-name="F" unicode="F" horiz-adv-x="605" 
d="M80 0v722h515v-92h-412v-230h318v-89h-318v-311h-103z" />
    <glyph glyph-name="G" unicode="G" horiz-adv-x="760" 
d="M591 230v62h-199v90h298v-382h-44l-34 108c-60 -85 -131 -128 -240 -128c-189 0 -321 147 -321 380c0 232 145 382 342 382c129 0 234 -60 282 -174l-83 -51c-36 82 -101 140 -201 140c-158 0 -237 -123 -237 -296c0 -171 75 -296 228 -296c100 0 183 61 209 165z" />
    <glyph glyph-name="H" unicode="H" horiz-adv-x="717" 
d="M535 0v331h-353v-331h-102v722h102v-297h353v297h102v-722h-102z" />
    <glyph glyph-name="I" unicode="I" horiz-adv-x="261" 
d="M80 0v722h101v-722h-101z" />
    <glyph glyph-name="J" unicode="J" horiz-adv-x="496" 
d="M312 174v548h104v-521c0 -127 -56 -221 -207 -221c-103 0 -179 62 -179 174v51h96v-46c0 -56 28 -95 85 -95c64 0 101 42 101 110z" />
    <glyph glyph-name="K" unicode="K" horiz-adv-x="644" 
d="M182 0h-102v722h101v-389l308 389h116l-240 -296l269 -426h-119l-215 348l-118 -144v-204z" />
    <glyph glyph-name="L" unicode="L" horiz-adv-x="578" 
d="M181 722v-627h387v-95h-488v722h101z" />
    <glyph glyph-name="M" unicode="M" horiz-adv-x="863" 
d="M469 0h-82l-211 641v-641h-96v722h160l190 -583l197 583h156v-722h-93v641z" />
    <glyph glyph-name="N" unicode="N" horiz-adv-x="730" 
d="M650 0h-111l-362 622v-622h-97v722h139l336 -576v576h95v-722z" />
    <glyph glyph-name="O" unicode="O" horiz-adv-x="768" 
d="M50 360c0 232 139 382 335 382c193 0 333 -150 333 -382c0 -241 -144 -380 -333 -380c-204 0 -335 147 -335 380zM155 360c0 -170 75 -292 230 -292c136 0 228 94 228 292c0 166 -77 296 -228 296c-150 0 -230 -122 -230 -296z" />
    <glyph glyph-name="P" unicode="P" horiz-adv-x="646" 
d="M80 0v722h323c136 0 223 -79 223 -208c0 -131 -90 -213 -239 -213h-203v-301h-104zM403 632h-219v-242h202c89 0 136 44 136 123c0 75 -51 119 -119 119z" />
    <glyph glyph-name="Q" unicode="Q" horiz-adv-x="800" 
d="M720 -23l30 -86c-18 -14 -63 -33 -111 -33c-70 0 -129 42 -142 140c-45 -14 -79 -18 -114 -18c-204 0 -333 147 -333 380c0 232 138 382 333 382c197 0 335 -150 335 -382c0 -156 -63 -272 -165 -337c6 -35 34 -86 88 -86c33 0 66 24 79 40zM151 360
c0 -170 78 -292 232 -292c137 0 232 94 232 292c0 166 -74 297 -232 297c-148 0 -232 -123 -232 -297z" />
    <glyph glyph-name="R" unicode="R" horiz-adv-x="693" 
d="M369 310h-185v-310h-104v722h341c132 0 225 -78 225 -201c0 -96 -82 -157 -158 -173c83 -17 126 -81 130 -171c3 -73 14 -147 35 -177h-111c-20 29 -25 104 -27 172c-1 93 -53 138 -146 138zM423 633h-239v-237h218c83 0 140 42 140 121c0 72 -46 116 -119 116z" />
    <glyph glyph-name="S" unicode="S" horiz-adv-x="672" 
d="M261 338c-87 23 -190 73 -190 194c0 135 129 210 271 210c137 0 232 -70 274 -153l-77 -64c-16 31 -72 133 -199 133s-168 -70 -168 -121c0 -44 22 -80 125 -109c47 -13 99 -26 151 -37c91 -20 182 -74 182 -191c0 -129 -127 -220 -275 -220c-106 0 -261 45 -313 204
l94 40c17 -41 65 -154 221 -154c134 0 170 77 170 118c0 57 -30 90 -109 110c-59 15 -101 25 -157 40z" />
    <glyph glyph-name="T" unicode="T" horiz-adv-x="608" 
d="M254 636h-244v86h588v-86h-242v-636h-102v636z" />
    <glyph glyph-name="U" unicode="U" horiz-adv-x="729" 
d="M80 253v469h105v-464c0 -114 59 -187 180 -187c118 0 179 74 179 187v464h105v-462c0 -174 -110 -280 -289 -280c-145 0 -280 79 -280 273z" />
    <glyph glyph-name="V" unicode="V" horiz-adv-x="607" 
d="M298 111l190 611h109l-244 -722h-116l-227 722h109z" />
    <glyph glyph-name="W" unicode="W" horiz-adv-x="956" 
d="M414 722h130l147 -600l150 600h105l-204 -722h-113l-150 613l-159 -613h-112l-198 722h107l147 -600z" />
    <glyph glyph-name="X" unicode="X" horiz-adv-x="588" 
d="M10 0l226 377l-204 345h116l147 -270l154 270h114l-208 -345l223 -377h-119l-164 295l-170 -295h-115z" />
    <glyph glyph-name="Y" unicode="Y" horiz-adv-x="600" 
d="M248 0v262l-238 460h112l177 -369l180 369h111l-241 -460v-262h-101z" />
    <glyph glyph-name="Z" unicode="Z" horiz-adv-x="673" 
d="M45 0v91l458 541l-436 -2v90l552 2v-97l-450 -531l459 2v-94z" />
    <glyph glyph-name="a" unicode="a" horiz-adv-x="560" 
d="M377 310v36c0 60 -40 103 -120 103c-83 0 -137 -71 -149 -102l-64 52c39 58 109 121 219 121c127 0 197 -72 197 -172v-231c0 -41 18 -52 40 -52c10 0 20 3 30 6l-16 -61c-10 -7 -32 -15 -55 -15c-43 0 -74 31 -75 86c-36 -51 -100 -89 -191 -89c-72 0 -153 47 -153 138
c0 126 123 160 222 171c46 5 76 6 115 9zM267 237c-78 -12 -139 -32 -139 -96c0 -53 41 -77 93 -77c33 0 148 23 157 140v45c-25 -2 -65 -5 -111 -12z" />
    <glyph glyph-name="b" unicode="b" horiz-adv-x="572" 
d="M156 78l-18 -78h-68v722h90v-289c35 46 82 87 158 87c117 0 214 -98 214 -264c0 -160 -90 -268 -222 -268c-75 0 -128 46 -154 90zM296 67c94 0 147 76 147 189s-53 186 -144 186c-71 0 -133 -60 -138 -168v-39c3 -103 63 -168 135 -168z" />
    <glyph glyph-name="c" unicode="c" horiz-adv-x="511" 
d="M414 159l67 -37c-40 -79 -106 -134 -208 -134c-148 0 -233 100 -233 265c0 152 88 267 235 267c102 0 174 -56 205 -152l-71 -31c-20 61 -69 107 -135 107c-101 0 -148 -85 -148 -190c0 -120 55 -189 151 -189c60 0 114 39 137 94z" />
    <glyph glyph-name="d" unicode="d" horiz-adv-x="571" 
d="M432 0l-17 78c-34 -53 -84 -90 -160 -90c-134 0 -215 108 -215 268c0 163 95 264 219 264c76 0 127 -40 154 -87v289h88v-722h-69zM272 63c43 0 134 32 139 177v34c-5 136 -95 169 -143 169c-86 0 -139 -75 -139 -188c0 -117 50 -192 143 -192z" />
    <glyph glyph-name="e" unicode="e" horiz-adv-x="529" 
d="M419 163l74 -29c-36 -90 -117 -146 -218 -146c-137 0 -235 99 -235 269c0 151 87 263 237 263c142 0 220 -121 213 -254l-1 -19l-35 -5h-326c-2 -105 54 -178 149 -178c65 0 121 40 142 99zM272 448c-78 0 -139 -57 -139 -138h270c4 79 -57 138 -131 138z" />
    <glyph glyph-name="f" unicode="f" horiz-adv-x="321" 
d="M321 715l-18 -67c-12 6 -26 11 -40 11c-37 0 -57 -22 -57 -60v-91h99v-73h-99v-435h-91v435h-95v73h95v84c0 115 64 144 122 144c41 0 69 -12 84 -21z" />
    <glyph glyph-name="g" unicode="g" horiz-adv-x="595" 
d="M284 67c74 0 147 60 148 174v32c-2 95 -61 171 -148 171c-93 0 -155 -73 -155 -188s62 -189 155 -189zM525 508v-456c0 -173 -93 -286 -272 -284c-109 1 -196 66 -212 159h94c11 -46 56 -82 125 -82c122 0 176 75 176 194v41c-35 -47 -88 -92 -174 -92
c-126 0 -222 100 -222 267c0 166 105 265 231 265c83 0 134 -41 168 -89l13 77h73z" />
    <glyph glyph-name="h" unicode="h" horiz-adv-x="566" 
d="M298 447c-42 0 -132 -33 -137 -164v-283h-91v722h91v-297c27 45 85 95 167 95c90 0 173 -51 173 -182v-338h-92v330c0 87 -46 117 -111 117z" />
    <glyph glyph-name="i" unicode="i" horiz-adv-x="249" 
d="M79 0v508h91v-508h-91zM75 606v99h99v-99h-99z" />
    <glyph glyph-name="j" unicode="j" horiz-adv-x="263" 
d="M20 -188l-15 74c10 -4 24 -6 32 -6c34 0 57 18 57 59v569h91v-557c0 -116 -69 -145 -122 -146c-16 0 -32 3 -43 7zM91 606v99h97v-99h-97z" />
    <glyph glyph-name="k" unicode="k" horiz-adv-x="509" 
d="M255 241l-95 -109v-132h-90v722h88v-489l223 275h106l-170 -206l187 -302h-101z" />
    <glyph glyph-name="l" unicode="l" horiz-adv-x="240" 
d="M75 0v722h90v-722h-90z" />
    <glyph glyph-name="m" unicode="m" horiz-adv-x="888" 
d="M293 448c-48 0 -128 -36 -133 -178v-270h-90v508h71l17 -89c34 64 85 101 164 101c74 0 129 -30 160 -102c30 62 93 102 168 102c88 0 173 -43 173 -188v-332h-91v325c0 85 -43 123 -113 123c-49 0 -118 -38 -123 -173v-275h-92v322c0 85 -40 126 -111 126z" />
    <glyph glyph-name="n" unicode="n" horiz-adv-x="571" 
d="M297 445c-42 0 -132 -28 -137 -164v-281h-90v508h73l15 -86c37 59 98 98 168 98c82 0 175 -47 175 -185v-335h-92v329c0 86 -46 116 -112 116z" />
    <glyph glyph-name="o" unicode="o" horiz-adv-x="548" 
d="M40 256c0 154 96 264 233 264c134 0 235 -97 235 -262c0 -166 -97 -270 -235 -270c-137 0 -233 103 -233 268zM129 257c0 -117 51 -192 144 -192c95 0 146 73 146 192c0 115 -54 189 -146 189c-95 0 -144 -84 -144 -189z" />
    <glyph glyph-name="p" unicode="p" horiz-adv-x="580" 
d="M144 508l13 -81c36 51 86 93 169 93c125 0 214 -108 214 -265c0 -156 -94 -267 -220 -267c-69 0 -129 34 -161 89v-266h-89v697h74zM303 444c-47 0 -139 -43 -142 -174v-36c6 -128 93 -169 142 -169c84 0 148 66 148 190c0 116 -56 189 -148 189z" />
    <glyph glyph-name="q" unicode="q" horiz-adv-x="579" 
d="M422 425l13 83h74v-697h-89v268c-32 -55 -94 -91 -163 -91c-132 0 -217 111 -217 267c0 157 92 265 213 265c88 0 133 -44 169 -95zM276 444c-87 0 -146 -73 -146 -189c0 -124 62 -190 146 -190c49 0 136 41 142 169v36c-3 131 -95 174 -142 174z" />
    <glyph glyph-name="r" unicode="r" horiz-adv-x="350" 
d="M146 508l11 -100c20 52 68 110 137 110c30 0 53 -15 64 -30l-46 -78c-10 12 -29 22 -48 22c-24 0 -95 -24 -100 -168v-264h-94v508h76z" />
    <glyph glyph-name="s" unicode="s" horiz-adv-x="489" 
d="M369 135c0 35 -21 56 -74 67c-37 8 -70 16 -106 26c-75 21 -133 62 -133 141c0 92 80 151 192 151c94 0 160 -50 199 -95l-54 -64c-17 27 -77 87 -148 87c-65 0 -105 -29 -105 -74c0 -32 26 -51 77 -64c38 -10 68 -18 105 -26c75 -16 132 -59 132 -141
c0 -94 -89 -155 -203 -155c-108 0 -191 60 -221 120l64 53c14 -29 75 -98 162 -98c78 0 113 33 113 72z" />
    <glyph glyph-name="t" unicode="t" horiz-adv-x="347" 
d="M324 72l-16 -70c-22 -8 -44 -14 -77 -14c-67 0 -114 50 -114 130v317h-101v73h103v100l87 102v-202h113v-73h-112v-305c0 -52 32 -77 89 -65z" />
    <glyph glyph-name="u" unicode="u" horiz-adv-x="564" 
d="M269 66c48 0 131 25 134 167v275h91v-508h-71l-12 97c-22 -49 -82 -109 -174 -109c-83 0 -172 50 -172 194v326h91v-321c0 -86 54 -121 113 -121z" />
    <glyph glyph-name="v" unicode="v" horiz-adv-x="461" 
d="M231 92l130 416h90l-172 -508h-95l-174 508h93z" />
    <glyph glyph-name="w" unicode="w" horiz-adv-x="739" 
d="M482 0l-112 428l-112 -428h-94l-154 508h91l109 -407l107 407h106l107 -406l109 406h90l-151 -508h-96z" />
    <glyph glyph-name="x" unicode="x" horiz-adv-x="450" 
d="M222 199l-111 -199h-101l160 269l-145 239h99l97 -178l99 178h98l-144 -239l166 -269h-102z" />
    <glyph glyph-name="y" unicode="y" horiz-adv-x="464" 
d="M177 -54l18 59l-185 503h95l133 -401l124 401h92l-199 -582c-24 -70 -73 -112 -155 -112c-33 0 -63 10 -80 23l35 73c10 -9 30 -18 45 -18c40 0 64 16 77 54z" />
    <glyph glyph-name="z" unicode="z" horiz-adv-x="453" 
d="M426 439l-298 -360l302 2v-79l-407 -2v72l295 359l-280 -2v77l388 2v-69z" />
    <glyph glyph-name="ae" unicode="&#xe6;" horiz-adv-x="849" 
d="M263 520c68 0 128 -25 167 -68c45 44 102 68 168 68c144 0 219 -118 212 -251l-1 -19l-28 -3h-325c-2 -105 50 -183 143 -183c67 0 119 39 142 98l72 -28c-36 -90 -115 -146 -216 -146c-80 0 -149 38 -188 116c-31 -55 -94 -116 -216 -116c-72 0 -153 49 -153 140
c0 124 119 162 215 172c46 5 80 7 122 10v36c0 60 -40 104 -120 104c-83 0 -138 -72 -150 -103l-64 52c39 58 110 121 220 121zM594 449c-78 0 -134 -55 -135 -136h264c4 79 -55 136 -129 136zM267 235c-78 -10 -139 -32 -139 -96c0 -53 41 -76 93 -76c33 0 147 23 156 140
v43s-49 -3 -110 -11z" />
    <glyph glyph-name="oe" unicode="&#x153;" horiz-adv-x="905" 
d="M40 255c0 154 88 265 236 265c80 0 147 -34 191 -97c39 60 103 97 187 97c144 0 219 -123 212 -256l-1 -19l-28 -3h-329c-1 -105 54 -178 147 -178c65 0 119 39 142 98l72 -28c-36 -90 -115 -146 -216 -146c-80 0 -147 34 -186 98c-42 -63 -108 -98 -191 -98
c-152 0 -236 102 -236 267zM130 257c0 -117 47 -193 146 -193s146 74 146 193c0 117 -52 191 -146 191c-99 0 -146 -86 -146 -191zM650 449c-78 0 -138 -58 -139 -139h268c4 79 -57 139 -129 139z" />
    <glyph glyph-name="germandbls" unicode="&#xdf;" horiz-adv-x="559" 
d="M299 663c-82 0 -142 -54 -142 -141v-522h-87v513c0 155 96 224 238 224c106 0 188 -67 188 -169c0 -78 -51 -140 -127 -163c77 -10 160 -90 160 -208c0 -126 -76 -209 -191 -209c-76 0 -119 41 -139 103l70 32c9 -36 35 -61 71 -61c63 0 97 52 96 134
c-1 112 -92 175 -179 166v76c77 -6 151 52 151 127c0 63 -44 98 -109 98z" />
    <glyph glyph-name="eng" unicode="&#x14b;" horiz-adv-x="571" 
d="M336 -188l-15 74c10 -4 23 -6 32 -6c34 0 56 18 56 59v390c0 86 -46 116 -112 116c-42 0 -132 -28 -137 -164v-281h-90v508h73l15 -86c37 59 98 98 168 98c82 0 175 -47 175 -185v-384c0 -116 -69 -145 -122 -146c-16 0 -32 3 -43 7z" />
    <glyph glyph-name="eth" unicode="&#xf0;" horiz-adv-x="565" 
d="M327 603l-163 -58l-18 51l126 44c-45 23 -96 37 -156 38l59 67c68 -8 132 -34 182 -75l121 43l16 -50l-92 -33c69 -76 113 -176 113 -296c0 -241 -108 -346 -249 -346c-131 0 -226 95 -226 272c0 167 95 258 214 258c107 0 169 -91 189 -136c0 73 -38 159 -116 221z
M279 63c82 0 144 75 144 194c0 121 -66 188 -151 188c-95 0 -143 -82 -143 -189c0 -119 53 -193 150 -193z" />
    <glyph glyph-name="thorn" unicode="&#xfe;" horiz-adv-x="563" 
d="M296 67c94 0 147 76 147 189s-53 186 -144 186c-71 0 -133 -60 -138 -168v-39c3 -103 63 -168 135 -168zM160 -189h-90v911h90v-287c35 46 82 85 158 85c117 0 214 -98 214 -264c0 -160 -90 -268 -222 -268c-66 0 -118 29 -150 91v-268z" />
    <glyph glyph-name="dotlessi" unicode="&#x131;" horiz-adv-x="256" 
d="M82 0v508h93v-508h-93z" />
    <glyph glyph-name="AE" unicode="&#xc6;" horiz-adv-x="982" 
d="M225 265h189l-58 369zM508 321l41 -225h393v-96h-485l-27 177h-236l-60 -177h-108l266 722h633v-91h-472l40 -222h375v-88h-360z" />
    <glyph glyph-name="OE" unicode="&#x152;" horiz-adv-x="995" 
d="M453 722h486v-91h-392v-221h336v-88h-336v-226h408v-96h-508c-205 0 -397 131 -397 361c0 241 195 361 403 361zM150 361c0 -177 125 -272 293 -269v545c-166 2 -293 -89 -293 -276z" />
    <glyph glyph-name="Eng" unicode="&#x14a;" horiz-adv-x="730" 
d="M544 0l-367 622v-622h-97v722h139l336 -567v567h95v-697c0 -127 -70 -219 -204 -219c-105 0 -173 72 -173 172h95c0 -54 25 -88 80 -88c64 0 98 44 96 110z" />
    <glyph glyph-name="Eth" unicode="&#xd0;" horiz-adv-x="738" 
d="M118 332h-91v60h91v330h260c183 0 310 -113 310 -360c0 -240 -134 -362 -340 -362h-230v332zM587 362c0 169 -68 274 -205 274h-162v-244h190v-60h-190v-241h147c150 0 220 107 220 271z" />
    <glyph glyph-name="Thorn" unicode="&#xde;" horiz-adv-x="665" 
d="M80 0v722h105v-142h231c136 0 224 -78 224 -205c0 -132 -79 -216 -231 -216h-224v-159h-105zM417 490h-232v-242h215c92 0 136 43 136 123c0 74 -48 119 -119 119z" />
    <glyph glyph-name="ampersand" unicode="&#x26;" horiz-adv-x="665" 
d="M343 742c87 0 146 -59 146 -146c0 -83 -79 -151 -157 -194c22 -55 65 -128 97 -182c43 59 77 121 102 197l65 -60c-24 -56 -69 -136 -122 -203c25 -45 67 -87 129 -87c12 0 21 2 30 6l-15 -73c-15 -8 -33 -12 -56 -12c-45 0 -102 26 -143 90c-49 -58 -104 -90 -175 -90
c-143 0 -203 103 -198 208c5 97 72 168 183 230c-21 49 -42 103 -42 148c0 99 58 168 156 168zM133 194c0 -79 45 -124 116 -124c50 0 97 33 125 74c-43 70 -83 138 -116 213c-69 -36 -125 -98 -125 -163zM409 594c0 46 -26 77 -69 77c-39 0 -72 -28 -72 -75
c0 -40 17 -84 36 -128c67 39 105 78 105 126z" />
    <glyph glyph-name="comma" unicode="," horiz-adv-x="257" 
d="M134 0l-67 22v111h120v-110c0 -99 -68 -151 -137 -164v49c44 7 85 39 84 92z" />
    <glyph glyph-name="semicolon" unicode=";" horiz-adv-x="287" 
d="M90 378v130h115v-130h-115zM154 0l-65 22v111h118v-110c0 -99 -68 -151 -137 -164v49c44 7 85 39 84 92z" />
    <glyph glyph-name="colon" unicode=":" horiz-adv-x="274" 
d="M80 378v130h114v-130h-114zM80 0v130h114v-130h-114z" />
    <glyph glyph-name="period" unicode="." horiz-adv-x="274" 
d="M80 0v130h114v-130h-114z" />
    <glyph glyph-name="ellipsis" unicode="&#x2026;" horiz-adv-x="875" 
d="M87 0v126h107v-126h-107zM384 0v126h105v-126h-105zM679 0v126h106v-126h-106z" />
    <glyph glyph-name="hyphen" unicode="-" horiz-adv-x="343" 
d="M25 265l14 90h279l-15 -90h-278z" />
    <glyph glyph-name="exclam" unicode="!" horiz-adv-x="283" 
d="M190 429l-26 -218h-45l-26 218l-3 293h103zM92 0v110h99v-110h-99z" />
    <glyph glyph-name="exclamdown" unicode="&#xa1;" horiz-adv-x="283" 
d="M166 508l24 -215l3 -293h-103l3 293l24 215h49zM92 612v110h99v-110h-99z" />
    <glyph glyph-name="question" unicode="?" horiz-adv-x="455" 
d="M153 351c0 -37 28 -65 74 -65c73 0 99 69 110 99l63 -50c-21 -61 -79 -124 -175 -124c-86 0 -154 54 -154 141c0 86 79 129 127 149l55 24c36 17 61 41 61 74c0 46 -34 71 -81 71c-62 0 -108 -59 -124 -115l-59 57c16 46 79 130 181 130c96 0 163 -57 163 -144
c0 -89 -68 -124 -129 -151l-56 -25c-39 -17 -56 -43 -56 -71zM176 0v110h100v-110h-100z" />
    <glyph glyph-name="questiondown" unicode="&#xbf;" horiz-adv-x="455" 
d="M299 371c0 -28 -17 -54 -56 -71l-56 -25c-61 -27 -129 -62 -129 -151c0 -87 67 -144 163 -144c102 0 165 84 181 130l-59 57c-16 -56 -62 -115 -124 -115c-47 0 -81 25 -81 71c0 33 25 57 61 74l55 24c48 20 127 63 127 149c0 87 -68 141 -154 141
c-96 0 -154 -63 -175 -124l63 -50c11 30 37 99 110 99c46 0 74 -28 74 -65zM276 722v-110h-100v110h100z" />
    <glyph glyph-name="interrobang" unicode="&#x203d;" horiz-adv-x="455" 
d="M337 383l61 -49c-21 -61 -76 -123 -172 -123c-86 0 -150 51 -150 136c0 76 59 118 112 142l-2 175c-38 -18 -65 -68 -77 -109l-59 57c16 51 75 130 182 130c95 0 167 -58 167 -145c0 -89 -78 -125 -129 -148v-22l-23 -145c57 12 82 70 90 101zM176 0v110h100v-110h-100z
M322 598c0 33 -23 58 -50 66l-1 -135c30 14 51 38 51 69zM152 348c0 -32 22 -59 59 -65l-20 128c-26 -13 -39 -38 -39 -63z" />
    <glyph glyph-name="quoteleft" unicode="&#x2018;" horiz-adv-x="221" 
d="M101 608l63 -21v-105h-114v104c0 94 65 144 131 156v-46c-42 -7 -81 -37 -80 -88z" />
    <glyph glyph-name="quoteright" unicode="&#x2019;" horiz-adv-x="221" 
d="M120 596l-63 21v105h114v-104c0 -94 -65 -144 -131 -156v46c42 7 81 37 80 88z" />
    <glyph glyph-name="quotedblleft" unicode="&#x201c;" horiz-adv-x="373" 
d="M253 608l63 -21v-105h-114v104c0 94 65 144 131 156v-46c-42 -7 -81 -37 -80 -88zM91 608l63 -21v-105h-114v104c0 94 65 144 131 156v-46c-42 -7 -81 -37 -80 -88z" />
    <glyph glyph-name="quotedblright" unicode="&#x201d;" horiz-adv-x="373" 
d="M120 596l-63 21v105h114v-104c0 -94 -65 -144 -131 -156v46c42 7 81 37 80 88zM282 596l-63 21v105h114v-104c0 -94 -65 -144 -131 -156v46c42 7 81 37 80 88z" />
    <glyph glyph-name="quotesinglbase" unicode="&#x201a;" horiz-adv-x="221" 
d="M120 0l-63 21v105h114v-104c0 -94 -65 -144 -131 -156v46c42 7 81 37 80 88z" />
    <glyph glyph-name="quotedblbase" unicode="&#x201e;" horiz-adv-x="373" 
d="M120 0l-63 21v105h114v-104c0 -94 -65 -144 -131 -156v46c42 7 81 37 80 88zM282 0l-63 21v105h114v-104c0 -94 -65 -144 -131 -156v46c42 7 81 37 80 88z" />
    <glyph glyph-name="guilsinglleft" unicode="&#x2039;" horiz-adv-x="328" 
d="M50 262l157 246h90l-157 -245l158 -246h-91z" />
    <glyph glyph-name="guilsinglright" unicode="&#x203a;" horiz-adv-x="328" 
d="M141 508l157 -246l-157 -245h-89l156 246l-158 245h91z" />
    <glyph glyph-name="guillemotleft" unicode="&#xab;" horiz-adv-x="459" 
d="M40 262l134 246h77l-134 -245l134 -246h-77zM217 262l134 246h78l-134 -245l134 -246h-78z" />
    <glyph glyph-name="guillemotright" unicode="&#xbb;" horiz-adv-x="462" 
d="M288 508l134 -246l-134 -245h-82l134 246l-134 245h82zM112 508l135 -246l-135 -245h-82l134 246l-134 245h82z" />
    <glyph glyph-name="slash" unicode="/" horiz-adv-x="421" 
d="M35 -103l277 845h78l-275 -845h-80z" />
    <glyph glyph-name="bar" unicode="|" horiz-adv-x="358" 
d="M141 -189l-5 911h86l-5 -911h-76z" />
    <glyph glyph-name="endash" unicode="&#x2013;" horiz-adv-x="536" 
d="M30 267v80h476v-80h-476z" />
    <glyph glyph-name="emdash" unicode="&#x2014;" horiz-adv-x="947" 
d="M0 265v83h947v-83h-947z" />
    <glyph glyph-name="bullet" unicode="&#x2022;" horiz-adv-x="399" 
d="M78 259c0 67 55 121 122 121s122 -54 122 -121s-55 -121 -122 -121s-122 54 -122 121z" />
    <glyph glyph-name="periodcentered" unicode="&#xb7;" horiz-adv-x="274" 
d="M80 255v130h114v-130h-114z" />
    <glyph glyph-name="parenleft" unicode="(" horiz-adv-x="350" 
d="M59 363c0 266 159 399 262 435l17 -47c-64 -32 -195 -131 -195 -388c0 -263 132 -359 194 -388l-18 -51c-103 36 -260 174 -260 439z" />
    <glyph glyph-name="parenright" unicode=")" horiz-adv-x="350" 
d="M292 363c0 -265 -157 -403 -260 -439l-18 51c62 29 194 125 194 388c0 257 -131 356 -195 388l17 47c103 -36 262 -169 262 -435z" />
    <glyph glyph-name="bracketleft" unicode="[" horiz-adv-x="348" 
d="M100 -185v1015h238v-79h-155v-858h155v-78h-238z" />
    <glyph glyph-name="bracketright" unicode="]" horiz-adv-x="348" 
d="M248 830v-1015h-238v78h154v858h-154v79h238z" />
    <glyph glyph-name="braceleft" unicode="{" horiz-adv-x="361" 
d="M143 349c44 -3 104 -35 104 -103c0 -67 -24 -122 -26 -188c-1 -48 40 -94 120 -99l-12 -57c-113 -9 -196 55 -196 146c0 45 30 118 30 182c0 62 -53 70 -93 62v109c40 -8 93 0 93 62c0 64 -30 137 -30 182c0 91 83 156 196 147l12 -57c-80 -5 -121 -52 -120 -100
c2 -66 26 -121 26 -188c0 -68 -60 -94 -104 -98z" />
    <glyph glyph-name="braceright" unicode="}" horiz-adv-x="361" 
d="M218 349c-44 4 -104 30 -104 98c0 67 24 122 26 188c1 48 -40 95 -120 100l12 57c113 9 196 -56 196 -147c0 -45 -30 -118 -30 -182c0 -62 53 -70 93 -62v-109c-40 8 -93 0 -93 -62c0 -64 30 -137 30 -182c0 -91 -83 -155 -196 -146l-12 57c80 5 121 51 120 99
c-2 66 -26 121 -26 188c0 68 60 100 104 103z" />
    <glyph glyph-name="asterisk" unicode="*" horiz-adv-x="452" 
d="M40 577l183 -44l-183 -42v86zM170 722l54 -186l-130 142zM93 392l131 138l-54 -185zM229 533l183 44v-86zM228 536l54 186l76 -44zM228 530l131 -138l-77 -47z" />
    <glyph glyph-name="dagger" unicode="&#x2020;" horiz-adv-x="466" 
d="M190 722h85l-21 -230l192 18v-72l-189 17l20 -551h-89l21 551l-189 -17v72l191 -18z" />
    <glyph glyph-name="daggerdbl" unicode="&#x2021;" horiz-adv-x="466" 
d="M256 455l15 -135l-15 -142l190 17v-72l-192 18l21 -237h-85l21 237l-191 -18v72l190 -17l-15 142l15 135l-190 -17v72l191 -18l-21 230h85l-21 -230l192 18v-72z" />
    <glyph glyph-name="section" unicode="&#xa7;" horiz-adv-x="555" 
d="M303 371l-49 25c-55 -11 -118 -51 -118 -102c0 -73 67 -96 124 -125l53 -27c56 15 105 47 105 98c0 72 -56 101 -115 131zM484 -48c0 -112 -87 -170 -197 -170c-119 0 -198 93 -225 156l77 46c14 -56 79 -128 149 -128c62 0 106 31 106 88c0 50 -42 85 -146 132
c-116 52 -198 102 -198 202c0 99 100 140 153 154c-83 44 -123 106 -123 161c0 109 82 168 192 168c119 0 185 -93 212 -156l-72 -46c-18 53 -71 128 -141 128c-61 0 -103 -30 -103 -87c0 -45 40 -82 140 -131c116 -56 197 -99 197 -200c0 -91 -87 -144 -135 -160
c65 -31 114 -87 114 -157z" />
    <glyph glyph-name="paragraph" unicode="&#xb6;" horiz-adv-x="488" 
d="M175 -189v429l11 73c-98 20 -176 105 -176 204c0 114 89 205 199 205h253l16 -72h-71v-839h-65v839h-102v-839h-65z" />
    <glyph glyph-name="asciicircum" unicode="^" horiz-adv-x="521" 
d="M305 722l173 -303h-91l-127 236l-129 -236h-89l173 303h90z" />
    <glyph glyph-name="asciitilde" unicode="~" horiz-adv-x="579" 
d="M307 380c43 -23 97 -41 122 -41c47 0 84 13 116 50l14 -78c-32 -37 -79 -61 -134 -61c-36 0 -81 15 -151 52c-43 24 -97 40 -123 40c-47 0 -85 -12 -116 -50l-15 79c33 37 80 61 135 61c35 0 76 -15 152 -52z" />
    <glyph glyph-name="brokenbar" unicode="&#xa6;" horiz-adv-x="358" 
d="M136 -189v387h86v-387h-86zM136 334v388h86v-388h-86z" />
    <glyph glyph-name="backslash" unicode="\" horiz-adv-x="421" 
d="M109 742l277 -845h-80l-275 845h78z" />
    <glyph glyph-name="underscore" unicode="_" horiz-adv-x="481" 
d="M2 -78v78h477v-78h-477z" />
    <glyph glyph-name="quotesingle" unicode="'" horiz-adv-x="176" 
d="M51 545l-1 177h76l-1 -177h-74z" />
    <glyph glyph-name="quotedbl" unicode="&#x22;" horiz-adv-x="305" 
d="M51 547l-1 175h73l-1 -175h-71zM183 547l-1 175h73l-2 -175h-70z" />
    <glyph glyph-name="at" unicode="@" horiz-adv-x="814" 
d="M447 478c-75 0 -156 -158 -160 -262c-2 -56 18 -82 54 -82s76 40 102 89l57 178c-1 46 -25 77 -53 77zM707 117l46 -52c-80 -93 -221 -177 -375 -178c-180 -1 -320 105 -320 335c0 255 179 500 433 500c156 0 268 -102 268 -290c0 -157 -113 -371 -255 -371
c-38 0 -67 27 -59 83c-32 -42 -83 -82 -131 -82c-67 0 -109 57 -107 148c3 149 110 333 242 333c43 0 81 -27 90 -83l56 71h37l-121 -369c-5 -18 2 -33 20 -33c74 0 160 167 160 307c0 132 -62 226 -208 227c-162 1 -357 -172 -357 -441c0 -173 95 -271 255 -271
c144 0 266 93 326 166z" />
    <glyph glyph-name="copyright" unicode="&#xa9;" horiz-adv-x="818" 
d="M532 285l66 -35c-31 -76 -103 -126 -185 -126c-122 0 -207 93 -207 237c0 145 83 240 209 240c83 0 148 -49 174 -126l-64 -35c-19 57 -57 93 -111 93c-83 0 -130 -55 -130 -172c0 -107 51 -167 130 -167c54 0 94 28 118 91zM40 360c0 227 164 382 369 382
c204 0 369 -155 369 -382c0 -226 -165 -380 -369 -380c-205 0 -369 154 -369 380zM98 360c0 -192 136 -322 311 -322s310 130 310 322c0 193 -135 325 -310 325s-311 -132 -311 -325z" />
    <glyph glyph-name="registered" unicode="&#xae;" horiz-adv-x="818" 
d="M412 332h-86v-186h-71v447h183c89 0 147 -47 147 -126c0 -60 -51 -96 -105 -107c43 -5 89 -39 90 -103c1 -54 9 -88 21 -111h-78c-11 17 -15 60 -17 106c-2 50 -34 80 -84 80zM443 532h-117v-138h104c52 0 83 26 83 72c0 44 -31 66 -70 66zM40 360c0 227 164 382 369 382
c204 0 369 -155 369 -382c0 -226 -165 -380 -369 -380c-205 0 -369 154 -369 380zM98 360c0 -192 136 -322 311 -322s310 130 310 322c0 193 -135 325 -310 325s-311 -132 -311 -325z" />
    <glyph glyph-name="trademark" unicode="&#x2122;" horiz-adv-x="1006" 
d="M855 646l-129 -391h-73l-124 391v-391h-71v467h116l118 -367l119 367h115v-467h-71v391zM181 653h-151v69h379v-69h-151v-398h-77v398z" />
    <glyph glyph-name="currency" unicode="&#xa4;" horiz-adv-x="630" 
d="M539 339c0 -47 -14 -92 -42 -130l54 -54l-52 -52l-53 54c-24 -17 -67 -42 -130 -42c-68 0 -108 25 -131 41l-53 -53l-52 52l53 53c-27 39 -42 84 -42 131s15 92 42 131l-53 53l52 52l53 -53c23 16 63 41 131 41c63 0 106 -25 130 -42l53 54l52 -52l-54 -54
c28 -38 42 -83 42 -130zM171 339c0 -85 62 -147 144 -147s144 62 144 147s-62 147 -144 147s-144 -62 -144 -147z" />
    <glyph glyph-name="Euro" unicode="&#x20ac;" horiz-adv-x="630" 
d="M90 271h-70v55h63c-1 17 -1 31 -1 44c0 11 1 30 2 48h-45v55h53c33 175 125 269 275 269c112 0 196 -65 235 -173l-78 -45c-27 71 -77 135 -158 135c-93 0 -152 -59 -176 -186h224v-55h-231c-1 -17 -2 -36 -2 -48c0 -13 0 -27 1 -44h212v-55h-205
c16 -126 81 -202 177 -202c81 0 129 43 164 124l80 -42c-45 -107 -133 -171 -246 -171c-151 0 -243 108 -274 291z" />
    <glyph glyph-name="dollar" unicode="$" horiz-adv-x="630" 
d="M351 -20v-96h-62v97c-94 15 -196 83 -230 215l89 36c12 -38 34 -135 141 -159v255c-12 4 -23 8 -34 13c-77 35 -173 86 -173 204c0 122 101 187 207 198v80h62v-81c105 -12 184 -79 217 -156l-76 -54c-14 34 -48 102 -141 124v-243l39 -12c79 -24 177 -80 177 -208
c0 -116 -94 -200 -216 -213zM470 190c0 54 -23 101 -117 122v-240c103 17 117 80 117 118zM178 546c0 -33 12 -75 111 -116v227c-91 -16 -111 -71 -111 -111z" />
    <glyph glyph-name="cent" unicode="&#xa2;" horiz-adv-x="630" 
d="M473 157l66 -36c-40 -79 -106 -134 -208 -134c-12 0 -23 1 -34 2l-22 -106h-59l25 119c-90 34 -141 124 -141 252c0 154 85 267 232 267c5 0 11 0 16 -1l21 103h59l-24 -113c64 -20 112 -70 135 -141l-71 -31c-13 42 -42 77 -80 94l-75 -367c7 -1 15 -1 23 -1
c60 0 114 38 137 93zM184 254c0 -83 26 -141 75 -170l73 361c-103 0 -148 -86 -148 -191z" />
    <glyph glyph-name="sterling" unicode="&#xa3;" horiz-adv-x="630" 
d="M246 253h-122v58h107c-4 15 -12 32 -18 48c-23 59 -56 117 -56 187c0 128 92 196 212 196c116 0 192 -89 219 -170l-86 -58c-17 66 -52 143 -137 143c-70 0 -110 -39 -110 -112c0 -44 24 -94 42 -149c8 -25 19 -59 24 -85h235v-58h-224c4 -66 -14 -111 -25 -136
c61 -36 104 -51 142 -51c50 0 82 24 85 73h80c-2 -95 -58 -159 -160 -159c-65 0 -118 33 -182 80c-42 -58 -94 -80 -150 -80c-67 0 -111 45 -111 100c0 63 48 103 112 103c37 0 73 -15 114 -35c14 29 17 59 9 105zM214 91c-50 30 -65 42 -92 42c-36 0 -56 -25 -56 -53
c0 -26 21 -48 55 -48s58 10 93 59z" />
    <glyph glyph-name="florin" unicode="&#x192;" horiz-adv-x="409" 
d="M399 717l-23 -66c-11 6 -23 12 -35 12c-38 0 -63 -26 -66 -63l-9 -100h124l-25 -74h-106l-40 -468c-8 -94 -70 -131 -130 -131c-38 0 -62 13 -79 22l22 65c12 -6 25 -12 35 -12c38 0 62 20 65 57l40 467h-113v74h121l10 105c9 94 67 132 124 132c39 0 67 -11 85 -20z" />
    <glyph glyph-name="yen" unicode="&#xa5;" horiz-adv-x="630" 
d="M75 110v57h186v89h-186v56h186l-203 410h107l149 -332l151 332h107l-209 -410h192v-56h-191v-89h189v-57h-189v-110h-103v110h-186z" />
    <glyph glyph-name="ordfeminine" unicode="&#xaa;" 
d="M269 597v20c0 28 -16 59 -68 59c-49 0 -81 -37 -92 -59l-50 31c24 45 77 82 149 82c75 0 123 -43 123 -112v-141c0 -31 26 -39 45 -35c-4 -16 -6 -29 -10 -44c-7 -5 -15 -9 -33 -9c-32 0 -53 22 -58 53c-26 -35 -72 -55 -121 -55c-50 0 -100 35 -100 91
c0 81 76 107 139 112zM269 550l-58 -7c-46 -6 -91 -15 -91 -60c0 -25 23 -40 52 -40c24 0 93 14 97 83v24z" />
    <glyph glyph-name="ordmasculine" unicode="&#xba;" 
d="M212 730c94 0 150 -72 150 -170c0 -106 -58 -172 -150 -172s-150 66 -150 172c0 98 56 170 150 170zM212 447c56 0 83 45 83 114c0 62 -27 110 -83 110c-55 0 -83 -48 -83 -110c0 -69 28 -114 83 -114z" />
    <glyph glyph-name="numbersign" unicode="#" horiz-adv-x="641" 
d="M292 695l-35 -175h198l35 175h68l-37 -175h92v-63h-104l-44 -218h99v-64h-113l-36 -175h-67l35 175h-198l-33 -175h-70l38 175h-95v64h108l43 218h-101v63h114l38 175h65zM245 457l-46 -218h197l45 218h-196z" />
    <glyph glyph-name="zero" unicode="0" horiz-adv-x="610" 
d="M305 716c156 0 261 -135 261 -368c0 -228 -105 -368 -261 -368s-261 140 -261 368c0 233 105 368 261 368zM305 62c113 0 165 110 165 286c0 178 -53 288 -165 288s-165 -110 -165 -288c0 -176 52 -286 165 -286z" />
    <glyph glyph-name="one" unicode="1" horiz-adv-x="440" 
d="M179 0v524l-125 -40v79c77 12 127 54 153 132h70v-695h-98z" />
    <glyph glyph-name="two" unicode="2" horiz-adv-x="610" 
d="M302 715c139 0 246 -85 246 -219c0 -135 -107 -203 -195 -250c-32 -17 -60 -33 -94 -52c-61 -34 -110 -78 -109 -108h401v-86h-501c1 143 108 217 155 248c40 26 91 61 137 89c92 56 107 106 107 157c0 79 -55 138 -148 138c-143 0 -164 -103 -174 -177l-87 37
c14 110 95 223 262 223z" />
    <glyph glyph-name="three" unicode="3" horiz-adv-x="610" 
d="M437 363c82 -32 128 -98 128 -167c0 -134 -117 -215 -269 -215c-148 0 -239 82 -268 186l89 34c15 -71 72 -138 179 -138c98 0 168 51 168 130c0 64 -37 109 -133 122c-18 2 -64 3 -85 1v83c24 -2 73 -1 91 2c89 13 114 65 114 113c0 78 -64 119 -150 119
c-107 0 -148 -60 -170 -129l-83 35c30 105 120 176 254 176c137 0 247 -73 247 -196c0 -65 -35 -126 -112 -156z" />
    <glyph glyph-name="four" unicode="4" horiz-adv-x="610" 
d="M459 233h124v-83h-123v-150h-96v150h-322v102s187 233 315 443h102v-462zM121 233h245v341c-6 -9 -118 -189 -245 -341z" />
    <glyph glyph-name="five" unicode="5" horiz-adv-x="610" 
d="M193 615l-35 -231c29 41 95 84 178 84c138 0 237 -92 237 -236c0 -158 -119 -252 -273 -252c-136 0 -228 82 -254 168l77 43c19 -61 86 -128 179 -128c109 0 175 64 175 166c0 98 -60 160 -158 160c-80 0 -138 -44 -169 -96l-79 22l52 380h407v-80h-337z" />
    <glyph glyph-name="six" unicode="6" horiz-adv-x="610" 
d="M317 64c100 0 165 69 165 168c0 89 -59 155 -158 155c-92 0 -166 -69 -166 -165c0 -90 68 -158 159 -158zM44 332c0 207 89 383 297 383c87 0 178 -51 221 -130l-62 -56c-43 79 -114 107 -163 107c-158 0 -208 -156 -208 -268c0 -14 1 -27 2 -39c34 70 101 139 210 139
c126 0 237 -92 237 -234c0 -150 -116 -254 -263 -254c-193 0 -271 171 -271 352z" />
    <glyph glyph-name="seven" unicode="7" horiz-adv-x="610" 
d="M35 607v88h509v-70c-119 -141 -250 -395 -247 -625h-105c2 235 166 506 254 607h-411z" />
    <glyph glyph-name="eight" unicode="8" horiz-adv-x="610" 
d="M305 715c147 0 248 -81 247 -201c-1 -63 -42 -120 -107 -153c76 -26 126 -97 126 -169c0 -141 -127 -212 -266 -212s-266 69 -266 210c0 72 50 145 126 171c-65 33 -106 90 -107 153c-1 120 100 201 247 201zM305 62c112 0 170 61 170 130c0 68 -61 129 -170 129
s-170 -61 -170 -129c0 -69 56 -130 170 -130zM305 398c95 0 153 56 153 117c0 69 -57 121 -154 121c-95 0 -152 -52 -152 -121c0 -61 58 -117 153 -117z" />
    <glyph glyph-name="nine" unicode="9" horiz-adv-x="610" 
d="M294 633c-101 0 -165 -66 -165 -167c0 -91 62 -158 158 -158s167 65 167 163c0 100 -72 162 -160 162zM568 357c0 -206 -89 -377 -301 -377c-87 0 -174 42 -217 121l57 66c45 -81 116 -108 162 -108c164 0 210 140 210 256c0 13 0 22 -1 35c-35 -74 -110 -124 -208 -124
c-130 0 -237 91 -237 237c0 152 116 252 257 252c201 0 278 -175 278 -358z" />
    <glyph glyph-name="zero.dnom" 
d="M216 446c96 0 163 -88 163 -230c0 -140 -67 -230 -163 -230c-97 0 -164 90 -164 230c0 142 67 230 164 230zM216 47c63 0 93 68 93 169c0 102 -31 172 -93 172c-63 0 -94 -70 -94 -172c0 -101 30 -169 94 -169z" />
    <glyph glyph-name="one.dnom" horiz-adv-x="300" 
d="M122 -4v331l-76 -28v54c34 8 78 31 94 82h50v-439h-68z" />
    <glyph glyph-name="two.dnom" 
d="M221 446c85 0 156 -51 156 -135c0 -81 -60 -122 -115 -150l-66 -35c-46 -24 -62 -53 -63 -72h240v-58h-314c0 98 67 148 97 168c21 14 59 36 87 52c47 27 66 63 66 95c0 40 -27 78 -88 78c-78 0 -99 -63 -102 -109l-64 27c7 71 62 139 166 139z" />
    <glyph glyph-name="three.dnom" 
d="M297 225c54 -14 83 -62 83 -105c0 -88 -76 -134 -170 -134c-91 0 -150 51 -168 117l62 21c8 -40 48 -80 107 -80c73 0 101 36 101 73c0 40 -24 67 -83 72c-15 1 -30 1 -49 0v59c15 -1 43 0 52 1c54 10 72 37 72 67c0 39 -25 75 -88 75s-94 -45 -105 -86l-56 26
c17 65 82 115 162 115c87 0 154 -47 154 -125c0 -41 -25 -79 -74 -96z" />
    <glyph glyph-name="four.dnom" 
d="M42 85v71c111 138 207 279 207 279h75v-292h72v-58h-71v-89h-69v89h-214zM256 142v211s-70 -102 -155 -211h155z" />
    <glyph glyph-name="five.dnom" 
d="M150 377l-23 -124c23 24 58 41 100 41c80 0 151 -55 151 -147c0 -97 -73 -159 -167 -159c-84 0 -146 51 -163 110l59 32c11 -40 49 -80 105 -80c57 0 97 39 97 94s-40 92 -92 92c-45 0 -78 -26 -97 -57l-56 18l35 238h245v-58h-194z" />
    <glyph glyph-name="six.dnom" 
d="M53 206c0 128 50 240 184 240c54 0 114 -34 142 -85l-50 -41c-20 47 -55 70 -97 70c-94 0 -118 -102 -117 -165v-4c22 38 64 69 123 69c78 0 148 -57 148 -146c0 -92 -69 -158 -159 -158c-121 0 -174 109 -174 220zM225 48c55 0 92 41 92 95c0 50 -35 89 -90 89
c-53 0 -94 -40 -94 -93c0 -51 41 -91 92 -91z" />
    <glyph glyph-name="seven.dnom" 
d="M58 377v58h315v-48c-71 -84 -149 -253 -147 -391h-75c1 138 91 315 145 381h-238z" />
    <glyph glyph-name="eight.dnom" 
d="M215 446c91 0 153 -53 153 -127c-1 -36 -24 -76 -60 -92c36 -16 71 -57 71 -109c0 -85 -78 -132 -164 -132s-165 47 -165 132c0 50 33 93 71 109c-36 16 -59 56 -60 92c0 74 62 127 154 127zM215 46c62 0 95 36 95 74c0 39 -33 76 -95 76c-63 0 -96 -37 -96 -76
c0 -38 31 -74 96 -74zM215 252c52 0 85 30 85 66c0 39 -32 70 -86 70c-53 0 -84 -31 -84 -70c0 -34 32 -66 85 -66z" />
    <glyph glyph-name="nine.dnom" horiz-adv-x="445" 
d="M394 226c0 -131 -51 -240 -185 -240c-54 0 -118 34 -145 85l53 42c20 -44 55 -68 97 -68c93 0 121 100 119 162v4c-19 -38 -65 -69 -124 -69c-78 0 -148 59 -148 147c0 92 68 157 158 157c121 0 175 -109 175 -220zM221 385c-55 0 -92 -41 -92 -95c0 -50 35 -88 90 -88
c54 0 94 39 94 92c0 51 -41 91 -92 91z" />
    <glyph glyph-name="zero.numr" 
d="M216 706c96 0 163 -88 163 -230c0 -140 -67 -230 -163 -230c-97 0 -164 90 -164 230c0 142 67 230 164 230zM216 307c63 0 93 68 93 169c0 102 -31 172 -93 172c-63 0 -94 -70 -94 -172c0 -101 30 -169 94 -169z" />
    <glyph glyph-name="one.numr" horiz-adv-x="300" 
d="M122 256v331l-76 -28v54c34 8 78 31 94 82h50v-439h-68z" />
    <glyph glyph-name="two.numr" 
d="M221 706c85 0 156 -51 156 -135c0 -81 -60 -122 -115 -150l-66 -35c-46 -24 -62 -53 -63 -72h240v-58h-314c0 98 67 148 97 168c21 14 59 36 87 52c47 27 66 63 66 95c0 40 -27 78 -88 78c-78 0 -99 -63 -102 -109l-64 27c7 71 62 139 166 139z" />
    <glyph glyph-name="three.numr" 
d="M297 485c54 -14 83 -62 83 -105c0 -88 -76 -134 -170 -134c-91 0 -150 51 -168 117l62 21c8 -40 48 -80 107 -80c73 0 101 36 101 73c0 40 -24 67 -83 72c-15 1 -30 1 -49 0v59c15 -1 43 0 52 1c54 10 72 37 72 67c0 39 -25 75 -88 75s-94 -45 -105 -86l-56 26
c17 65 82 115 162 115c87 0 154 -47 154 -125c0 -41 -25 -79 -74 -96z" />
    <glyph glyph-name="four.numr" 
d="M42 345v71c111 138 207 279 207 279h75v-292h72v-58h-71v-89h-69v89h-214zM256 402v211s-70 -102 -155 -211h155z" />
    <glyph glyph-name="five.numr" 
d="M150 637l-23 -124c23 24 58 41 100 41c80 0 151 -55 151 -147c0 -97 -73 -159 -167 -159c-84 0 -146 51 -163 110l59 32c11 -40 49 -80 105 -80c57 0 97 39 97 94s-40 92 -92 92c-45 0 -78 -26 -97 -57l-56 18l35 238h245v-58h-194z" />
    <glyph glyph-name="six.numr" 
d="M53 466c0 128 50 240 184 240c54 0 114 -34 142 -85l-50 -41c-20 47 -55 70 -97 70c-94 0 -118 -102 -117 -165v-4c22 38 64 69 123 69c78 0 148 -57 148 -146c0 -92 -69 -158 -159 -158c-121 0 -174 109 -174 220zM225 308c55 0 92 41 92 95c0 50 -35 89 -90 89
c-53 0 -94 -40 -94 -93c0 -51 41 -91 92 -91z" />
    <glyph glyph-name="seven.numr" 
d="M58 637v58h315v-48c-71 -84 -149 -253 -147 -391h-75c1 138 91 315 145 381h-238z" />
    <glyph glyph-name="eight.numr" 
d="M215 706c91 0 153 -53 153 -127c-1 -36 -24 -76 -60 -92c36 -16 71 -57 71 -109c0 -85 -78 -132 -164 -132s-165 47 -165 132c0 50 33 93 71 109c-36 16 -59 56 -60 92c0 74 62 127 154 127zM215 306c62 0 95 36 95 74c0 39 -33 76 -95 76c-63 0 -96 -37 -96 -76
c0 -38 31 -74 96 -74zM215 512c52 0 85 30 85 66c0 39 -32 70 -86 70c-53 0 -84 -31 -84 -70c0 -34 32 -66 85 -66z" />
    <glyph glyph-name="nine.numr" horiz-adv-x="445" 
d="M394 486c0 -131 -51 -240 -185 -240c-54 0 -118 34 -145 85l53 42c20 -44 55 -68 97 -68c93 0 121 100 119 162v4c-19 -38 -65 -69 -124 -69c-78 0 -148 59 -148 147c0 92 68 157 158 157c121 0 175 -109 175 -220zM221 645c-55 0 -92 -41 -92 -95c0 -50 35 -88 90 -88
c54 0 94 39 94 92c0 51 -41 91 -92 91z" />
    <glyph glyph-name="zerosuperior" unicode="&#x2070;" 
d="M216 886c96 0 163 -88 163 -230c0 -140 -67 -230 -163 -230c-97 0 -164 90 -164 230c0 142 67 230 164 230zM216 487c63 0 93 68 93 169c0 102 -31 172 -93 172c-63 0 -94 -70 -94 -172c0 -101 30 -169 94 -169z" />
    <glyph glyph-name="onesuperior" unicode="&#xb9;" horiz-adv-x="300" 
d="M122 436v331l-76 -28v54c34 8 78 31 94 82h50v-439h-68z" />
    <glyph glyph-name="twosuperior" unicode="&#xb2;" 
d="M221 886c85 0 156 -51 156 -135c0 -81 -60 -122 -115 -150l-66 -35c-46 -24 -62 -53 -63 -72h240v-58h-314c0 98 67 148 97 168c21 14 59 36 87 52c47 27 66 63 66 95c0 40 -27 78 -88 78c-78 0 -99 -63 -102 -109l-64 27c7 71 62 139 166 139z" />
    <glyph glyph-name="threesuperior" unicode="&#xb3;" 
d="M297 665c54 -14 83 -62 83 -105c0 -88 -76 -134 -170 -134c-91 0 -150 51 -168 117l62 21c8 -40 48 -80 107 -80c73 0 101 36 101 73c0 40 -24 67 -83 72c-15 1 -30 1 -49 0v59c15 -1 43 0 52 1c54 10 72 37 72 67c0 39 -25 75 -88 75s-94 -45 -105 -86l-56 26
c17 65 82 115 162 115c87 0 154 -47 154 -125c0 -41 -25 -79 -74 -96z" />
    <glyph glyph-name="foursuperior" unicode="&#x2074;" 
d="M42 525v71c111 138 207 279 207 279h75v-292h72v-58h-71v-89h-69v89h-214zM256 582v211s-70 -102 -155 -211h155z" />
    <glyph glyph-name="fivesuperior" unicode="&#x2075;" 
d="M150 817l-23 -124c23 24 58 41 100 41c80 0 151 -55 151 -147c0 -97 -73 -159 -167 -159c-84 0 -146 51 -163 110l59 32c11 -40 49 -80 105 -80c57 0 97 39 97 94s-40 92 -92 92c-45 0 -78 -26 -97 -57l-56 18l35 238h245v-58h-194z" />
    <glyph glyph-name="sixsuperior" unicode="&#x2076;" 
d="M53 646c0 128 50 240 184 240c54 0 114 -34 142 -85l-50 -41c-20 47 -55 70 -97 70c-94 0 -118 -102 -117 -165v-4c22 38 64 69 123 69c78 0 148 -57 148 -146c0 -92 -69 -158 -159 -158c-121 0 -174 109 -174 220zM225 488c55 0 92 41 92 95c0 50 -35 89 -90 89
c-53 0 -94 -40 -94 -93c0 -51 41 -91 92 -91z" />
    <glyph glyph-name="sevensuperior" unicode="&#x2077;" 
d="M58 817v58h315v-48c-71 -84 -149 -253 -147 -391h-75c1 138 91 315 145 381h-238z" />
    <glyph glyph-name="eightsuperior" unicode="&#x2078;" 
d="M215 886c91 0 153 -53 153 -127c-1 -36 -24 -76 -60 -92c36 -16 71 -57 71 -109c0 -85 -78 -132 -164 -132s-165 47 -165 132c0 50 33 93 71 109c-36 16 -59 56 -60 92c0 74 62 127 154 127zM215 486c62 0 95 36 95 74c0 39 -33 76 -95 76c-63 0 -96 -37 -96 -76
c0 -38 31 -74 96 -74zM215 692c52 0 85 30 85 66c0 39 -32 70 -86 70c-53 0 -84 -31 -84 -70c0 -34 32 -66 85 -66z" />
    <glyph glyph-name="ninesuperior" unicode="&#x2079;" horiz-adv-x="445" 
d="M394 666c0 -131 -51 -240 -185 -240c-54 0 -118 34 -145 85l53 42c20 -44 55 -68 97 -68c93 0 121 100 119 162v4c-19 -38 -65 -69 -124 -69c-78 0 -148 59 -148 147c0 92 68 157 158 157c121 0 175 -109 175 -220zM221 825c-55 0 -92 -41 -92 -95c0 -50 35 -88 90 -88
c54 0 94 39 94 92c0 51 -41 91 -92 91z" />
    <glyph glyph-name="zeroinferior" unicode="&#x2080;" 
d="M216 266c96 0 163 -88 163 -230c0 -140 -67 -230 -163 -230c-97 0 -164 90 -164 230c0 142 67 230 164 230zM216 -133c63 0 93 68 93 169c0 102 -31 172 -93 172c-63 0 -94 -70 -94 -172c0 -101 30 -169 94 -169z" />
    <glyph glyph-name="oneinferior" unicode="&#x2081;" horiz-adv-x="300" 
d="M122 -184v331l-76 -28v54c34 8 78 31 94 82h50v-439h-68z" />
    <glyph glyph-name="twoinferior" unicode="&#x2082;" 
d="M221 266c85 0 156 -51 156 -135c0 -81 -60 -122 -115 -150l-66 -35c-46 -24 -62 -53 -63 -72h240v-58h-314c0 98 67 148 97 168c21 14 59 36 87 52c47 27 66 63 66 95c0 40 -27 78 -88 78c-78 0 -99 -63 -102 -109l-64 27c7 71 62 139 166 139z" />
    <glyph glyph-name="threeinferior" unicode="&#x2083;" 
d="M297 45c54 -14 83 -62 83 -105c0 -88 -76 -134 -170 -134c-91 0 -150 51 -168 117l62 21c8 -40 48 -80 107 -80c73 0 101 36 101 73c0 40 -24 67 -83 72c-15 1 -30 1 -49 0v59c15 -1 43 0 52 1c54 10 72 37 72 67c0 39 -25 75 -88 75s-94 -45 -105 -86l-56 26
c17 65 82 115 162 115c87 0 154 -47 154 -125c0 -41 -25 -79 -74 -96z" />
    <glyph glyph-name="fourinferior" unicode="&#x2084;" 
d="M42 -95v71c111 138 207 279 207 279h75v-292h72v-58h-71v-89h-69v89h-214zM256 -38v211s-70 -102 -155 -211h155z" />
    <glyph glyph-name="fiveinferior" unicode="&#x2085;" 
d="M150 197l-23 -124c23 24 58 41 100 41c80 0 151 -55 151 -147c0 -97 -73 -159 -167 -159c-84 0 -146 51 -163 110l59 32c11 -40 49 -80 105 -80c57 0 97 39 97 94s-40 92 -92 92c-45 0 -78 -26 -97 -57l-56 18l35 238h245v-58h-194z" />
    <glyph glyph-name="sixinferior" unicode="&#x2086;" 
d="M53 26c0 128 50 240 184 240c54 0 114 -34 142 -85l-50 -41c-20 47 -55 70 -97 70c-94 0 -118 -102 -117 -165v-4c22 38 64 69 123 69c78 0 148 -57 148 -146c0 -92 -69 -158 -159 -158c-121 0 -174 109 -174 220zM225 -132c55 0 92 41 92 95c0 50 -35 89 -90 89
c-53 0 -94 -40 -94 -93c0 -51 41 -91 92 -91z" />
    <glyph glyph-name="seveninferior" unicode="&#x2087;" 
d="M58 197v58h315v-48c-71 -84 -149 -253 -147 -391h-75c1 138 91 315 145 381h-238z" />
    <glyph glyph-name="eightinferior" unicode="&#x2088;" 
d="M215 266c91 0 153 -53 153 -127c-1 -36 -24 -76 -60 -92c36 -16 71 -57 71 -109c0 -85 -78 -132 -164 -132s-165 47 -165 132c0 50 33 93 71 109c-36 16 -59 56 -60 92c0 74 62 127 154 127zM215 -134c62 0 95 36 95 74c0 39 -33 76 -95 76c-63 0 -96 -37 -96 -76
c0 -38 31 -74 96 -74zM215 72c52 0 85 30 85 66c0 39 -32 70 -86 70c-53 0 -84 -31 -84 -70c0 -34 32 -66 85 -66z" />
    <glyph glyph-name="nineinferior" unicode="&#x2089;" horiz-adv-x="445" 
d="M394 46c0 -131 -51 -240 -185 -240c-54 0 -118 34 -145 85l53 42c20 -44 55 -68 97 -68c93 0 121 100 119 162v4c-19 -38 -65 -69 -124 -69c-78 0 -148 59 -148 147c0 92 68 157 158 157c121 0 175 -109 175 -220zM221 205c-55 0 -92 -41 -92 -95c0 -50 35 -88 90 -88
c54 0 94 39 94 92c0 51 -41 91 -92 91z" />
    <glyph glyph-name="fraction" unicode="&#x2044;" horiz-adv-x="532" 
d="M18 -89l432 784h66l-432 -784h-66z" />
    <glyph glyph-name="onequarter" unicode="&#xbc;" horiz-adv-x="920" 
d="M195 256v331l-76 -28v54c34 8 78 31 94 82h50v-439h-68zM484 0v71c111 138 207 279 207 279h75v-292h72v-58h-71v-89h-69v89h-214zM698 57v211s-70 -102 -155 -211h155zM199 -89l432 784h66l-433 -784h-65z" />
    <glyph glyph-name="onehalf" unicode="&#xbd;" horiz-adv-x="920" 
d="M675 361c85 0 156 -51 156 -135c0 -81 -60 -122 -115 -150l-66 -35c-46 -24 -62 -53 -63 -72h240v-58h-314c0 98 67 148 97 168c21 14 59 36 87 52c47 27 66 63 66 95c0 40 -27 78 -88 78c-78 0 -99 -63 -102 -109l-64 27c7 71 62 139 166 139zM156 -89l432 784h66
l-433 -784h-65zM176 587v-331h68v439h-50c-16 -51 -60 -74 -94 -82v-54z" />
    <glyph glyph-name="threequarters" unicode="&#xbe;" horiz-adv-x="920" 
d="M236 -89l432 784h66l-433 -784h-65zM484 0v71c111 138 207 279 207 279h75v-292h72v-58h-71v-89h-69v89h-214zM698 57v211s-70 -102 -155 -211h155zM322 485c54 -14 83 -62 83 -105c0 -88 -76 -134 -170 -134c-91 0 -150 51 -168 117l62 21c8 -40 48 -80 107 -80
c73 0 101 36 101 73c0 40 -24 67 -83 72c-15 1 -30 1 -49 0v59c15 -1 43 0 52 1c54 10 72 37 72 67c0 39 -25 75 -88 75s-94 -45 -105 -86l-56 26c17 65 82 115 162 115c87 0 154 -47 154 -125c0 -41 -25 -79 -74 -96z" />
    <glyph glyph-name="percent" unicode="%" horiz-adv-x="718" 
d="M135 0l360 695h75l-358 -695h-77zM27 544c0 95 56 171 146 171c83 0 147 -65 147 -167c0 -105 -61 -176 -148 -176c-90 0 -145 70 -145 172zM100 546c0 -68 24 -109 72 -109c49 0 73 38 73 109c0 66 -22 107 -73 107c-49 0 -72 -48 -72 -107zM396 160
c0 95 56 171 146 171c83 0 147 -65 147 -167c0 -105 -61 -176 -148 -176c-90 0 -145 70 -145 172zM469 162c0 -68 24 -109 72 -109c49 0 73 38 73 109c0 66 -22 107 -73 107c-49 0 -72 -48 -72 -107z" />
    <glyph glyph-name="perthousand" unicode="&#x2030;" horiz-adv-x="1025" 
d="M136 0l347 708h77l-348 -708h-76zM38 544c0 95 56 171 146 171c83 0 147 -65 147 -167c0 -105 -61 -176 -148 -176c-90 0 -145 70 -145 172zM111 546c0 -68 24 -109 72 -109c49 0 73 38 73 109c0 66 -22 107 -73 107c-49 0 -72 -48 -72 -107zM368 161
c0 95 56 171 146 171c83 0 147 -65 147 -167c0 -105 -61 -176 -148 -176c-90 0 -145 70 -145 172zM441 163c0 -68 24 -109 72 -109c49 0 73 38 73 109c0 66 -22 107 -73 107c-49 0 -72 -48 -72 -107zM694 161c0 95 56 171 146 171c83 0 147 -65 147 -167
c0 -105 -61 -176 -148 -176c-90 0 -145 70 -145 172zM767 163c0 -68 24 -109 72 -109c49 0 73 38 73 109c0 66 -22 107 -73 107c-49 0 -72 -48 -72 -107z" />
    <glyph glyph-name="plus" unicode="+" horiz-adv-x="530" 
d="M44 270v78h180v187h82v-187h180v-78h-180v-188h-82v188h-180z" />
    <glyph glyph-name="minus" unicode="&#x2212;" horiz-adv-x="530" 
d="M487 270h-443v78h443v-78z" />
    <glyph glyph-name="plusminus" unicode="&#xb1;" horiz-adv-x="520" 
d="M39 372v78h180v187h82v-187h180v-78h-180v-188h-82v188h-180zM481 0h-442v78h442v-78z" />
    <glyph glyph-name="multiply" unicode="&#xd7;" horiz-adv-x="530" 
d="M100 522l165 -173l166 173l55 -55l-169 -172l169 -171l-55 -55l-166 172l-165 -173l-55 55l169 172l-169 172z" />
    <glyph glyph-name="divide" unicode="&#xf7;" horiz-adv-x="520" 
d="M481 229h-443v78h443v-78zM207 0v123h108v-123h-108zM207 412v123h108v-123h-108z" />
    <glyph glyph-name="equal" unicode="=" horiz-adv-x="520" 
d="M481 372h-443v72h443v-72zM481 172h-443v73h443v-73z" />
    <glyph glyph-name="notequal" unicode="&#x2260;" horiz-adv-x="520" 
d="M282 444l105 298h75l-104 -298h135v-72h-160l-45 -127h205v-73h-230l-97 -277h-76l97 277h-137v73h162l45 127h-207v72h232z" />
    <glyph glyph-name="approxequal" unicode="&#x2248;" horiz-adv-x="583" 
d="M309 442c43 -23 97 -41 122 -41c47 0 84 13 116 50l14 -78c-32 -37 -79 -61 -134 -61c-36 0 -81 15 -151 52c-43 24 -97 40 -123 40c-47 0 -85 -12 -116 -50l-15 79c33 37 80 61 135 61c35 0 76 -15 152 -52zM309 242c43 -23 97 -41 122 -41c47 0 84 13 116 50l14 -78
c-32 -37 -79 -61 -134 -61c-36 0 -81 15 -151 52c-43 24 -97 40 -123 40c-47 0 -85 -12 -116 -50l-15 79c33 37 80 61 135 61c35 0 76 -15 152 -52z" />
    <glyph glyph-name="less" unicode="&#x3c;" horiz-adv-x="520" 
d="M480 45l-443 195v71l443 196v-82l-358 -149l358 -149v-82z" />
    <glyph glyph-name="greater" unicode="&#x3e;" horiz-adv-x="520" 
d="M483 240l-443 -195v82l359 149l-359 149v82l443 -196v-71z" />
    <glyph glyph-name="lessequal" unicode="&#x2264;" horiz-adv-x="520" 
d="M480 126l-443 196v71l443 197v-83l-358 -149l358 -149v-83zM480 0h-443v73h443v-73z" />
    <glyph glyph-name="greaterequal" unicode="&#x2265;" horiz-adv-x="520" 
d="M481 322l-443 -196v83l358 149l-358 149v83l443 -197v-71zM38 0h443v73h-443v-73z" />
    <glyph glyph-name="logicalnot" unicode="&#xac;" horiz-adv-x="520" 
d="M38 366v78h443v-272h-84v194h-359z" />
    <glyph glyph-name="Delta" unicode="&#x394;" horiz-adv-x="610" 
d="M610 0h-610l246 695h118zM305 619l-186 -536h372z" />
    <glyph glyph-name="Delta" unicode="&#x2206;" horiz-adv-x="610" 
d="M610 0h-610l246 695h118zM305 619l-186 -536h372z" />
    <glyph glyph-name="Omega" unicode="&#x3a9;" horiz-adv-x="674" 
d="M337 624c-129 0 -217 -92 -217 -222c0 -108 50 -186 158 -213v-189h-230v83h152v53c-108 44 -171 142 -171 266c0 178 141 302 308 302s308 -124 308 -302c0 -124 -63 -222 -171 -266v-53h152v-83h-230v189c108 27 158 105 158 213c0 130 -88 222 -217 222z" />
    <glyph glyph-name="Omega" unicode="&#x2126;" horiz-adv-x="674" 
d="M337 624c-129 0 -217 -92 -217 -222c0 -108 50 -186 158 -213v-189h-230v83h152v53c-108 44 -171 142 -171 266c0 178 141 302 308 302s308 -124 308 -302c0 -124 -63 -222 -171 -266v-53h152v-83h-230v189c108 27 158 105 158 213c0 130 -88 222 -217 222z" />
    <glyph glyph-name="mu" unicode="&#xb5;" horiz-adv-x="570" 
d="M158 -171l-88 -19v698h91v-320c0 -86 54 -122 113 -122c48 0 131 25 134 167v275h92v-508h-75l-9 103c-22 -49 -82 -115 -174 -115c-27 0 -57 6 -84 19v-178z" />
    <glyph glyph-name="mu" unicode="&#x3bc;" horiz-adv-x="570" 
d="M158 -171l-88 -19v698h91v-320c0 -86 54 -122 113 -122c48 0 131 25 134 167v275h92v-508h-75l-9 103c-22 -49 -82 -115 -174 -115c-27 0 -57 6 -84 19v-178z" />
    <glyph glyph-name="pi" unicode="&#x3c0;" horiz-adv-x="610" 
d="M574 14c-22 -14 -53 -24 -82 -24c-71 0 -102 48 -102 123v311h-164v-424h-92v424h-107l35 84h522v-84h-102v-303c0 -33 14 -51 44 -51c15 0 35 9 48 17v-73z" />
    <glyph glyph-name="degree" unicode="&#xb0;" horiz-adv-x="324" 
d="M162 477c-68 0 -122 53 -122 122s54 123 122 123s122 -53 122 -122s-54 -123 -122 -123zM162 673c-41 0 -72 -33 -72 -74s31 -73 72 -73s72 33 72 74s-31 73 -72 73z" />
    <glyph glyph-name="infinity" unicode="&#x221e;" horiz-adv-x="610" 
d="M305 235c-36 -57 -85 -86 -138 -86c-87 0 -159 60 -159 161c0 100 72 160 159 160c53 0 102 -28 138 -86c36 58 85 86 138 86c87 0 159 -60 159 -160c0 -101 -72 -161 -159 -161c-53 0 -102 29 -138 86zM76 310c0 -59 37 -99 95 -99c46 0 79 44 101 98
c-22 54 -55 99 -101 99c-58 0 -95 -40 -95 -98zM534 310c0 58 -37 98 -95 98c-46 0 -79 -45 -101 -99c22 -54 55 -98 101 -98c58 0 95 40 95 99z" />
    <glyph glyph-name="partialdiff" unicode="&#x2202;" horiz-adv-x="610" 
d="M298 64c82 0 142 69 145 158c0 97 -67 166 -152 166c-89 0 -142 -64 -142 -157c0 -99 59 -167 149 -167zM163 592l-58 70c37 29 96 53 156 53c184 0 290 -170 290 -383c0 -187 -98 -352 -263 -352c-132 0 -231 102 -231 252c0 142 111 237 224 237c95 0 170 -60 193 -134
c7 118 -50 301 -211 301c-37 0 -77 -16 -100 -44z" />
    <glyph glyph-name="integral" unicode="&#x222b;" horiz-adv-x="380" 
d="M27 -182l18 67c12 -6 29 -11 43 -11c37 0 57 22 57 60v675c0 115 64 144 122 144c41 0 72 -12 87 -21l-18 -67c-12 6 -29 11 -43 11c-37 0 -57 -22 -57 -60v-675c0 -115 -64 -144 -122 -144c-41 0 -72 12 -87 21z" />
    <glyph glyph-name="radical" unicode="&#x221a;" horiz-adv-x="610" 
d="M610 742l-283 -931h-74l-168 298l-61 -36l-36 70l134 72l156 -281l245 808h87z" />
    <glyph glyph-name="summation" unicode="&#x2211;" horiz-adv-x="610" 
d="M45 -108l234 385l-234 384v81h543v-83h-438l234 -383l-234 -382h438v-83h-543v81z" />
    <glyph glyph-name="product" unicode="&#x220f;" horiz-adv-x="610" 
d="M136 -189h-92v911h522v-911h-92v827h-338v-827z" />
    <glyph glyph-name="lozenge" unicode="&#x25ca;" horiz-adv-x="610" 
d="M252 742h107l179 -381l-179 -381h-107l-179 381zM305 60l135 301l-135 301l-134 -301z" />
    <glyph glyph-name="caron" unicode="&#x2c7;" horiz-adv-x="398" 
d="M199 613l71 78h79l-97 -129h-104l-99 129h79z" />
    <glyph glyph-name="circumflex" unicode="&#x2c6;" horiz-adv-x="398" 
d="M270 562l-71 79l-71 -79h-79l99 129h104l97 -129h-79z" />
    <glyph glyph-name="acute" unicode="&#xb4;" horiz-adv-x="370" 
d="M225 705h108l-108 -143h-64z" />
    <glyph glyph-name="grave" unicode="`" horiz-adv-x="370" 
d="M237 562h-64l-100 143h112z" />
    <glyph glyph-name="macron" unicode="&#xaf;" horiz-adv-x="560" 
d="M418 576h-277v73h277v-73z" />
    <glyph glyph-name="breve" unicode="&#x2d8;" horiz-adv-x="398" 
d="M199 557c-99 0 -140 79 -143 126h75c3 -25 19 -60 68 -60s65 35 68 60h75c-3 -47 -44 -126 -143 -126z" />
    <glyph glyph-name="ring" unicode="&#x2da;" horiz-adv-x="398" 
d="M199 554c-53 0 -94 41 -94 93c0 51 41 93 94 93s94 -42 94 -93c0 -52 -41 -93 -94 -93zM199 692c-27 0 -45 -21 -45 -45c0 -25 18 -46 45 -46s45 21 45 46c0 24 -18 45 -45 45z" />
    <glyph glyph-name="tilde" unicode="&#x2dc;" horiz-adv-x="398" 
d="M310 669l54 -9c-8 -44 -34 -97 -90 -97c-24 0 -50 9 -74 19s-46 19 -69 19c-21 0 -38 -12 -44 -36l-53 10c9 45 28 99 91 99c26 0 52 -11 79 -22c20 -8 41 -15 60 -15s39 8 46 32z" />
    <glyph glyph-name="dotaccent" unicode="&#x2d9;" horiz-adv-x="398" 
d="M147 569v107h103v-107h-103z" />
    <glyph glyph-name="hungarumlaut" unicode="&#x2dd;" horiz-adv-x="478" 
d="M187 562h-54l67 143h94zM333 562h-57l69 143h91z" />
    <glyph glyph-name="dieresis" unicode="&#xa8;" horiz-adv-x="500" 
d="M124 572v97h91v-97h-91zM286 572v97h90v-97h-90z" />
    <glyph glyph-name="commaaccent" horiz-adv-x="225" 
d="M105 -224l-22 30c17 10 35 28 35 54l-47 20v79h91v-77c0 -59 -27 -89 -57 -106z" />
    <glyph glyph-name="commaaccent.alt" horiz-adv-x="210" 
d="M94 -224l-22 30c17 10 35 28 35 54l-47 20v79h91v-77c0 -59 -27 -89 -57 -106z" />
    <glyph glyph-name="cedilla" unicode="&#xb8;" horiz-adv-x="277" 
d="M85 -88l25 115h57l-16 -68l13 1c44 0 86 -22 86 -70s-51 -86 -125 -86c-38 0 -83 14 -99 33l31 52c17 -16 46 -29 71 -29c30 0 51 10 51 28c0 17 -18 24 -46 24h-48z" />
    <glyph glyph-name="ogonek" unicode="&#x2db;" horiz-adv-x="278" 
d="M220 -108l10 -62c-30 -21 -65 -24 -81 -24c-70 0 -103 41 -103 89c0 63 62 112 92 123l60 -18c-38 -24 -73 -46 -73 -95c0 -17 10 -37 40 -37c28 0 55 24 55 24z" />
    <glyph glyph-name="caron.alt" horiz-adv-x="398" 
d="M177 531l-17 39c22 6 40 24 39 53l-39 13v86h88v-77c0 -63 -33 -99 -71 -114z" />
    <glyph glyph-name="caron.cap" horiz-adv-x="225" 
d="M113 821l68 74h82l-97 -124h-106l-97 124h82z" />
    <glyph glyph-name="circumflex.cap" horiz-adv-x="398" 
d="M267 770l-68 74l-68 -74h-82l97 124h106l97 -124h-82z" />
    <glyph glyph-name="acute.cap" horiz-adv-x="225" 
d="M151 771h-72l65 129h116z" />
    <glyph glyph-name="grave.cap" horiz-adv-x="226" 
d="M160 771h-72l-106 129h116z" />
    <glyph glyph-name="macron.cap" horiz-adv-x="225" 
d="M251 780h-277v73h277v-73z" />
    <glyph glyph-name="breve.cap" horiz-adv-x="225" 
d="M114 766c-99 0 -140 75 -143 124h75c3 -25 20 -57 68 -57s65 32 68 57h75c-3 -49 -44 -124 -143 -124z" />
    <glyph glyph-name="ring.cap" horiz-adv-x="225" 
d="M114 765c-48 0 -85 37 -85 84c0 46 37 84 85 84c47 0 85 -38 85 -84c0 -47 -38 -84 -85 -84zM114 888c-24 0 -39 -18 -39 -39c0 -22 15 -40 39 -40s39 18 39 40c0 21 -15 39 -39 39z" />
    <glyph glyph-name="tilde.cap" horiz-adv-x="398" 
d="M310 877l54 -10c-8 -44 -35 -97 -91 -97c-24 0 -46 8 -70 18s-49 20 -72 20c-21 0 -38 -13 -44 -37l-53 11c9 45 29 99 92 99c27 0 55 -13 83 -24c19 -7 37 -13 55 -13c19 0 39 9 46 33z" />
    <glyph glyph-name="dotaccent.cap" horiz-adv-x="225" 
d="M59 779v108h107v-108h-107z" />
    <glyph glyph-name="hungarumlaut.cap" horiz-adv-x="225" 
d="M20 772h-61l68 129h105zM176 772h-64l71 129h101z" />
    <glyph glyph-name="dieresis.cap" horiz-adv-x="500" 
d="M117 778v99h93v-99h-93zM291 778v99h92v-99h-92z" />
    <glyph glyph-name="agrave" unicode="&#xe0;" horiz-adv-x="555" 
d="M377 310v36c0 60 -40 103 -120 103c-83 0 -137 -71 -149 -102l-64 52c39 58 109 121 219 121c127 0 197 -72 197 -172v-231c0 -41 18 -52 40 -52c10 0 20 3 30 6l-16 -61c-10 -7 -32 -15 -55 -15c-43 0 -74 31 -75 86c-36 -51 -100 -89 -191 -89c-72 0 -153 47 -153 138
c0 126 123 160 222 171c46 5 76 6 115 9zM267 237c-78 -12 -139 -32 -139 -96c0 -53 41 -77 93 -77c33 0 148 23 157 140v45c-25 -2 -65 -5 -111 -12zM307 562h-64l-100 143h112z" />
    <glyph glyph-name="aacute" unicode="&#xe1;" horiz-adv-x="555" 
d="M377 346v-36c-39 -3 -69 -4 -115 -9c-99 -11 -222 -45 -222 -171c0 -91 81 -138 153 -138c91 0 155 38 191 89c1 -55 32 -86 75 -86c23 0 45 8 55 15l16 61c-10 -3 -20 -6 -30 -6c-22 0 -40 11 -40 52v231c0 100 -70 172 -197 172c-110 0 -180 -63 -219 -121l64 -52
c12 31 66 102 149 102c80 0 120 -43 120 -103zM267 237c46 7 86 10 111 12v-45c-9 -117 -124 -140 -157 -140c-52 0 -93 24 -93 77c0 64 61 84 139 96zM285 705h108l-108 -143h-64z" />
    <glyph glyph-name="acircumflex" unicode="&#xe2;" horiz-adv-x="555" 
d="M377 310v36c0 60 -40 103 -120 103c-83 0 -137 -71 -149 -102l-64 52c39 58 109 121 219 121c127 0 197 -72 197 -172v-231c0 -41 18 -52 40 -52c10 0 20 3 30 6l-16 -61c-10 -7 -32 -15 -55 -15c-43 0 -74 31 -75 86c-36 -51 -100 -89 -191 -89c-72 0 -153 47 -153 138
c0 126 123 160 222 171c46 5 76 6 115 9zM267 237c-78 -12 -139 -32 -139 -96c0 -53 41 -77 93 -77c33 0 148 23 157 140v45c-25 -2 -65 -5 -111 -12zM330 562l-71 79l-71 -79h-79l99 129h104l97 -129h-79z" />
    <glyph glyph-name="atilde" unicode="&#xe3;" horiz-adv-x="555" 
d="M377 346v-36c-39 -3 -69 -4 -115 -9c-99 -11 -222 -45 -222 -171c0 -91 81 -138 153 -138c91 0 155 38 191 89c1 -55 32 -86 75 -86c23 0 45 8 55 15l16 61c-10 -3 -20 -6 -30 -6c-22 0 -40 11 -40 52v231c0 100 -70 172 -197 172c-110 0 -180 -63 -219 -121l64 -52
c12 31 66 102 149 102c80 0 120 -43 120 -103zM267 237c46 7 86 10 111 12v-45c-9 -117 -124 -140 -157 -140c-52 0 -93 24 -93 77c0 64 61 84 139 96zM375 669l54 -9c-8 -44 -34 -97 -90 -97c-24 0 -50 9 -74 19s-46 19 -69 19c-21 0 -38 -12 -44 -36l-53 10
c9 45 28 99 91 99c26 0 52 -11 79 -22c20 -8 41 -15 60 -15s39 8 46 32z" />
    <glyph glyph-name="adieresis" unicode="&#xe4;" horiz-adv-x="555" 
d="M377 346v-36c-39 -3 -69 -4 -115 -9c-99 -11 -222 -45 -222 -171c0 -91 81 -138 153 -138c91 0 155 38 191 89c1 -55 32 -86 75 -86c23 0 45 8 55 15l16 61c-10 -3 -20 -6 -30 -6c-22 0 -40 11 -40 52v231c0 100 -70 172 -197 172c-110 0 -180 -63 -219 -121l64 -52
c12 31 66 102 149 102c80 0 120 -43 120 -103zM267 237c46 7 86 10 111 12v-45c-9 -117 -124 -140 -157 -140c-52 0 -93 24 -93 77c0 64 61 84 139 96zM134 572v97h91v-97h-91zM296 572v97h90v-97h-90z" />
    <glyph glyph-name="amacron" unicode="&#x101;" horiz-adv-x="555" 
d="M377 346v-36c-39 -3 -69 -4 -115 -9c-99 -11 -222 -45 -222 -171c0 -91 81 -138 153 -138c91 0 155 38 191 89c1 -55 32 -86 75 -86c23 0 45 8 55 15l16 61c-10 -3 -20 -6 -30 -6c-22 0 -40 11 -40 52v231c0 100 -70 172 -197 172c-110 0 -180 -63 -219 -121l64 -52
c12 31 66 102 149 102c80 0 120 -43 120 -103zM267 237c46 7 86 10 111 12v-45c-9 -117 -124 -140 -157 -140c-52 0 -93 24 -93 77c0 64 61 84 139 96zM398 576h-277v73h277v-73z" />
    <glyph glyph-name="abreve" unicode="&#x103;" horiz-adv-x="555" 
d="M377 346v-36c-39 -3 -69 -4 -115 -9c-99 -11 -222 -45 -222 -171c0 -91 81 -138 153 -138c91 0 155 38 191 89c1 -55 32 -86 75 -86c23 0 45 8 55 15l16 61c-10 -3 -20 -6 -30 -6c-22 0 -40 11 -40 52v231c0 100 -70 172 -197 172c-110 0 -180 -63 -219 -121l64 -52
c12 31 66 102 149 102c80 0 120 -43 120 -103zM267 237c46 7 86 10 111 12v-45c-9 -117 -124 -140 -157 -140c-52 0 -93 24 -93 77c0 64 61 84 139 96zM264 557c-99 0 -140 79 -143 126h75c3 -25 19 -60 68 -60s65 35 68 60h75c-3 -47 -44 -126 -143 -126z" />
    <glyph glyph-name="aring" unicode="&#xe5;" horiz-adv-x="555" 
d="M377 346v-36c-39 -3 -69 -4 -115 -9c-99 -11 -222 -45 -222 -171c0 -91 81 -138 153 -138c91 0 155 38 191 89c1 -55 32 -86 75 -86c23 0 45 8 55 15l16 61c-10 -3 -20 -6 -30 -6c-22 0 -40 11 -40 52v231c0 100 -70 172 -197 172c-110 0 -180 -63 -219 -121l64 -52
c12 31 66 102 149 102c80 0 120 -43 120 -103zM267 237c46 7 86 10 111 12v-45c-9 -117 -124 -140 -157 -140c-52 0 -93 24 -93 77c0 64 61 84 139 96zM259 554c-53 0 -94 41 -94 93c0 51 41 93 94 93s94 -42 94 -93c0 -52 -41 -93 -94 -93zM259 692c-27 0 -45 -21 -45 -45
c0 -25 18 -46 45 -46s45 21 45 46c0 24 -18 45 -45 45z" />
    <glyph glyph-name="aringacute" unicode="&#x1fb;" horiz-adv-x="560" 
d="M377 346v-36c-39 -3 -69 -4 -115 -9c-99 -11 -222 -45 -222 -171c0 -91 81 -138 153 -138c91 0 155 38 191 89c1 -55 32 -86 75 -86c23 0 45 8 55 15l16 61c-10 -3 -20 -6 -30 -6c-22 0 -40 11 -40 52v231c0 100 -70 172 -197 172c-110 0 -180 -63 -219 -121l64 -52
c12 31 66 102 149 102c80 0 120 -43 120 -103zM267 237c46 7 86 10 111 12v-45c-9 -117 -124 -140 -157 -140c-52 0 -93 24 -93 77c0 64 61 84 139 96zM280 544c-53 0 -94 41 -94 93c0 51 41 93 94 93s94 -42 94 -93c0 -52 -41 -93 -94 -93zM280 682c-27 0 -45 -21 -45 -45
c0 -25 18 -46 45 -46s45 21 45 46c0 24 -18 45 -45 45zM308 897h108l-108 -143h-64z" />
    <glyph glyph-name="aogonek" unicode="&#x105;" horiz-adv-x="555" 
d="M377 310v36c0 60 -40 103 -120 103c-83 0 -137 -71 -149 -102l-64 52c39 58 109 121 219 121c127 0 197 -72 197 -172v-231c0 -41 18 -52 40 -52c10 0 20 3 30 6l-16 -61c-1 -1 -1 -1 -2 -1h1c-38 -24 -73 -46 -73 -95c0 -17 10 -37 40 -37c28 0 55 24 55 24l10 -62
c-30 -21 -65 -24 -81 -24c-70 0 -103 41 -103 89c0 44 29 80 57 102c-20 14 -34 39 -34 75c-36 -51 -100 -89 -191 -89c-72 0 -153 47 -153 138c0 126 123 160 222 171c46 5 76 6 115 9zM267 237c-78 -12 -139 -32 -139 -96c0 -53 41 -77 93 -77c33 0 148 23 157 140v45
c-25 -2 -65 -5 -111 -12z" />
    <glyph glyph-name="aeacute" unicode="&#x1fd;" horiz-adv-x="849" 
d="M263 520c-110 0 -181 -63 -220 -121l64 -52c12 31 67 103 150 103c80 0 120 -44 120 -104v-36c-42 -3 -76 -5 -122 -10c-96 -10 -215 -48 -215 -172c0 -91 81 -140 153 -140c122 0 185 61 216 116c39 -78 108 -116 188 -116c101 0 180 56 216 146l-72 28
c-23 -59 -75 -98 -142 -98c-93 0 -145 78 -143 183h325l28 3l1 19c7 133 -68 251 -212 251c-66 0 -123 -24 -168 -68c-39 43 -99 68 -167 68zM594 449c74 0 133 -57 129 -136h-264c1 81 57 136 135 136zM267 235c61 8 110 11 110 11v-43c-9 -117 -123 -140 -156 -140
c-52 0 -93 23 -93 76c0 64 61 86 139 96zM462 705h108l-108 -143h-64z" />
    <glyph glyph-name="cacute" unicode="&#x107;" horiz-adv-x="505" 
d="M414 159l67 -37c-40 -79 -106 -134 -208 -134c-148 0 -233 100 -233 265c0 152 88 267 235 267c102 0 174 -56 205 -152l-71 -31c-20 61 -69 107 -135 107c-101 0 -148 -85 -148 -190c0 -120 55 -189 151 -189c60 0 114 39 137 94zM290 705h108l-108 -143h-64z" />
    <glyph glyph-name="ccircumflex" unicode="&#x109;" horiz-adv-x="511" 
d="M414 159l67 -37c-40 -79 -106 -134 -208 -134c-148 0 -233 100 -233 265c0 152 88 267 235 267c102 0 174 -56 205 -152l-71 -31c-20 61 -69 107 -135 107c-101 0 -148 -85 -148 -190c0 -120 55 -189 151 -189c60 0 114 39 137 94zM341 562l-71 79l-71 -79h-79l99 129
h104l97 -129h-79z" />
    <glyph glyph-name="ccaron" unicode="&#x10d;" horiz-adv-x="505" 
d="M414 159l67 -37c-40 -79 -106 -134 -208 -134c-148 0 -233 100 -233 265c0 152 88 267 235 267c102 0 174 -56 205 -152l-71 -31c-20 61 -69 107 -135 107c-101 0 -148 -85 -148 -190c0 -120 55 -189 151 -189c60 0 114 39 137 94zM269 613l71 78h79l-97 -129h-104
l-99 129h79z" />
    <glyph glyph-name="cdotaccent" unicode="&#x10b;" horiz-adv-x="511" 
d="M414 159l67 -37c-40 -79 -106 -134 -208 -134c-148 0 -233 100 -233 265c0 152 88 267 235 267c102 0 174 -56 205 -152l-71 -31c-20 61 -69 107 -135 107c-101 0 -148 -85 -148 -190c0 -120 55 -189 151 -189c60 0 114 39 137 94zM222 569v107h103v-107h-103z" />
    <glyph glyph-name="ccedilla" unicode="&#xe7;" horiz-adv-x="505" 
d="M210 -88l17 80c-120 18 -187 113 -187 261c0 152 88 267 235 267c102 0 174 -56 205 -152l-71 -31c-20 61 -69 107 -135 107c-101 0 -148 -85 -148 -190c0 -120 55 -189 151 -189c60 0 114 39 137 94l67 -37c-39 -77 -102 -130 -198 -134l-7 -29l13 1c44 0 86 -22 86 -70
s-51 -86 -125 -86c-38 0 -83 14 -99 33l31 52c17 -16 46 -29 71 -29c30 0 51 10 51 28c0 17 -18 24 -46 24h-48z" />
    <glyph glyph-name="dcaron" unicode="&#x10f;" horiz-adv-x="619" 
d="M432 0l-17 78c-34 -53 -84 -90 -160 -90c-134 0 -215 108 -215 268c0 163 95 264 219 264c76 0 127 -40 154 -87v289h88v-722h-69zM272 63c43 0 134 32 139 177v34c-5 136 -95 169 -143 169c-86 0 -139 -75 -139 -188c0 -117 50 -192 143 -192zM567 531l-17 39
c22 6 40 24 39 53l-39 13v86h88v-77c0 -63 -33 -99 -71 -114z" />
    <glyph glyph-name="dcroat" unicode="&#x111;" horiz-adv-x="571" 
d="M432 0l-17 78c-34 -53 -84 -90 -160 -90c-134 0 -215 108 -215 268c0 163 95 264 219 264c76 0 127 -40 154 -87v139h-166v58h166v92h88v-92h70v-58h-70v-572h-69zM272 63c43 0 134 32 139 177v34c-5 136 -95 169 -143 169c-86 0 -139 -75 -139 -188
c0 -117 50 -192 143 -192z" />
    <glyph glyph-name="egrave" unicode="&#xe8;" horiz-adv-x="529" 
d="M419 163l74 -29c-36 -90 -117 -146 -218 -146c-137 0 -235 99 -235 269c0 151 87 263 237 263c142 0 220 -121 213 -254l-1 -19l-35 -5h-326c-2 -105 54 -178 149 -178c65 0 121 40 142 99zM272 448c-78 0 -139 -57 -139 -138h270c4 79 -57 138 -131 138zM317 562h-64
l-100 143h112z" />
    <glyph glyph-name="eacute" unicode="&#xe9;" horiz-adv-x="529" 
d="M419 163l74 -29c-36 -90 -117 -146 -218 -146c-137 0 -235 99 -235 269c0 151 87 263 237 263c142 0 220 -121 213 -254l-1 -19l-35 -5h-326c-2 -105 54 -178 149 -178c65 0 121 40 142 99zM272 448c-78 0 -139 -57 -139 -138h270c4 79 -57 138 -131 138zM300 705h108
l-108 -143h-64z" />
    <glyph glyph-name="ecircumflex" unicode="&#xea;" horiz-adv-x="529" 
d="M419 163l74 -29c-36 -90 -117 -146 -218 -146c-137 0 -235 99 -235 269c0 151 87 263 237 263c142 0 220 -121 213 -254l-1 -19l-35 -5h-326c-2 -105 54 -178 149 -178c65 0 121 40 142 99zM272 448c-78 0 -139 -57 -139 -138h270c4 79 -57 138 -131 138zM345 562l-71 79
l-71 -79h-79l99 129h104l97 -129h-79z" />
    <glyph glyph-name="ecaron" unicode="&#x11b;" horiz-adv-x="529" 
d="M419 163l74 -29c-36 -90 -117 -146 -218 -146c-137 0 -235 99 -235 269c0 151 87 263 237 263c142 0 220 -121 213 -254l-1 -19l-35 -5h-326c-2 -105 54 -178 149 -178c65 0 121 40 142 99zM272 448c-78 0 -139 -57 -139 -138h270c4 79 -57 138 -131 138zM274 613l71 78
h79l-97 -129h-104l-99 129h79z" />
    <glyph glyph-name="edieresis" unicode="&#xeb;" horiz-adv-x="529" 
d="M419 163l74 -29c-36 -90 -117 -146 -218 -146c-137 0 -235 99 -235 269c0 151 87 263 237 263c142 0 220 -121 213 -254l-1 -19l-35 -5h-326c-2 -105 54 -178 149 -178c65 0 121 40 142 99zM272 448c-78 0 -139 -57 -139 -138h270c4 79 -57 138 -131 138zM149 572v97h91
v-97h-91zM311 572v97h90v-97h-90z" />
    <glyph glyph-name="emacron" unicode="&#x113;" horiz-adv-x="529" 
d="M419 163l74 -29c-36 -90 -117 -146 -218 -146c-137 0 -235 99 -235 269c0 151 87 263 237 263c142 0 220 -121 213 -254l-1 -19l-35 -5h-326c-2 -105 54 -178 149 -178c65 0 121 40 142 99zM272 448c-78 0 -139 -57 -139 -138h270c4 79 -57 138 -131 138zM413 576h-277
v73h277v-73z" />
    <glyph glyph-name="ebreve" unicode="&#x115;" horiz-adv-x="529" 
d="M419 163l74 -29c-36 -90 -117 -146 -218 -146c-137 0 -235 99 -235 269c0 151 87 263 237 263c142 0 220 -121 213 -254l-1 -19l-35 -5h-326c-2 -105 54 -178 149 -178c65 0 121 40 142 99zM272 448c-78 0 -139 -57 -139 -138h270c4 79 -57 138 -131 138zM267 557
c-99 0 -140 79 -143 126h75c3 -25 19 -60 68 -60s65 35 68 60h75c-3 -47 -44 -126 -143 -126z" />
    <glyph glyph-name="edotaccent" unicode="&#x117;" horiz-adv-x="529" 
d="M419 163l74 -29c-36 -90 -117 -146 -218 -146c-137 0 -235 99 -235 269c0 151 87 263 237 263c142 0 220 -121 213 -254l-1 -19l-35 -5h-326c-2 -105 54 -178 149 -178c65 0 121 40 142 99zM272 448c-78 0 -139 -57 -139 -138h270c4 79 -57 138 -131 138zM227 569v107
h103v-107h-103z" />
    <glyph glyph-name="eogonek" unicode="&#x119;" horiz-adv-x="529" 
d="M419 163l74 -29c-12 -31 -30 -57 -51 -79c-34 -32 -77 -75 -77 -132c0 -32 20 -49 45 -49c28 0 54 22 54 22l10 -64c-30 -21 -59 -24 -82 -24c-70 0 -107 47 -107 98c0 34 15 62 36 86c-15 -2 -30 -4 -46 -4c-137 0 -235 99 -235 269c0 151 87 263 237 263
c142 0 220 -121 213 -254l-1 -19l-35 -5h-326c-2 -105 54 -178 149 -178c65 0 121 40 142 99zM272 448c-78 0 -139 -57 -139 -138h270c4 79 -57 138 -131 138z" />
    <glyph glyph-name="gcircumflex" unicode="&#x11d;" horiz-adv-x="595" 
d="M284 67c74 0 147 60 148 174v32c-2 95 -61 171 -148 171c-93 0 -155 -73 -155 -188s62 -189 155 -189zM525 508v-456c0 -173 -93 -286 -272 -284c-109 1 -196 66 -212 159h94c11 -46 56 -82 125 -82c122 0 176 75 176 194v41c-35 -47 -88 -92 -174 -92
c-126 0 -222 100 -222 267c0 166 105 265 231 265c83 0 134 -41 168 -89l13 77h73zM363 562l-71 79l-71 -79h-79l99 129h104l97 -129h-79z" />
    <glyph glyph-name="gbreve" unicode="&#x11f;" horiz-adv-x="595" 
d="M284 67c-93 0 -155 74 -155 189s62 188 155 188c87 0 146 -76 148 -171v-32c-1 -114 -74 -174 -148 -174zM525 52v456h-73l-13 -77c-34 48 -85 89 -168 89c-126 0 -231 -99 -231 -265c0 -167 96 -267 222 -267c86 0 139 45 174 92v-41c0 -119 -54 -194 -176 -194
c-69 0 -114 36 -125 82h-94c16 -93 103 -158 212 -159c179 -2 272 111 272 284zM284 557c-99 0 -140 79 -143 126h75c3 -25 19 -60 68 -60s65 35 68 60h75c-3 -47 -44 -126 -143 -126z" />
    <glyph glyph-name="gdotaccent" unicode="&#x121;" horiz-adv-x="595" 
d="M284 67c-93 0 -155 74 -155 189s62 188 155 188c87 0 146 -76 148 -171v-32c-1 -114 -74 -174 -148 -174zM525 52v456h-73l-13 -77c-34 48 -85 89 -168 89c-126 0 -231 -99 -231 -265c0 -167 96 -267 222 -267c86 0 139 45 174 92v-41c0 -119 -54 -194 -176 -194
c-69 0 -114 36 -125 82h-94c16 -93 103 -158 212 -159c179 -2 272 111 272 284zM238 569v107h103v-107h-103z" />
    <glyph glyph-name="gcommaaccent" unicode="&#x123;" horiz-adv-x="595" 
d="M284 67c-93 0 -155 74 -155 189s62 188 155 188c87 0 146 -76 148 -171v-32c-1 -114 -74 -174 -148 -174zM525 52v456h-73l-13 -77c-34 48 -85 89 -168 89c-126 0 -231 -99 -231 -265c0 -167 96 -267 222 -267c86 0 139 45 174 92v-41c0 -119 -54 -194 -176 -194
c-69 0 -114 36 -125 82h-94c16 -93 103 -158 212 -159c179 -2 272 111 272 284zM285 745l22 -30c-17 -10 -35 -28 -35 -54l47 -20v-79h-91v77c0 59 27 89 57 106z" />
    <glyph glyph-name="hcircumflex" unicode="&#x125;" horiz-adv-x="566" 
d="M298 447c-42 0 -132 -33 -137 -164v-283h-91v722h91v-297c27 45 85 95 167 95c90 0 173 -51 173 -182v-338h-92v330c0 87 -46 117 -111 117zM315 772l-71 79l-71 -79h-79l99 129h104l97 -129h-79z" />
    <glyph glyph-name="hbar" unicode="&#x127;" horiz-adv-x="566" 
d="M298 447c-42 0 -132 -33 -137 -164v-283h-91v572h-70v58h70v92h91v-92h163v-58h-163v-147c27 45 85 95 167 95c90 0 173 -51 173 -182v-338h-92v330c0 87 -46 117 -111 117z" />
    <glyph glyph-name="igrave" unicode="&#xec;" horiz-adv-x="256" 
d="M82 0v508h93v-508h-93zM162 562h-64l-100 143h112z" />
    <glyph glyph-name="iacute" unicode="&#xed;" horiz-adv-x="256" 
d="M82 0v508h93v-508h-93zM155 705h108l-108 -143h-64z" />
    <glyph glyph-name="icircumflex" unicode="&#xee;" horiz-adv-x="256" 
d="M82 0v508h93v-508h-93zM198 562l-71 79l-71 -79h-79l99 129h104l97 -129h-79z" />
    <glyph glyph-name="itilde" unicode="&#x129;" horiz-adv-x="256" 
d="M82 0v508h93v-508h-93zM239 669l54 -9c-8 -44 -34 -97 -90 -97c-24 0 -50 9 -74 19s-46 19 -69 19c-21 0 -38 -12 -44 -36l-53 10c9 45 28 99 91 99c26 0 52 -11 79 -22c20 -8 41 -15 60 -15s39 8 46 32z" />
    <glyph glyph-name="idieresis" unicode="&#xef;" horiz-adv-x="256" 
d="M82 0v508h93v-508h-93zM2 572v97h91v-97h-91zM164 572v97h90v-97h-90z" />
    <glyph glyph-name="imacron" unicode="&#x12b;" horiz-adv-x="257" 
d="M82 0v508h93v-508h-93zM268 576h-277v73h277v-73z" />
    <glyph glyph-name="ibreve" unicode="&#x12d;" horiz-adv-x="256" 
d="M82 0v508h93v-508h-93zM128 557c-99 0 -140 79 -143 126h75c3 -25 19 -60 68 -60s65 35 68 60h75c-3 -47 -44 -126 -143 -126z" />
    <glyph glyph-name="iogonek" unicode="&#x12f;" horiz-adv-x="249" 
d="M194 -108l10 -62c-30 -21 -65 -24 -81 -24c-70 0 -103 41 -103 89c0 45 32 83 61 105v508h91v-508c-38 -24 -73 -46 -73 -95c0 -17 10 -37 40 -37c28 0 55 24 55 24zM77 606v99h99v-99h-99z" />
    <glyph glyph-name="jcircumflex" unicode="&#x135;" horiz-adv-x="263" 
d="M20 -188l-15 74c10 -4 24 -6 32 -6c34 0 57 18 57 59v569h91v-557c0 -116 -69 -145 -122 -146c-16 0 -32 3 -43 7zM203 562l-71 79l-71 -79h-79l99 129h104l97 -129h-79z" />
    <glyph glyph-name="kcommaaccent" unicode="&#x137;" horiz-adv-x="514" 
d="M260 241l-95 -109v-132h-90v722h88v-489l223 275h106l-170 -206l187 -302h-101zM270 -224l-22 30c17 10 35 28 35 54l-47 20v79h91v-77c0 -59 -27 -89 -57 -106z" />
    <glyph glyph-name="lacute" unicode="&#x13a;" horiz-adv-x="240" 
d="M75 0v722h90v-722h-90zM156 771h-72l65 129h116z" />
    <glyph glyph-name="lcaron" unicode="&#x13e;" horiz-adv-x="283" 
d="M75 0v722h90v-722h-90zM232 531l-17 39c22 6 40 24 39 53l-39 13v86h88v-77c0 -63 -33 -99 -71 -114z" />
    <glyph glyph-name="lcommaaccent" unicode="&#x13c;" horiz-adv-x="240" 
d="M75 0v722h90v-722h-90zM108 -224l-22 30c17 10 35 28 35 54l-47 20v79h91v-77c0 -59 -27 -89 -57 -106z" />
    <glyph glyph-name="ldot" unicode="&#x140;" horiz-adv-x="337" 
d="M75 0v722h90v-722h-90zM233 255v130h114v-130h-114z" />
    <glyph glyph-name="lslash" unicode="&#x142;" horiz-adv-x="245" 
d="M73 0v251l-54 -60v74l54 60v397h93v-295l60 68v-76l-60 -67v-352h-93z" />
    <glyph glyph-name="nacute" unicode="&#x144;" horiz-adv-x="571" 
d="M297 445c66 0 112 -30 112 -116v-329h92v335c0 138 -93 185 -175 185c-70 0 -131 -39 -168 -98l-15 86h-73v-508h90v281c5 136 95 164 137 164zM320 705h108l-108 -143h-64z" />
    <glyph glyph-name="ncaron" unicode="&#x148;" horiz-adv-x="571" 
d="M297 445c66 0 112 -30 112 -116v-329h92v335c0 138 -93 185 -175 185c-70 0 -131 -39 -168 -98l-15 86h-73v-508h90v281c5 136 95 164 137 164zM294 613l71 78h79l-97 -129h-104l-99 129h79z" />
    <glyph glyph-name="ntilde" unicode="&#xf1;" horiz-adv-x="571" 
d="M297 445c66 0 112 -30 112 -116v-329h92v335c0 138 -93 185 -175 185c-70 0 -131 -39 -168 -98l-15 86h-73v-508h90v281c5 136 95 164 137 164zM405 669l54 -9c-8 -44 -34 -97 -90 -97c-24 0 -50 9 -74 19s-46 19 -69 19c-21 0 -38 -12 -44 -36l-53 10c9 45 28 99 91 99
c26 0 52 -11 79 -22c20 -8 41 -15 60 -15s39 8 46 32z" />
    <glyph glyph-name="ncommaaccent" unicode="&#x146;" horiz-adv-x="571" 
d="M297 445c-42 0 -132 -28 -137 -164v-281h-90v508h73l15 -86c37 59 98 98 168 98c82 0 175 -47 175 -185v-335h-92v329c0 86 -46 116 -112 116zM275 -224l-22 30c17 10 35 28 35 54l-47 20v79h91v-77c0 -59 -27 -89 -57 -106z" />
    <glyph glyph-name="ograve" unicode="&#xf2;" horiz-adv-x="548" 
d="M40 256c0 154 96 264 233 264c134 0 235 -97 235 -262c0 -166 -97 -270 -235 -270c-137 0 -233 103 -233 268zM129 257c0 -117 51 -192 144 -192c95 0 146 73 146 192c0 115 -54 189 -146 189c-95 0 -144 -84 -144 -189zM312 562h-64l-100 143h112z" />
    <glyph glyph-name="oacute" unicode="&#xf3;" horiz-adv-x="548" 
d="M40 256c0 -165 96 -268 233 -268c138 0 235 104 235 270c0 165 -101 262 -235 262c-137 0 -233 -110 -233 -264zM129 257c0 105 49 189 144 189c92 0 146 -74 146 -189c0 -119 -51 -192 -146 -192c-93 0 -144 75 -144 192zM300 705h108l-108 -143h-64z" />
    <glyph glyph-name="ocircumflex" unicode="&#xf4;" horiz-adv-x="548" 
d="M40 256c0 154 96 264 233 264c134 0 235 -97 235 -262c0 -166 -97 -270 -235 -270c-137 0 -233 103 -233 268zM129 257c0 -117 51 -192 144 -192c95 0 146 73 146 192c0 115 -54 189 -146 189c-95 0 -144 -84 -144 -189zM345 562l-71 79l-71 -79h-79l99 129h104l97 -129
h-79z" />
    <glyph glyph-name="otilde" unicode="&#xf5;" horiz-adv-x="548" 
d="M40 256c0 -165 96 -268 233 -268c138 0 235 104 235 270c0 165 -101 262 -235 262c-137 0 -233 -110 -233 -264zM129 257c0 105 49 189 144 189c92 0 146 -74 146 -189c0 -119 -51 -192 -146 -192c-93 0 -144 75 -144 192zM385 669l54 -9c-8 -44 -34 -97 -90 -97
c-24 0 -50 9 -74 19s-46 19 -69 19c-21 0 -38 -12 -44 -36l-53 10c9 45 28 99 91 99c26 0 52 -11 79 -22c20 -8 41 -15 60 -15s39 8 46 32z" />
    <glyph glyph-name="odieresis" unicode="&#xf6;" horiz-adv-x="548" 
d="M40 256c0 -165 96 -268 233 -268c138 0 235 104 235 270c0 165 -101 262 -235 262c-137 0 -233 -110 -233 -264zM129 257c0 105 49 189 144 189c92 0 146 -74 146 -189c0 -119 -51 -192 -146 -192c-93 0 -144 75 -144 192zM147 572v97h91v-97h-91zM309 572v97h90v-97h-90
z" />
    <glyph glyph-name="omacron" unicode="&#x14d;" horiz-adv-x="548" 
d="M40 256c0 -165 96 -268 233 -268c138 0 235 104 235 270c0 165 -101 262 -235 262c-137 0 -233 -110 -233 -264zM129 257c0 105 49 189 144 189c92 0 146 -74 146 -189c0 -119 -51 -192 -146 -192c-93 0 -144 75 -144 192zM412 576h-277v73h277v-73z" />
    <glyph glyph-name="obreve" unicode="&#x14f;" horiz-adv-x="548" 
d="M40 256c0 -165 96 -268 233 -268c138 0 235 104 235 270c0 165 -101 262 -235 262c-137 0 -233 -110 -233 -264zM129 257c0 105 49 189 144 189c92 0 146 -74 146 -189c0 -119 -51 -192 -146 -192c-93 0 -144 75 -144 192zM274 557c-99 0 -140 79 -143 126h75
c3 -25 19 -60 68 -60s65 35 68 60h75c-3 -47 -44 -126 -143 -126z" />
    <glyph glyph-name="ohungarumlaut" unicode="&#x151;" horiz-adv-x="548" 
d="M40 256c0 -165 96 -268 233 -268c138 0 235 104 235 270c0 165 -101 262 -235 262c-137 0 -233 -110 -233 -264zM129 257c0 105 49 189 144 189c92 0 146 -74 146 -189c0 -119 -51 -192 -146 -192c-93 0 -144 75 -144 192zM222 562h-54l67 143h94zM368 562h-57l69 143h91
z" />
    <glyph glyph-name="oslash" unicode="&#xf8;" horiz-adv-x="603" 
d="M61 255c0 154 92 265 238 265c58 0 112 -17 152 -51l68 76l42 -41l-69 -80c29 -43 46 -99 46 -166c0 -169 -94 -270 -239 -270c-59 0 -110 15 -147 45l-65 -73l-45 39l68 78c-32 45 -49 106 -49 178zM153 257c0 -42 5 -79 18 -109l228 260c-26 26 -58 40 -100 40
c-99 0 -146 -86 -146 -191zM299 64c99 0 150 74 150 193c0 37 -6 70 -17 98l-226 -259c24 -21 53 -32 93 -32z" />
    <glyph glyph-name="oslashacute" unicode="&#x1ff;" horiz-adv-x="603" 
d="M61 255c0 -72 17 -133 49 -178l-68 -78l45 -39l65 73c37 -30 88 -45 147 -45c145 0 239 101 239 270c0 67 -17 123 -46 166l69 80l-42 41l-68 -76c-40 34 -94 51 -152 51c-146 0 -238 -111 -238 -265zM153 257c0 105 47 191 146 191c42 0 74 -14 100 -40l-228 -260
c-13 30 -18 67 -18 109zM299 64c-40 0 -69 11 -93 32l226 259c11 -28 17 -61 17 -98c0 -119 -51 -193 -150 -193zM319 705h108l-108 -143h-64z" />
    <glyph glyph-name="racute" unicode="&#x155;" horiz-adv-x="350" 
d="M146 508l11 -100c20 52 68 110 137 110c30 0 53 -15 64 -30l-46 -78c-10 12 -29 22 -48 22c-24 0 -95 -24 -100 -168v-264h-94v508h76zM235 705h108l-108 -143h-64z" />
    <glyph glyph-name="rcommaaccent" unicode="&#x157;" horiz-adv-x="350" 
d="M146 508l11 -100c20 52 68 110 137 110c30 0 53 -15 64 -30l-46 -78c-10 12 -29 22 -48 22c-24 0 -95 -24 -100 -168v-264h-94v508h76zM106 -224l-22 30c17 10 35 28 35 54l-47 20v79h91v-77c0 -59 -27 -89 -57 -106z" />
    <glyph glyph-name="rcaron" unicode="&#x159;" horiz-adv-x="350" 
d="M146 508l11 -100c20 52 68 110 137 110c30 0 53 -15 64 -30l-46 -78c-10 12 -29 22 -48 22c-24 0 -95 -24 -100 -168v-264h-94v508h76zM214 613l71 78h79l-97 -129h-104l-99 129h79z" />
    <glyph glyph-name="sacute" unicode="&#x15b;" horiz-adv-x="489" 
d="M369 135c0 35 -21 56 -74 67c-37 8 -70 16 -106 26c-75 21 -133 62 -133 141c0 92 80 151 192 151c94 0 160 -50 199 -95l-54 -64c-17 27 -77 87 -148 87c-65 0 -105 -29 -105 -74c0 -32 26 -51 77 -64c38 -10 68 -18 105 -26c75 -16 132 -59 132 -141
c0 -94 -89 -155 -203 -155c-108 0 -191 60 -221 120l64 53c14 -29 75 -98 162 -98c78 0 113 33 113 72zM265 705h108l-108 -143h-64z" />
    <glyph glyph-name="scircumflex" unicode="&#x15d;" horiz-adv-x="489" 
d="M369 135c0 35 -21 56 -74 67c-37 8 -70 16 -106 26c-75 21 -133 62 -133 141c0 92 80 151 192 151c94 0 160 -50 199 -95l-54 -64c-17 27 -77 87 -148 87c-65 0 -105 -29 -105 -74c0 -32 26 -51 77 -64c38 -10 68 -18 105 -26c75 -16 132 -59 132 -141
c0 -94 -89 -155 -203 -155c-108 0 -191 60 -221 120l64 53c14 -29 75 -98 162 -98c78 0 113 33 113 72zM316 562l-71 79l-71 -79h-79l99 129h104l97 -129h-79z" />
    <glyph glyph-name="scaron" unicode="&#x161;" horiz-adv-x="489" 
d="M369 135c0 35 -21 56 -74 67c-37 8 -70 16 -106 26c-75 21 -133 62 -133 141c0 92 80 151 192 151c94 0 160 -50 199 -95l-54 -64c-17 27 -77 87 -148 87c-65 0 -105 -29 -105 -74c0 -32 26 -51 77 -64c38 -10 68 -18 105 -26c75 -16 132 -59 132 -141
c0 -94 -89 -155 -203 -155c-108 0 -191 60 -221 120l64 53c14 -29 75 -98 162 -98c78 0 113 33 113 72zM244 613l71 78h79l-97 -129h-104l-99 129h79z" />
    <glyph glyph-name="scedilla" unicode="&#x15f;" horiz-adv-x="489" 
d="M185 -88l17 80c-84 14 -147 65 -172 116l64 53c14 -29 75 -98 162 -98c78 0 113 33 113 72c0 35 -21 56 -74 67c-37 8 -70 16 -106 26c-75 21 -133 62 -133 141c0 92 80 151 192 151c94 0 160 -50 199 -95l-54 -64c-17 27 -77 87 -148 87c-65 0 -105 -29 -105 -74
c0 -32 26 -51 77 -64c38 -10 68 -18 105 -26c75 -16 132 -59 132 -141c0 -92 -86 -152 -196 -155l-7 -29l13 1c44 0 86 -22 86 -70s-51 -86 -125 -86c-38 0 -83 14 -99 33l31 52c17 -16 46 -29 71 -29c30 0 51 10 51 28c0 17 -18 24 -46 24h-48z" />
    <glyph glyph-name="uni0219" unicode="&#x219;" horiz-adv-x="489" 
d="M369 135c0 35 -21 56 -74 67c-37 8 -70 16 -106 26c-75 21 -133 62 -133 141c0 92 80 151 192 151c94 0 160 -50 199 -95l-54 -64c-17 27 -77 87 -148 87c-65 0 -105 -29 -105 -74c0 -32 26 -51 77 -64c38 -10 68 -18 105 -26c75 -16 132 -59 132 -141
c0 -94 -89 -155 -203 -155c-108 0 -191 60 -221 120l64 53c14 -29 75 -98 162 -98c78 0 113 33 113 72zM240 -224l-22 30c17 10 35 28 35 54l-47 20v79h91v-77c0 -59 -27 -89 -57 -106z" />
    <glyph glyph-name="tcaron" unicode="&#x165;" horiz-adv-x="347" 
d="M324 72l-16 -70c-22 -8 -44 -14 -77 -14c-67 0 -114 50 -114 130v317h-101v73h103v100l87 102v-202h113v-73h-112v-305c0 -52 32 -77 89 -65zM277 571l-17 39c22 6 40 24 39 53l-39 13v86h88v-77c0 -63 -33 -99 -71 -114z" />
    <glyph glyph-name="uni0163" unicode="&#x163;" horiz-adv-x="347" 
d="M180 -88l17 81c-48 13 -80 59 -80 125v317h-101v73h103v100l87 102v-202h113v-73h-112v-305c0 -52 32 -77 89 -65l28 7l-16 -70c-17 -6 -34 -11 -55 -13l-7 -30l13 1c44 0 86 -22 86 -70s-51 -86 -125 -86c-38 0 -83 14 -99 33l31 52c17 -16 46 -29 71 -29
c30 0 51 10 51 28c0 17 -18 24 -46 24h-48z" />
    <glyph glyph-name="uni021B" unicode="&#x21b;" horiz-adv-x="347" 
d="M324 72l-16 -70c-22 -8 -44 -14 -77 -14c-67 0 -114 50 -114 130v317h-101v73h103v100l87 102v-202h113v-73h-112v-305c0 -52 32 -77 89 -65zM162 -224l-22 30c17 10 35 28 35 54l-47 20v79h91v-77c0 -59 -27 -89 -57 -106z" />
    <glyph glyph-name="tbar" unicode="&#x167;" horiz-adv-x="347" 
d="M324 72l-16 -70c-22 -8 -44 -14 -77 -14c-67 0 -114 50 -114 130v107h-101v73h101v137h-101v73h103v100l87 102v-202h113v-73h-112v-137h112v-73h-112v-95c0 -52 32 -77 89 -65z" />
    <glyph glyph-name="ugrave" unicode="&#xf9;" horiz-adv-x="569" 
d="M274 66c48 0 131 25 134 167v275h91v-508h-71l-12 97c-22 -49 -82 -109 -174 -109c-83 0 -172 50 -172 194v326h91v-321c0 -86 54 -121 113 -121zM327 562h-64l-100 143h112z" />
    <glyph glyph-name="uacute" unicode="&#xfa;" horiz-adv-x="569" 
d="M274 66c48 0 131 25 134 167v275h91v-508h-71l-12 97c-22 -49 -82 -109 -174 -109c-83 0 -172 50 -172 194v326h91v-321c0 -86 54 -121 113 -121zM305 705h108l-108 -143h-64z" />
    <glyph glyph-name="ucircumflex" unicode="&#xfb;" horiz-adv-x="569" 
d="M274 66c48 0 131 25 134 167v275h91v-508h-71l-12 97c-22 -49 -82 -109 -174 -109c-83 0 -172 50 -172 194v326h91v-321c0 -86 54 -121 113 -121zM355 562l-71 79l-71 -79h-79l99 129h104l97 -129h-79z" />
    <glyph glyph-name="utilde" unicode="&#x169;" horiz-adv-x="564" 
d="M269 66c48 0 131 25 134 167v275h91v-508h-71l-12 97c-22 -49 -82 -109 -174 -109c-83 0 -172 50 -172 194v326h91v-321c0 -86 54 -121 113 -121zM393 669l54 -9c-8 -44 -34 -97 -90 -97c-24 0 -50 9 -74 19s-46 19 -69 19c-21 0 -38 -12 -44 -36l-53 10
c9 45 28 99 91 99c26 0 52 -11 79 -22c20 -8 41 -15 60 -15s39 8 46 32z" />
    <glyph glyph-name="udieresis" unicode="&#xfc;" horiz-adv-x="569" 
d="M274 66c48 0 131 25 134 167v275h91v-508h-71l-12 97c-22 -49 -82 -109 -174 -109c-83 0 -172 50 -172 194v326h91v-321c0 -86 54 -121 113 -121zM158 572v97h91v-97h-91zM320 572v97h90v-97h-90z" />
    <glyph glyph-name="umacron" unicode="&#x16b;" horiz-adv-x="569" 
d="M274 66c48 0 131 25 134 167v275h91v-508h-71l-12 97c-22 -49 -82 -109 -174 -109c-83 0 -172 50 -172 194v326h91v-321c0 -86 54 -121 113 -121zM423 576h-277v73h277v-73z" />
    <glyph glyph-name="ubreve" unicode="&#x16d;" horiz-adv-x="564" 
d="M269 66c48 0 131 25 134 167v275h91v-508h-71l-12 97c-22 -49 -82 -109 -174 -109c-83 0 -172 50 -172 194v326h91v-321c0 -86 54 -121 113 -121zM282 557c-99 0 -140 79 -143 126h75c3 -25 19 -60 68 -60s65 35 68 60h75c-3 -47 -44 -126 -143 -126z" />
    <glyph glyph-name="uring" unicode="&#x16f;" horiz-adv-x="569" 
d="M274 66c48 0 131 25 134 167v275h91v-508h-71l-12 97c-22 -49 -82 -109 -174 -109c-83 0 -172 50 -172 194v326h91v-321c0 -86 54 -121 113 -121zM284 554c-53 0 -94 41 -94 93c0 51 41 93 94 93s94 -42 94 -93c0 -52 -41 -93 -94 -93zM284 692c-27 0 -45 -21 -45 -45
c0 -25 18 -46 45 -46s45 21 45 46c0 24 -18 45 -45 45z" />
    <glyph glyph-name="uhungarumlaut" unicode="&#x171;" horiz-adv-x="569" 
d="M274 66c48 0 131 25 134 167v275h91v-508h-71l-12 97c-22 -49 -82 -109 -174 -109c-83 0 -172 50 -172 194v326h91v-321c0 -86 54 -121 113 -121zM232 562h-54l67 143h94zM378 562h-57l69 143h91z" />
    <glyph glyph-name="uogonek" unicode="&#x173;" horiz-adv-x="569" 
d="M521 -108l10 -62c-30 -21 -65 -24 -81 -24c-70 0 -103 41 -103 89c0 56 47 100 79 117l-10 85c-22 -49 -82 -109 -174 -109c-83 0 -172 50 -172 194v326h91v-321c0 -86 54 -121 113 -121c48 0 131 25 134 167v275h91v-508c-38 -24 -73 -46 -73 -95c0 -17 10 -37 40 -37
c28 0 55 24 55 24z" />
    <glyph glyph-name="wgrave" unicode="&#x1e81;" horiz-adv-x="739" 
d="M482 0l-112 428l-112 -428h-94l-154 508h91l109 -407l107 407h106l107 -406l109 406h90l-151 -508h-96zM411 562h-64l-100 143h112z" />
    <glyph glyph-name="wacute" unicode="&#x1e83;" horiz-adv-x="739" 
d="M370 428l112 -428h96l151 508h-90l-109 -406l-107 406h-106l-107 -407l-109 407h-91l154 -508h94zM398 705h108l-108 -143h-64z" />
    <glyph glyph-name="wcircumflex" unicode="&#x175;" horiz-adv-x="739" 
d="M482 0l-112 428l-112 -428h-94l-154 508h91l109 -407l107 407h106l107 -406l109 406h90l-151 -508h-96zM440 562l-71 79l-71 -79h-79l99 129h104l97 -129h-79z" />
    <glyph glyph-name="wdieresis" unicode="&#x1e85;" horiz-adv-x="739" 
d="M370 428l112 -428h96l151 508h-90l-109 -406l-107 406h-106l-107 -407l-109 407h-91l154 -508h94zM243 572v97h91v-97h-91zM405 572v97h90v-97h-90z" />
    <glyph glyph-name="ygrave" unicode="&#x1ef3;" horiz-adv-x="464" 
d="M177 -54l18 59l-185 503h95l133 -401l124 401h92l-199 -582c-24 -70 -73 -112 -155 -112c-33 0 -63 10 -80 23l35 73c10 -9 30 -18 45 -18c40 0 64 16 77 54zM284 562h-64l-100 143h112z" />
    <glyph glyph-name="yacute" unicode="&#xfd;" horiz-adv-x="464" 
d="M195 5l-18 -59c-13 -38 -37 -54 -77 -54c-15 0 -35 9 -45 18l-35 -73c17 -13 47 -23 80 -23c82 0 131 42 155 112l199 582h-92l-124 -401l-133 401h-95zM260 705h108l-108 -143h-64z" />
    <glyph glyph-name="ycircumflex" unicode="&#x177;" horiz-adv-x="464" 
d="M177 -54l18 59l-185 503h95l133 -401l124 401h92l-199 -582c-24 -70 -73 -112 -155 -112c-33 0 -63 10 -80 23l35 73c10 -9 30 -18 45 -18c40 0 64 16 77 54zM303 562l-71 79l-71 -79h-79l99 129h104l97 -129h-79z" />
    <glyph glyph-name="ydieresis" unicode="&#xff;" horiz-adv-x="464" 
d="M195 5l-18 -59c-13 -38 -37 -54 -77 -54c-15 0 -35 9 -45 18l-35 -73c17 -13 47 -23 80 -23c82 0 131 42 155 112l199 582h-92l-124 -401l-133 401h-95zM111 572v97h91v-97h-91zM273 572v97h90v-97h-90z" />
    <glyph glyph-name="zacute" unicode="&#x17a;" horiz-adv-x="453" 
d="M426 439l-298 -360l302 2v-79l-407 -2v72l295 359l-280 -2v77l388 2v-69zM250 705h108l-108 -143h-64z" />
    <glyph glyph-name="zcaron" unicode="&#x17e;" horiz-adv-x="453" 
d="M426 439l-298 -360l302 2v-79l-407 -2v72l295 359l-280 -2v77l388 2v-69zM234 613l71 78h79l-97 -129h-104l-99 129h79z" />
    <glyph glyph-name="zdotaccent" unicode="&#x17c;" horiz-adv-x="453" 
d="M426 439l-298 -360l302 2v-79l-407 -2v72l295 359l-280 -2v77l388 2v-69zM182 569v107h103v-107h-103z" />
    <glyph glyph-name="Agrave" unicode="&#xc0;" horiz-adv-x="638" 
d="M455 177h-273l-52 -177h-105l237 722h127l224 -722h-107zM210 265h220l-106 365zM360 771h-72l-106 129h116z" />
    <glyph glyph-name="Aacute" unicode="&#xc1;" horiz-adv-x="638" 
d="M455 177h-273l-52 -177h-105l237 722h127l224 -722h-107zM210 265h220l-106 365zM363 771h-72l65 129h116z" />
    <glyph glyph-name="Acircumflex" unicode="&#xc2;" horiz-adv-x="638" 
d="M455 177h-273l-52 -177h-105l237 722h127l224 -722h-107zM210 265h220l-106 365zM392 770l-68 74l-68 -74h-82l97 124h106l97 -124h-82z" />
    <glyph glyph-name="Atilde" unicode="&#xc3;" horiz-adv-x="638" 
d="M455 177h-273l-52 -177h-105l237 722h127l224 -722h-107zM210 265h220l-106 365zM437 877l54 -10c-8 -44 -35 -97 -91 -97c-24 0 -46 8 -70 18s-49 20 -72 20c-21 0 -38 -13 -44 -37l-53 11c9 45 29 99 92 99c27 0 55 -13 83 -24c19 -7 37 -13 55 -13c19 0 39 9 46 33z
" />
    <glyph glyph-name="Adieresis" unicode="&#xc4;" horiz-adv-x="638" 
d="M455 177h-273l-52 -177h-105l237 722h127l224 -722h-107zM210 265h220l-106 365zM191 778v99h93v-99h-93zM365 778v99h92v-99h-92z" />
    <glyph glyph-name="Amacron" unicode="&#x100;" horiz-adv-x="638" 
d="M455 177h-273l-52 -177h-105l237 722h127l224 -722h-107zM210 265h220l-106 365zM463 780h-277v73h277v-73z" />
    <glyph glyph-name="Abreve" unicode="&#x102;" horiz-adv-x="638" 
d="M455 177h-273l-52 -177h-105l237 722h127l224 -722h-107zM210 265h220l-106 365zM324 766c-99 0 -140 75 -143 124h75c3 -25 20 -57 68 -57s65 32 68 57h75c-3 -49 -44 -124 -143 -124z" />
    <glyph glyph-name="Aring" unicode="&#xc5;" horiz-adv-x="638" 
d="M455 177h-273l-52 -177h-105l237 722h127l224 -722h-107zM210 265h220l-106 365zM324 765c-48 0 -85 37 -85 84c0 46 37 84 85 84c47 0 85 -38 85 -84c0 -47 -38 -84 -85 -84zM324 888c-24 0 -39 -18 -39 -39c0 -22 15 -40 39 -40s39 18 39 40c0 21 -15 39 -39 39z" />
    <glyph glyph-name="Aringacute" unicode="&#x1fa;" horiz-adv-x="638" 
d="M455 177h-273l-52 -177h-105l237 722h127l224 -722h-107zM210 265h220l-106 365zM325 752c-48 0 -85 37 -85 84c0 46 37 84 85 84c47 0 85 -38 85 -84c0 -47 -38 -84 -85 -84zM325 875c-24 0 -39 -18 -39 -39c0 -22 15 -40 39 -40s39 18 39 40c0 21 -15 39 -39 39z
M354 946h-72l65 129h116z" />
    <glyph glyph-name="Aogonek" unicode="&#x104;" horiz-adv-x="641" 
d="M635 -108l10 -62c-30 -21 -65 -24 -81 -24c-70 0 -103 41 -103 89c0 45 31 83 60 105h-15l-51 177h-273l-52 -177h-105l237 722h127l224 -722c-38 -24 -73 -46 -73 -95c0 -17 10 -37 40 -37c28 0 55 24 55 24zM210 265h220l-106 365z" />
    <glyph glyph-name="AEacute" unicode="&#x1fc;" horiz-adv-x="982" 
d="M414 265h-189l131 369zM549 96l-41 225h360v88h-375l-40 222h472v91h-633l-266 -722h108l60 177h236l27 -177h485v96h-393zM612 771h-72l65 129h116z" />
    <glyph glyph-name="Cacute" unicode="&#x106;" horiz-adv-x="710" 
d="M591 219l84 -41c-45 -126 -157 -198 -296 -198c-200 0 -329 146 -329 379c0 232 128 383 336 383c134 0 231 -73 276 -192l-86 -54c-22 93 -100 160 -193 160c-147 0 -230 -112 -230 -296c0 -177 82 -292 228 -292c97 0 165 53 210 151zM406 771h-72l65 129h116z" />
    <glyph glyph-name="Ccircumflex" unicode="&#x108;" horiz-adv-x="710" 
d="M591 219l84 -41c-45 -126 -157 -198 -296 -198c-200 0 -329 146 -329 379c0 232 128 383 336 383c134 0 231 -73 276 -192l-86 -54c-22 93 -100 160 -193 160c-147 0 -230 -112 -230 -296c0 -177 82 -292 228 -292c97 0 165 53 210 151zM450 770l-68 74l-68 -74h-82
l97 124h106l97 -124h-82z" />
    <glyph glyph-name="Ccaron" unicode="&#x10c;" horiz-adv-x="710" 
d="M591 219l84 -41c-45 -126 -157 -198 -296 -198c-200 0 -329 146 -329 379c0 232 128 383 336 383c134 0 231 -73 276 -192l-86 -54c-22 93 -100 160 -193 160c-147 0 -230 -112 -230 -296c0 -177 82 -292 228 -292c97 0 165 53 210 151zM378 821l68 74h82l-97 -124h-106
l-97 124h82z" />
    <glyph glyph-name="Cdotaccent" unicode="&#x10a;" horiz-adv-x="710" 
d="M591 219l84 -41c-45 -126 -157 -198 -296 -198c-200 0 -329 146 -329 379c0 232 128 383 336 383c134 0 231 -73 276 -192l-86 -54c-22 93 -100 160 -193 160c-147 0 -230 -112 -230 -296c0 -177 82 -292 228 -292c97 0 165 53 210 151zM331 779v108h107v-108h-107z" />
    <glyph glyph-name="Ccedilla" unicode="&#xc7;" horiz-adv-x="710" 
d="M300 -88l16 74c-164 27 -266 165 -266 373c0 232 128 383 336 383c134 0 231 -73 276 -192l-86 -54c-22 93 -100 160 -193 160c-147 0 -230 -112 -230 -296c0 -177 82 -292 228 -292c97 0 165 53 210 151l84 -41c-45 -126 -157 -198 -296 -198c-3 0 -6 1 -8 1l-5 -22
l13 1c44 0 86 -22 86 -70s-51 -86 -125 -86c-38 0 -83 14 -99 33l31 52c17 -16 46 -29 71 -29c30 0 51 10 51 28c0 17 -18 24 -46 24h-48z" />
    <glyph glyph-name="Dcaron" unicode="&#x10e;" horiz-adv-x="720" 
d="M670 362c0 -240 -134 -362 -340 -362h-250v722h279c184 0 311 -113 311 -360zM569 362c0 169 -65 274 -205 274h-181v-545h165c154 0 221 107 221 271zM323 821l68 74h82l-97 -124h-106l-97 124h82z" />
    <glyph glyph-name="Dcroat" unicode="&#x110;" horiz-adv-x="738" 
d="M118 332h-91v60h91v330h260c183 0 310 -113 310 -360c0 -240 -134 -362 -340 -362h-230v332zM587 362c0 169 -68 274 -205 274h-162v-244h190v-60h-190v-241h147c150 0 220 107 220 271z" />
    <glyph glyph-name="Egrave" unicode="&#xc8;" horiz-adv-x="675" 
d="M80 0v722h535v-91h-432v-222h379v-88h-379v-225h452v-96h-555zM405 771h-72l-106 129h116z" />
    <glyph glyph-name="Eacute" unicode="&#xc9;" horiz-adv-x="675" 
d="M80 0v722h535v-91h-432v-222h379v-88h-379v-225h452v-96h-555zM381 771h-72l65 129h116z" />
    <glyph glyph-name="Ecircumflex" unicode="&#xca;" horiz-adv-x="675" 
d="M80 0v722h535v-91h-432v-222h379v-88h-379v-225h452v-96h-555zM422 770l-68 74l-68 -74h-82l97 124h106l97 -124h-82z" />
    <glyph glyph-name="Ecaron" unicode="&#x11a;" horiz-adv-x="675" 
d="M80 0v722h535v-91h-432v-222h379v-88h-379v-225h452v-96h-555zM358 821l68 74h82l-97 -124h-106l-97 124h82z" />
    <glyph glyph-name="Edieresis" unicode="&#xcb;" horiz-adv-x="675" 
d="M80 0v722h535v-91h-432v-222h379v-88h-379v-225h452v-96h-555zM222 778v99h93v-99h-93zM396 778v99h92v-99h-92z" />
    <glyph glyph-name="Emacron" unicode="&#x112;" horiz-adv-x="675" 
d="M80 0v722h535v-91h-432v-222h379v-88h-379v-225h452v-96h-555zM486 780h-277v73h277v-73z" />
    <glyph glyph-name="Ebreve" unicode="&#x114;" horiz-adv-x="675" 
d="M80 0v722h535v-91h-432v-222h379v-88h-379v-225h452v-96h-555zM355 766c-99 0 -140 75 -143 124h75c3 -25 20 -57 68 -57s65 32 68 57h75c-3 -49 -44 -124 -143 -124z" />
    <glyph glyph-name="Edotaccent" unicode="&#x116;" horiz-adv-x="675" 
d="M80 0v722h535v-91h-432v-222h379v-88h-379v-225h452v-96h-555zM299 779v108h107v-108h-107z" />
    <glyph glyph-name="Eogonek" unicode="&#x118;" horiz-adv-x="675" 
d="M80 0v722h535v-91h-432v-222h379v-88h-379v-225h452v-96c-38 -24 -73 -46 -73 -95c0 -17 10 -37 40 -37c28 0 55 24 55 24l10 -62c-30 -21 -65 -24 -81 -24c-70 0 -103 41 -103 89c0 45 31 83 60 105h-463z" />
    <glyph glyph-name="Gcircumflex" unicode="&#x11c;" horiz-adv-x="760" 
d="M591 230v62h-199v90h298v-382h-44l-34 108c-60 -85 -131 -128 -240 -128c-189 0 -321 147 -321 380c0 232 145 382 342 382c129 0 234 -60 282 -174l-83 -51c-36 82 -101 140 -201 140c-158 0 -237 -123 -237 -296c0 -171 75 -296 228 -296c100 0 183 61 209 165z
M458 770l-68 74l-68 -74h-82l97 124h106l97 -124h-82z" />
    <glyph glyph-name="Gbreve" unicode="&#x11e;" horiz-adv-x="760" 
d="M591 230v62h-199v90h298v-382h-44l-34 108c-60 -85 -131 -128 -240 -128c-189 0 -321 147 -321 380c0 232 145 382 342 382c129 0 234 -60 282 -174l-83 -51c-36 82 -101 140 -201 140c-158 0 -237 -123 -237 -296c0 -171 75 -296 228 -296c100 0 183 61 209 165z
M381 766c-99 0 -140 75 -143 124h75c3 -25 20 -57 68 -57s65 32 68 57h75c-3 -49 -44 -124 -143 -124z" />
    <glyph glyph-name="Gdotaccent" unicode="&#x120;" horiz-adv-x="760" 
d="M591 230v62h-199v90h298v-382h-44l-34 108c-60 -85 -131 -128 -240 -128c-189 0 -321 147 -321 380c0 232 145 382 342 382c129 0 234 -60 282 -174l-83 -51c-36 82 -101 140 -201 140c-158 0 -237 -123 -237 -296c0 -171 75 -296 228 -296c100 0 183 61 209 165z
M336 779v108h107v-108h-107z" />
    <glyph glyph-name="Gcommaaccent" unicode="&#x122;" horiz-adv-x="760" 
d="M591 230v62h-199v90h298v-382h-44l-34 108c-60 -85 -131 -128 -240 -128c-189 0 -321 147 -321 380c0 232 145 382 342 382c129 0 234 -60 282 -174l-83 -51c-36 82 -101 140 -201 140c-158 0 -237 -123 -237 -296c0 -171 75 -296 228 -296c100 0 183 61 209 165z
M370 -224l-22 30c17 10 35 28 35 54l-47 20v79h91v-77c0 -59 -27 -89 -57 -106z" />
    <glyph glyph-name="Hcircumflex" unicode="&#x124;" horiz-adv-x="717" 
d="M535 0v331h-353v-331h-102v722h102v-297h353v297h102v-722h-102zM426 770l-68 74l-68 -74h-82l97 124h106l97 -124h-82z" />
    <glyph glyph-name="Hbar" unicode="&#x126;" horiz-adv-x="717" 
d="M535 0v331h-353v-331h-102v532h-80v60h80v130h102v-130h353v130h102v-130h80v-60h-80v-532h-102zM182 425h353v107h-353v-107z" />
    <glyph glyph-name="Igrave" unicode="&#xcc;" horiz-adv-x="281" 
d="M90 0v722h101v-722h-101zM175 771h-72l-106 129h116z" />
    <glyph glyph-name="Iacute" unicode="&#xcd;" horiz-adv-x="281" 
d="M90 0v722h101v-722h-101zM176 771h-72l65 129h116z" />
    <glyph glyph-name="Icircumflex" unicode="&#xce;" horiz-adv-x="281" 
d="M90 0v722h101v-722h-101zM209 770l-68 74l-68 -74h-82l97 124h106l97 -124h-82z" />
    <glyph glyph-name="Itilde" unicode="&#x128;" horiz-adv-x="261" 
d="M80 0v722h101v-722h-101zM242 877l54 -10c-8 -44 -35 -97 -91 -97c-24 0 -46 8 -70 18s-49 20 -72 20c-21 0 -38 -13 -44 -37l-53 11c9 45 29 99 92 99c27 0 55 -13 83 -24c19 -7 37 -13 55 -13c19 0 39 9 46 33z" />
    <glyph glyph-name="Idieresis" unicode="&#xcf;" horiz-adv-x="281" 
d="M90 0v722h101v-722h-101zM7 778v99h93v-99h-93zM181 778v99h92v-99h-92z" />
    <glyph glyph-name="Imacron" unicode="&#x12a;" horiz-adv-x="281" 
d="M90 0v722h101v-722h-101zM279 780h-277v73h277v-73z" />
    <glyph glyph-name="Ibreve" unicode="&#x12c;" horiz-adv-x="261" 
d="M80 0v722h101v-722h-101zM130 766c-99 0 -140 75 -143 124h75c3 -25 20 -57 68 -57s65 32 68 57h75c-3 -49 -44 -124 -143 -124z" />
    <glyph glyph-name="Idotaccent" unicode="&#x130;" horiz-adv-x="281" 
d="M90 0v722h101v-722h-101zM87 779v108h107v-108h-107z" />
    <glyph glyph-name="Iogonek" unicode="&#x12e;" horiz-adv-x="281" 
d="M90 0v722h101v-722c-38 -24 -73 -46 -73 -95c0 -17 10 -37 40 -37c28 0 55 24 55 24l10 -62c-30 -21 -65 -24 -81 -24c-70 0 -103 41 -103 89c0 45 31 83 60 105h-9z" />
    <glyph glyph-name="Jcircumflex" unicode="&#x134;" horiz-adv-x="496" 
d="M312 174v548h104v-521c0 -127 -56 -221 -207 -221c-103 0 -179 62 -179 174v51h96v-46c0 -56 28 -95 85 -95c64 0 101 42 101 110zM323 770l-68 74l-68 -74h-82l97 124h106l97 -124h-82z" />
    <glyph glyph-name="Kcommaaccent" unicode="&#x136;" horiz-adv-x="644" 
d="M182 0h-102v722h101v-389l308 389h116l-240 -296l269 -426h-119l-215 348l-118 -144v-204zM330 -224l-22 30c17 10 35 28 35 54l-47 20v79h91v-77c0 -59 -27 -89 -57 -106z" />
    <glyph glyph-name="Lacute" unicode="&#x139;" horiz-adv-x="578" 
d="M181 95v627h-101v-722h488v95h-387zM166 771h-72l65 129h116z" />
    <glyph glyph-name="Lcaron" unicode="&#x13d;" horiz-adv-x="578" 
d="M181 95v627h-101v-722h488v95h-387zM262 571l-17 39c22 6 40 24 39 53l-39 13v86h88v-77c0 -63 -33 -99 -71 -114z" />
    <glyph glyph-name="Lcommaaccent" unicode="&#x13b;" horiz-adv-x="578" 
d="M181 722v-627h387v-95h-488v722h101zM320 -224l-22 30c17 10 35 28 35 54l-47 20v79h91v-77c0 -59 -27 -89 -57 -106z" />
    <glyph glyph-name="Ldot" unicode="&#x13f;" horiz-adv-x="578" 
d="M181 722v-627h387v-95h-488v722h101zM302 255v130h114v-130h-114z" />
    <glyph glyph-name="Lslash" unicode="&#x141;" horiz-adv-x="585" 
d="M181 290v-195h387v-95h-488v223l-59 -40v68l59 40v431h101v-364l202 134v-70z" />
    <glyph glyph-name="Nacute" unicode="&#x143;" horiz-adv-x="730" 
d="M650 0h-111l-362 622v-622h-97v722h139l336 -576v576h95v-722zM411 771h-72l65 129h116z" />
    <glyph glyph-name="Ncaron" unicode="&#x147;" horiz-adv-x="730" 
d="M650 0h-111l-362 622v-622h-97v722h139l336 -576v576h95v-722zM373 821l68 74h82l-97 -124h-106l-97 124h82z" />
    <glyph glyph-name="Ntilde" unicode="&#xd1;" horiz-adv-x="730" 
d="M650 0h-111l-362 622v-622h-97v722h139l336 -576v576h95v-722zM485 877l54 -10c-8 -44 -35 -97 -91 -97c-24 0 -46 8 -70 18s-49 20 -72 20c-21 0 -38 -13 -44 -37l-53 11c9 45 29 99 92 99c27 0 55 -13 83 -24c19 -7 37 -13 55 -13c19 0 39 9 46 33z" />
    <glyph glyph-name="Ncommaaccent" unicode="&#x145;" horiz-adv-x="730" 
d="M650 0h-111l-362 622v-622h-97v722h139l336 -576v576h95v-722zM350 -224l-22 30c17 10 35 28 35 54l-47 20v79h91v-77c0 -59 -27 -89 -57 -106z" />
    <glyph glyph-name="Ograve" unicode="&#xd2;" horiz-adv-x="768" 
d="M50 360c0 232 139 382 335 382c193 0 333 -150 333 -382c0 -241 -144 -380 -333 -380c-204 0 -335 147 -335 380zM155 360c0 -170 75 -292 230 -292c136 0 228 94 228 292c0 166 -77 296 -228 296c-150 0 -230 -122 -230 -296zM430 771h-72l-106 129h116z" />
    <glyph glyph-name="Oacute" unicode="&#xd3;" horiz-adv-x="768" 
d="M50 360c0 -233 131 -380 335 -380c189 0 333 139 333 380c0 232 -140 382 -333 382c-196 0 -335 -150 -335 -382zM155 360c0 174 80 296 230 296c151 0 228 -130 228 -296c0 -198 -92 -292 -228 -292c-155 0 -230 122 -230 292zM416 771h-72l65 129h116z" />
    <glyph glyph-name="Ocircumflex" unicode="&#xd4;" horiz-adv-x="768" 
d="M50 360c0 232 139 382 335 382c193 0 333 -150 333 -382c0 -241 -144 -380 -333 -380c-204 0 -335 147 -335 380zM155 360c0 -170 75 -292 230 -292c136 0 228 94 228 292c0 166 -77 296 -228 296c-150 0 -230 -122 -230 -296zM452 770l-68 74l-68 -74h-82l97 124h106
l97 -124h-82z" />
    <glyph glyph-name="Otilde" unicode="&#xd5;" horiz-adv-x="768" 
d="M50 360c0 -233 131 -380 335 -380c189 0 333 139 333 380c0 232 -140 382 -333 382c-196 0 -335 -150 -335 -382zM155 360c0 174 80 296 230 296c151 0 228 -130 228 -296c0 -198 -92 -292 -228 -292c-155 0 -230 122 -230 292zM495 877l54 -10c-8 -44 -35 -97 -91 -97
c-24 0 -46 8 -70 18s-49 20 -72 20c-21 0 -38 -13 -44 -37l-53 11c9 45 29 99 92 99c27 0 55 -13 83 -24c19 -7 37 -13 55 -13c19 0 39 9 46 33z" />
    <glyph glyph-name="Odieresis" unicode="&#xd6;" horiz-adv-x="768" 
d="M50 360c0 -233 131 -380 335 -380c189 0 333 139 333 380c0 232 -140 382 -333 382c-196 0 -335 -150 -335 -382zM155 360c0 174 80 296 230 296c151 0 228 -130 228 -296c0 -198 -92 -292 -228 -292c-155 0 -230 122 -230 292zM251 778v99h93v-99h-93zM425 778v99h92
v-99h-92z" />
    <glyph glyph-name="Omacron" unicode="&#x14c;" horiz-adv-x="768" 
d="M50 360c0 -233 131 -380 335 -380c189 0 333 139 333 380c0 232 -140 382 -333 382c-196 0 -335 -150 -335 -382zM155 360c0 174 80 296 230 296c151 0 228 -130 228 -296c0 -198 -92 -292 -228 -292c-155 0 -230 122 -230 292zM522 780h-277v73h277v-73z" />
    <glyph glyph-name="Obreve" unicode="&#x14e;" horiz-adv-x="768" 
d="M50 360c0 -233 131 -380 335 -380c189 0 333 139 333 380c0 232 -140 382 -333 382c-196 0 -335 -150 -335 -382zM155 360c0 174 80 296 230 296c151 0 228 -130 228 -296c0 -198 -92 -292 -228 -292c-155 0 -230 122 -230 292zM384 766c-99 0 -140 75 -143 124h75
c3 -25 20 -57 68 -57s65 32 68 57h75c-3 -49 -44 -124 -143 -124z" />
    <glyph glyph-name="Ohungarumlaut" unicode="&#x150;" horiz-adv-x="768" 
d="M50 360c0 -233 131 -380 335 -380c189 0 333 139 333 380c0 232 -140 382 -333 382c-196 0 -335 -150 -335 -382zM155 360c0 174 80 296 230 296c151 0 228 -130 228 -296c0 -198 -92 -292 -228 -292c-155 0 -230 122 -230 292zM330 772h-61l68 129h105zM486 772h-64
l71 129h101z" />
    <glyph glyph-name="Oslash" unicode="&#xd8;" horiz-adv-x="779" 
d="M56 360c0 232 139 382 335 382c85 0 161 -30 219 -83l57 64l43 -39l-61 -69c47 -67 75 -154 75 -255c0 -241 -144 -380 -333 -380c-94 0 -174 32 -232 88l-61 -68l-43 40l67 74c-43 65 -66 148 -66 246zM391 68c136 0 228 94 228 292c0 66 -13 129 -38 178l-355 -397
c37 -47 93 -73 165 -73zM161 360c0 -62 10 -118 31 -165l353 393c-36 43 -89 68 -154 68c-150 0 -230 -122 -230 -296z" />
    <glyph glyph-name="Oslashacute" unicode="&#x1fe;" horiz-adv-x="779" 
d="M56 360c0 -98 23 -181 66 -246l-67 -74l43 -40l61 68c58 -56 138 -88 232 -88c189 0 333 139 333 380c0 101 -28 188 -75 255l61 69l-43 39l-57 -64c-58 53 -134 83 -219 83c-196 0 -335 -150 -335 -382zM391 68c-72 0 -128 26 -165 73l355 397c25 -49 38 -112 38 -178
c0 -198 -92 -292 -228 -292zM161 360c0 174 80 296 230 296c65 0 118 -25 154 -68l-353 -393c-21 47 -31 103 -31 165zM421 771h-72l65 129h116z" />
    <glyph glyph-name="Racute" unicode="&#x154;" horiz-adv-x="693" 
d="M369 310h-185v-310h-104v722h341c132 0 225 -78 225 -201c0 -96 -82 -157 -158 -173c83 -17 126 -81 130 -171c3 -73 14 -147 35 -177h-111c-20 29 -25 104 -27 172c-1 93 -53 138 -146 138zM423 633h-239v-237h218c83 0 140 42 140 121c0 72 -46 116 -119 116zM366 771
h-72l65 129h116z" />
    <glyph glyph-name="Rcaron" unicode="&#x158;" horiz-adv-x="693" 
d="M369 310h-185v-310h-104v722h341c132 0 225 -78 225 -201c0 -96 -82 -157 -158 -173c83 -17 126 -81 130 -171c3 -73 14 -147 35 -177h-111c-20 29 -25 104 -27 172c-1 93 -53 138 -146 138zM423 633h-239v-237h218c83 0 140 42 140 121c0 72 -46 116 -119 116zM338 821
l68 74h82l-97 -124h-106l-97 124h82z" />
    <glyph glyph-name="Rcommaaccent" unicode="&#x156;" horiz-adv-x="693" 
d="M369 310h-185v-310h-104v722h341c132 0 225 -78 225 -201c0 -96 -82 -157 -158 -173c83 -17 126 -81 130 -171c3 -73 14 -147 35 -177h-111c-20 29 -25 104 -27 172c-1 93 -53 138 -146 138zM423 633h-239v-237h218c83 0 140 42 140 121c0 72 -46 116 -119 116zM345 -224
l-22 30c17 10 35 28 35 54l-47 20v79h91v-77c0 -59 -27 -89 -57 -106z" />
    <glyph glyph-name="Sacute" unicode="&#x15a;" horiz-adv-x="672" 
d="M261 338c-87 23 -190 73 -190 194c0 135 129 210 271 210c137 0 232 -70 274 -153l-77 -64c-16 31 -72 133 -199 133s-168 -70 -168 -121c0 -44 22 -80 125 -109c47 -13 99 -26 151 -37c91 -20 182 -74 182 -191c0 -129 -127 -220 -275 -220c-106 0 -261 45 -313 204
l94 40c17 -41 65 -154 221 -154c134 0 170 77 170 118c0 57 -30 90 -109 110c-59 15 -101 25 -157 40zM366 771h-72l65 129h116z" />
    <glyph glyph-name="Scircumflex" unicode="&#x15c;" horiz-adv-x="672" 
d="M261 338c-87 23 -190 73 -190 194c0 135 129 210 271 210c137 0 232 -70 274 -153l-77 -64c-16 31 -72 133 -199 133s-168 -70 -168 -121c0 -44 22 -80 125 -109c47 -13 99 -26 151 -37c91 -20 182 -74 182 -191c0 -129 -127 -220 -275 -220c-106 0 -261 45 -313 204
l94 40c17 -41 65 -154 221 -154c134 0 170 77 170 118c0 57 -30 90 -109 110c-59 15 -101 25 -157 40zM404 770l-68 74l-68 -74h-82l97 124h106l97 -124h-82z" />
    <glyph glyph-name="Scaron" unicode="&#x160;" horiz-adv-x="672" 
d="M261 338c-87 23 -190 73 -190 194c0 135 129 210 271 210c137 0 232 -70 274 -153l-77 -64c-16 31 -72 133 -199 133s-168 -70 -168 -121c0 -44 22 -80 125 -109c47 -13 99 -26 151 -37c91 -20 182 -74 182 -191c0 -129 -127 -220 -275 -220c-106 0 -261 45 -313 204
l94 40c17 -41 65 -154 221 -154c134 0 170 77 170 118c0 57 -30 90 -109 110c-59 15 -101 25 -157 40zM338 821l68 74h82l-97 -124h-106l-97 124h82z" />
    <glyph glyph-name="Scedilla" unicode="&#x15e;" horiz-adv-x="672" 
d="M275 -88l16 74c-97 15 -207 69 -249 198l94 40c17 -41 65 -154 221 -154c134 0 170 77 170 118c0 57 -30 90 -109 110c-59 15 -101 25 -157 40c-87 23 -190 73 -190 194c0 135 129 210 271 210c137 0 232 -70 274 -153l-77 -64c-16 31 -72 133 -199 133
s-168 -70 -168 -121c0 -44 22 -80 125 -109c47 -13 99 -26 151 -37c91 -20 182 -74 182 -191c0 -129 -127 -220 -275 -220h-9l-5 -21l13 1c44 0 86 -22 86 -70s-51 -86 -125 -86c-38 0 -83 14 -99 33l31 52c17 -16 46 -29 71 -29c30 0 51 10 51 28c0 17 -18 24 -46 24h-48z
" />
    <glyph glyph-name="uni0218" unicode="&#x218;" horiz-adv-x="672" 
d="M261 338c-87 23 -190 73 -190 194c0 135 129 210 271 210c137 0 232 -70 274 -153l-77 -64c-16 31 -72 133 -199 133s-168 -70 -168 -121c0 -44 22 -80 125 -109c47 -13 99 -26 151 -37c91 -20 182 -74 182 -191c0 -129 -127 -220 -275 -220c-106 0 -261 45 -313 204
l94 40c17 -41 65 -154 221 -154c134 0 170 77 170 118c0 57 -30 90 -109 110c-59 15 -101 25 -157 40zM336 -224l-22 30c17 10 35 28 35 54l-47 20v79h91v-77c0 -59 -27 -89 -57 -106z" />
    <glyph glyph-name="Tcaron" unicode="&#x164;" horiz-adv-x="608" 
d="M254 636h-244v86h588v-86h-242v-636h-102v636zM305 821l68 74h82l-97 -124h-106l-97 124h82z" />
    <glyph glyph-name="uni0162" unicode="&#x162;" horiz-adv-x="608" 
d="M255 -88l19 88h-20v636h-244v86h588v-86h-242v-636h-26l-9 -41l13 1c44 0 86 -22 86 -70s-51 -86 -125 -86c-38 0 -83 14 -99 33l31 52c17 -16 46 -29 71 -29c30 0 51 10 51 28c0 17 -18 24 -46 24h-48z" />
    <glyph glyph-name="uni021A" unicode="&#x21a;" horiz-adv-x="608" 
d="M254 636h-244v86h588v-86h-242v-636h-102v636zM293 -224l-22 30c17 10 35 28 35 54l-47 20v79h91v-77c0 -59 -27 -89 -57 -106z" />
    <glyph glyph-name="Tbar" unicode="&#x166;" horiz-adv-x="608" 
d="M254 636h-244v86h588v-86h-242v-278h163v-60h-163v-298h-102v298h-152v60h152v278z" />
    <glyph glyph-name="Ugrave" unicode="&#xd9;" horiz-adv-x="729" 
d="M80 253v469h105v-464c0 -114 59 -187 180 -187c118 0 179 74 179 187v464h105v-462c0 -174 -110 -280 -289 -280c-145 0 -280 79 -280 273zM410 771h-72l-106 129h116z" />
    <glyph glyph-name="Uacute" unicode="&#xda;" horiz-adv-x="729" 
d="M80 253v469h105v-464c0 -114 59 -187 180 -187c118 0 179 74 179 187v464h105v-462c0 -174 -110 -280 -289 -280c-145 0 -280 79 -280 273zM396 771h-72l65 129h116z" />
    <glyph glyph-name="Ucircumflex" unicode="&#xdb;" horiz-adv-x="729" 
d="M80 253v469h105v-464c0 -114 59 -187 180 -187c118 0 179 74 179 187v464h105v-462c0 -174 -110 -280 -289 -280c-145 0 -280 79 -280 273zM432 770l-68 74l-68 -74h-82l97 124h106l97 -124h-82z" />
    <glyph glyph-name="Utilde" unicode="&#x168;" horiz-adv-x="729" 
d="M80 253v469h105v-464c0 -114 59 -187 180 -187c118 0 179 74 179 187v464h105v-462c0 -174 -110 -280 -289 -280c-145 0 -280 79 -280 273zM475 877l54 -10c-8 -44 -35 -97 -91 -97c-24 0 -46 8 -70 18s-49 20 -72 20c-21 0 -38 -13 -44 -37l-53 11c9 45 29 99 92 99
c27 0 55 -13 83 -24c19 -7 37 -13 55 -13c19 0 39 9 46 33z" />
    <glyph glyph-name="Udieresis" unicode="&#xdc;" horiz-adv-x="729" 
d="M80 253v469h105v-464c0 -114 59 -187 180 -187c118 0 179 74 179 187v464h105v-462c0 -174 -110 -280 -289 -280c-145 0 -280 79 -280 273zM231 778v99h93v-99h-93zM405 778v99h92v-99h-92z" />
    <glyph glyph-name="Umacron" unicode="&#x16a;" horiz-adv-x="729" 
d="M80 253v469h105v-464c0 -114 59 -187 180 -187c118 0 179 74 179 187v464h105v-462c0 -174 -110 -280 -289 -280c-145 0 -280 79 -280 273zM503 780h-277v73h277v-73z" />
    <glyph glyph-name="Ubreve" unicode="&#x16c;" horiz-adv-x="729" 
d="M80 253v469h105v-464c0 -114 59 -187 180 -187c118 0 179 74 179 187v464h105v-462c0 -174 -110 -280 -289 -280c-145 0 -280 79 -280 273zM364 766c-99 0 -140 75 -143 124h75c3 -25 20 -57 68 -57s65 32 68 57h75c-3 -49 -44 -124 -143 -124z" />
    <glyph glyph-name="Uring" unicode="&#x16e;" horiz-adv-x="729" 
d="M80 253v469h105v-464c0 -114 59 -187 180 -187c118 0 179 74 179 187v464h105v-462c0 -174 -110 -280 -289 -280c-145 0 -280 79 -280 273zM364 765c-48 0 -85 37 -85 84c0 46 37 84 85 84c47 0 85 -38 85 -84c0 -47 -38 -84 -85 -84zM364 888c-24 0 -39 -18 -39 -39
c0 -22 15 -40 39 -40s39 18 39 40c0 21 -15 39 -39 39z" />
    <glyph glyph-name="Uhungarumlaut" unicode="&#x170;" horiz-adv-x="729" 
d="M80 253v469h105v-464c0 -114 59 -187 180 -187c118 0 179 74 179 187v464h105v-462c0 -174 -110 -280 -289 -280c-145 0 -280 79 -280 273zM315 772h-61l68 129h105zM471 772h-64l71 129h101z" />
    <glyph glyph-name="Uogonek" unicode="&#x172;" horiz-adv-x="729" 
d="M504 -108l10 -62c-30 -21 -65 -24 -81 -24c-70 0 -103 41 -103 89c0 34 17 63 38 85h-8c-145 0 -280 79 -280 273v469h105v-464c0 -114 59 -187 180 -187c118 0 179 74 179 187v464h105v-462c0 -130 -62 -222 -167 -260c-38 -24 -73 -46 -73 -95c0 -17 10 -37 40 -37
c28 0 55 24 55 24z" />
    <glyph glyph-name="Wgrave" unicode="&#x1e80;" horiz-adv-x="956" 
d="M414 722h130l147 -600l150 600h105l-204 -722h-113l-150 613l-159 -613h-112l-198 722h107l147 -600zM527 771h-72l-106 129h116z" />
    <glyph glyph-name="Wacute" unicode="&#x1e82;" horiz-adv-x="956" 
d="M414 722h130l147 -600l150 600h105l-204 -722h-113l-150 613l-159 -613h-112l-198 722h107l147 -600zM519 771h-72l65 129h116z" />
    <glyph glyph-name="Wcircumflex" unicode="&#x174;" horiz-adv-x="956" 
d="M414 722h130l147 -600l150 600h105l-204 -722h-113l-150 613l-159 -613h-112l-198 722h107l147 -600zM548 770l-68 74l-68 -74h-82l97 124h106l97 -124h-82z" />
    <glyph glyph-name="Wdieresis" unicode="&#x1e84;" horiz-adv-x="956" 
d="M414 722h130l147 -600l150 600h105l-204 -722h-113l-150 613l-159 -613h-112l-198 722h107l147 -600zM345 778v99h93v-99h-93zM519 778v99h92v-99h-92z" />
    <glyph glyph-name="Ygrave" unicode="&#x1ef2;" horiz-adv-x="600" 
d="M248 0v262l-238 460h112l177 -369l180 369h111l-241 -460v-262h-101zM369 771h-72l-106 129h116z" />
    <glyph glyph-name="Yacute" unicode="&#xdd;" horiz-adv-x="600" 
d="M248 0v262l-238 460h112l177 -369l180 369h111l-241 -460v-262h-101zM336 771h-72l65 129h116z" />
    <glyph glyph-name="Ycircumflex" unicode="&#x176;" horiz-adv-x="600" 
d="M248 0v262l-238 460h112l177 -369l180 369h111l-241 -460v-262h-101zM368 770l-68 74l-68 -74h-82l97 124h106l97 -124h-82z" />
    <glyph glyph-name="Ydieresis" unicode="&#x178;" horiz-adv-x="600" 
d="M248 0v262l-238 460h112l177 -369l180 369h111l-241 -460v-262h-101zM166 778v99h93v-99h-93zM340 778v99h92v-99h-92z" />
    <glyph glyph-name="Zacute" unicode="&#x179;" horiz-adv-x="673" 
d="M45 0v91l458 541l-436 -2v90l552 2v-97l-450 -531l459 2v-94zM371 771h-72l65 129h116z" />
    <glyph glyph-name="Zcaron" unicode="&#x17d;" horiz-adv-x="673" 
d="M45 0v91l458 541l-436 -2v90l552 2v-97l-450 -531l459 2v-94zM343 821l68 74h82l-97 -124h-106l-97 124h82z" />
    <glyph glyph-name="Zdotaccent" unicode="&#x17b;" horiz-adv-x="673" 
d="M45 0v91l458 541l-436 -2v90l552 2v-97l-450 -531l459 2v-94zM289 779v108h107v-108h-107z" />
    <glyph glyph-name="one.ss01" horiz-adv-x="610" 
d="M98 0v86h164v439l-140 -41v79c77 12 142 54 168 132h70v-609h164v-86h-426z" />
    <glyph glyph-name="oneinferior.alt" 
d="M75 -184v58h107v274l-86 -29v54c39 9 89 36 105 82h49v-381h110v-58h-285z" />
    <glyph glyph-name="onesuperior.alt" 
d="M75 436v58h107v274l-86 -29v54c39 9 89 36 105 82h49v-381h110v-58h-285z" />
    <glyph glyph-name="one.dnom.alt" 
d="M75 -4v58h107v274l-86 -29v54c39 9 89 36 105 82h49v-381h110v-58h-285z" />
    <glyph glyph-name="one.numr.alt" 
d="M75 256v58h107v274l-86 -29v54c39 9 89 36 105 82h49v-381h110v-58h-285z" />
    <glyph glyph-name="onehalf.alt" horiz-adv-x="920" 
d="M680 362c85 0 156 -51 156 -135c0 -81 -60 -122 -115 -150l-66 -35c-46 -24 -62 -54 -63 -73h240v-58h-314c0 98 67 149 97 169c21 14 59 36 87 52c47 27 66 63 66 95c0 40 -27 78 -88 78c-78 0 -99 -63 -102 -109l-64 27c7 71 62 139 166 139zM202 -89l432 784h66
l-433 -784h-65zM65 314v-58h285v58h-110v381h-49c-16 -46 -66 -73 -105 -82v-54l86 29v-274h-107z" />
    <glyph glyph-name="onequarter.alt" horiz-adv-x="920" 
d="M484 71v-71h214v-89h69v89h71v58h-72v292h-75s-96 -141 -207 -279zM698 268v-211h-155c85 109 155 211 155 211zM226 -89l432 784h66l-433 -784h-65zM65 314v-58h285v58h-110v381h-49c-16 -46 -66 -73 -105 -82v-54l86 29v-274h-107z" />
    <glyph glyph-name="RP" horiz-adv-x="810" 
d="M361 433l-140 246l6 4l140 -247zM450 433l140 246l-6 4l-140 -247zM361 297l-140 -246l6 -4l140 247zM450 297l140 -246l-6 -4l-140 247zM338 319l-230 -164l4 -6l230 165zM473 411l230 164l-4 6l-230 -165zM338 411l-230 164l4 6l230 -165zM473 319l230 -164l-4 -6
l-230 165zM377 441l-87 269l7 2l86 -269zM377 289l-87 -269l7 -2l86 269zM434 441l87 269l-7 2l-86 -269zM434 289l87 -269l-7 -2l-86 269zM349 307l-190 -210l5 -5l190 211zM349 423l-190 210l5 5l190 -211zM462 423l190 210l-5 5l-190 -211zM462 307l190 -210l-5 -5
l-190 211zM330 335l-260 -114l3 -6l260 114zM481 395l260 114l-3 6l-260 -114zM481 335l260 -114l-3 -6l-260 114zM330 395l-260 114l3 6l260 -114zM325 379l-277 57l2 7l276 -58zM325 351l-277 -57l2 -7l276 58zM486 379l277 57l-2 7l-276 -58zM486 351l277 -57l-2 -7
l-276 58zM394 285l-31 -281l7 -1l30 281zM417 445l31 281l-7 1l-30 -281zM417 285l31 -281l-7 -1l-30 281zM394 445l-31 281l7 1l30 -281zM40 368h284v-6h-284v6zM770 368h-283v-6h283v6zM490 476l133 181l-6 5l-133 -182zM321 476l-133 181l6 5l133 -182zM321 254
l-133 -181l6 -5l133 182zM490 254l133 -181l-6 -5l-133 182zM373 501l-46 219l7 2l46 -220zM373 229l-46 -219l7 -2l46 220zM438 501l46 219l-7 2l-46 -220zM438 229l46 -219l-7 -2l-46 220zM402 225v-225h7v225h-7zM402 505v225h7v-225h-7zM528 299l196 -112l-3 -6
l-197 112zM283 299l-196 -112l3 -6l197 112zM283 431l-196 112l3 6l197 -112zM528 431l196 112l-3 6l-197 -112zM540 325l214 -68l-2 -7l-214 69zM540 405l214 68l-2 7l-214 -69zM271 325l-214 -68l2 -7l214 69zM271 405l-214 68l2 7l214 -69zM679 606l-5 5l-167 -151l4 -5z
M132 606l5 5l167 -151l-4 -5zM679 124l-5 -5l-167 151l4 5zM132 124l5 -5l167 151l-4 5zM347 491l-92 206l6 3l92 -206zM464 491l92 206l-6 3l-92 -206zM464 239l92 -206l-6 -3l-92 206zM347 239l-92 -206l6 -3l92 206zM769 331l-1 -7l-224 24l1 6zM42 399l1 7l224 -24
l-1 -6zM769 399l-1 7l-224 -24l1 -6zM42 331l1 -7l224 24l-1 6z" />
    <glyph glyph-name="interfinity" horiz-adv-x="455" 
d="M227 742c106 0 176 -57 176 -145c0 -70 -51 -117 -97 -144c36 -22 74 -56 74 -113c0 -83 -65 -129 -153 -129c-89 0 -153 46 -153 129c0 57 38 91 74 113c-46 27 -97 74 -97 144c0 88 70 145 176 145zM227 671c-55 0 -94 -29 -94 -74c0 -44 33 -73 68 -92l26 -14l26 14
c35 19 68 48 68 92c0 45 -39 74 -94 74zM245 408l-18 11l-18 -11c-35 -21 -54 -40 -54 -68c0 -35 26 -58 72 -58s72 23 72 58c0 28 -19 47 -54 68zM176 0v110h100v-110h-100z" />
    <glyph glyph-name="because" unicode="&#x2235;" horiz-adv-x="875" 
d="M380 0v130h114v-130h-114zM87 508v130h114v-130h-114zM671 508v130h114v-130h-114z" />
    <glyph glyph-name="therefore" unicode="&#x2234;" horiz-adv-x="875" 
d="M380 508v130h114v-130h-114zM87 0v130h114v-130h-114zM671 0v130h114v-130h-114z" />
    <glyph glyph-name="asterism" unicode="&#x2042;" horiz-adv-x="968" 
d="M304 582l177 -43l-177 -41v84zM430 722l52 -180l-126 138zM355 402l127 134l-52 -179zM487 539l177 43v-84zM486 542l52 180l74 -42zM486 536l127 -134l-75 -45zM70 205l177 -43l-177 -41v84zM196 345l52 -180l-126 138zM121 25l127 134l-52 -179zM253 162l177 43v-84z
M252 165l52 180l74 -42zM252 159l127 -134l-75 -45zM538 205l177 -43l-177 -41v84zM664 345l52 -180l-126 138zM589 25l127 134l-52 -179zM721 162l177 43v-84zM720 165l52 180l74 -42zM720 159l127 -134l-75 -45z" />
    <glyph glyph-name="uni2160" unicode="&#x2160;" horiz-adv-x="414" 
d="M60 0v73h98v549h-98v73h294v-73h-98v-549h98v-73h-294z" />
    <glyph glyph-name="uni2161" unicode="&#x2161;" horiz-adv-x="659" 
d="M60 0v73h98v549h-98v73h539v-73h-98v-549h98v-73h-539zM255 73h149v549h-149v-549z" />
    <glyph glyph-name="uni2162" unicode="&#x2162;" horiz-adv-x="904" 
d="M60 0v73h98v549h-98v73h784v-73h-98v-549h98v-73h-784zM500 73h149v549h-149v-549zM255 622v-549h149v549h-149z" />
    <glyph glyph-name="uni2163" unicode="&#x2163;" horiz-adv-x="905" 
d="M493 695l142 -610l144 610h96l-169 -695h-140l-169 695h96zM354 73v-73h-294v73h98v549h-98v73h294v-73h-98v-549h98z" />
    <glyph glyph-name="uni2164" unicode="&#x2164;" horiz-adv-x="538" 
d="M270 85l142 610h96l-169 -695h-140l-169 695h96z" />
    <glyph glyph-name="uni2165" unicode="&#x2165;" horiz-adv-x="905" 
d="M270 85l142 610h96l-169 -695h-140l-169 695h96zM551 0v73h98v549h-98v73h294v-73h-98v-549h98v-73h-294z" />
    <glyph glyph-name="uni2166" unicode="&#x2166;" horiz-adv-x="1150" 
d="M551 0v73h98v549h-98v73h539v-73h-98v-549h98v-73h-539zM270 85l142 610h96l-169 -695h-140l-169 695h96zM746 73h149v549h-149v-549z" />
    <glyph glyph-name="uni2167" unicode="&#x2167;" horiz-adv-x="1395" 
d="M270 85l142 610h96l-169 -695h-140l-169 695h96zM551 0v73h99v549h-99v73h784v-73h-98v-549h98v-73h-784zM991 73h149v549h-149v-549zM746 622v-549h149v549h-149z" />
    <glyph glyph-name="uni2168" unicode="&#x2168;" horiz-adv-x="905" 
d="M779 0l-142 274l-144 -274h-108l197 363l-175 332h103l127 -244l125 244h103l-173 -332l195 -363h-108zM358 73l-39 -73h-259v73h98v549h-98v73h294v-73h-98v-549h102z" />
    <glyph glyph-name="uni2169" unicode="&#x2169;" horiz-adv-x="538" 
d="M268 274l-142 -274h-108l195 363l-173 332h103l125 -244l127 244h103l-175 -332l197 -363h-108z" />
    <glyph glyph-name="uni216A" unicode="&#x216a;" horiz-adv-x="905" 
d="M268 274l-142 -274h-108l195 363l-173 332h103l125 -244l127 244h103l-175 -332l197 -363h-108zM586 0l-39 73h102v549h-98v73h294v-73h-98v-549h98v-73h-259z" />
    <glyph glyph-name="uni216B" unicode="&#x216b;" horiz-adv-x="1150" 
d="M586 0l-39 73h102v549h-98v73h539v-73h-98v-549h98v-73h-504zM268 274l-142 -274h-108l195 363l-173 332h103l125 -244l127 244h103l-175 -332l197 -363h-108zM747 73h148v549h-148v-549z" />
    <glyph glyph-name="uni216C" unicode="&#x216c;" horiz-adv-x="522" 
d="M188 695v-602h294v-93h-392v695h98z" />
    <glyph glyph-name="uni216D" unicode="&#x216d;" horiz-adv-x="624" 
d="M60 356c0 242 134 357 288 357c112 0 200 -65 239 -173l-84 -45c-24 75 -70 130 -151 130c-149 0 -193 -156 -193 -268c0 -131 42 -282 190 -282c79 0 129 48 161 125l84 -46c-45 -107 -134 -171 -247 -171c-217 0 -287 197 -287 373z" />
    <glyph glyph-name="uni2180" unicode="&#x2180;" horiz-adv-x="1068" 
d="M1008 349c0 -240 -136 -349 -342 -349h-161v42c-38 -38 -96 -58 -157 -58c-215 0 -288 196 -288 372c0 242 137 356 291 356c60 0 113 -19 154 -55v38h190c184 0 313 -99 313 -346zM351 627c-150 0 -193 -159 -193 -270c0 -131 43 -283 191 -283c82 0 132 50 156 121v304
c-18 74 -76 128 -154 128zM911 349c0 169 -71 260 -211 260h-98v-518h82c154 0 227 94 227 258z" />
    <glyph glyph-name="uni216E" unicode="&#x216e;" horiz-adv-x="655" 
d="M595 349c0 -240 -136 -349 -342 -349h-163v695h192c184 0 313 -99 313 -346zM497 349c0 169 -70 260 -210 260h-99v-518h83c154 0 226 94 226 258z" />
    <glyph glyph-name="uni216F" unicode="&#x216f;" horiz-adv-x="810" 
d="M359 65l-176 522v-587h-93v695h152l163 -491l163 491h152v-695h-93v587l-176 -522h-92z" />
    <glyph glyph-name="uni2181" unicode="&#x2181;" horiz-adv-x="655" 
d="M595 349c0 -240 -141 -349 -347 -349h-158v695h187c184 0 318 -99 318 -346zM501 349c0 169 -86 262 -226 262h-90v-61h64c108 0 186 -65 186 -201c0 -131 -82 -202 -201 -202h-49v-58h74c154 0 242 96 242 260zM350 349c0 82 -38 122 -103 122h-61v-243h52
c74 0 112 42 112 121z" />
    <glyph glyph-name="uni00A0" unicode="&#xa0;" horiz-adv-x="210" 
 />
    <glyph glyph-name="uni00AD" unicode="&#xad;" horiz-adv-x="343" 
d="M25 265l14 90h279l-15 -90h-278z" />
    <glyph glyph-name="space" unicode=" " horiz-adv-x="210" 
 />
    </font>
</defs>
</svg>
