<?xml version="1.0" standalone="no"?>
<!DOCTYPE svg PUBLIC "-//W3C//DTD SVG 1.1//EN" "http://www.w3.org/Graphics/SVG/1.1/DTD/svg11.dtd" >
<svg xmlns="http://www.w3.org/2000/svg" xmlns:xlink="http://www.w3.org/1999/xlink" version="1.1">
<metadata>
Created by FontForge 20160407 at Wed Dec 14 16:53:42 2016
 By Jimmy Warting
Copyright (c) 2007-2011 by Radim Pesko. All rights reserved.
</metadata>
<defs>
<font id="FGrotesk-Italic" horiz-adv-x="420" >
  <font-face 
    font-family="F Grotesk"
    font-weight="400"
    font-style="italic"
    font-stretch="normal"
    units-per-em="1000"
    panose-1="2 0 0 0 0 0 0 0 0 0"
    ascent="768"
    descent="-232"
    x-height="508"
    cap-height="722"
    bbox="-97 -229 1424 1075"
    underline-thickness="50"
    underline-position="-100"
    slope="-14"
    unicode-range="U+0020-FB04"
  />
<missing-glyph horiz-adv-x="0" 
 />
    <glyph glyph-name="fi" unicode="fi" horiz-adv-x="538" 
d="M171 508l19 75c26 104 85 156 193 156c83 0 139 -50 154 -121l-92 -28c-2 40 -22 75 -67 75c-53 0 -82 -30 -95 -81l-20 -76h104l-17 -77h-105l-97 -431h-92l96 431h-95l17 77h97zM313 0l115 508h91l-115 -508h-91z" />
    <glyph glyph-name="fl" unicode="fl" horiz-adv-x="528" 
d="M476 722h92l-162 -722h-94l134 589c0 45 -20 79 -63 79c-55 0 -92 -34 -104 -87l-17 -73h101l-18 -77h-101l-96 -431h-93l96 431h-94l17 77h95l18 73c26 107 86 157 198 157c28 0 69 -8 91 -16z" />
    <glyph glyph-name="ff" unicode="ff" horiz-adv-x="538" 
d="M688 715l-45 -69c-12 7 -27 13 -40 13c-38 0 -58 -24 -66 -61l-19 -90h101l-18 -77h-100l-98 -431h-91l97 431h-164l-97 -431h-91l96 431h-96l17 77h97l19 72c29 110 86 159 196 159c43 0 85 -19 110 -43c30 31 69 43 104 43c38 0 70 -13 88 -24zM381 667
c-54 0 -85 -31 -99 -86l-19 -73h163l21 92c0 39 -26 67 -66 67z" />
    <glyph glyph-name="ffl" unicode="ffl" horiz-adv-x="785" 
d="M312 0l97 431h-164l-97 -431h-91l96 431h-96l17 77h97l19 72c28 108 85 158 195 158c48 0 92 -23 117 -46c33 31 78 46 140 46c28 0 69 -8 91 -16h92l-162 -722h-94l134 589c0 45 -20 79 -63 79c-55 0 -92 -34 -104 -87l-17 -73h102l-19 -77h-101l-96 -431h-93zM381 666
c-54 0 -85 -31 -99 -85l-19 -73h163l22 88c0 39 -26 70 -67 70z" />
    <glyph glyph-name="ffi" unicode="ffi" horiz-adv-x="794" 
d="M386 739c43 0 94 -20 119 -46c33 31 76 46 135 46c83 0 139 -50 154 -121l-92 -28c-2 40 -22 75 -67 75c-52 0 -82 -30 -95 -81l-20 -76h101l-18 -77h-101l-97 -431h-92l96 431h-164l-97 -431h-91l96 431h-96l17 77h97l19 72c28 108 86 159 196 159zM570 0l115 508h91
l-115 -508h-91zM428 508l22 86c0 42 -29 73 -69 73c-54 0 -85 -31 -99 -86l-19 -73h165z" />
    <glyph glyph-name=".notdef" horiz-adv-x="0" 
 />
    <glyph glyph-name="A" unicode="A" horiz-adv-x="603" 
d="M167 177l-96 -177h-111l401 722h129l58 -722h-101l-11 177h-269zM410 626l-194 -358h215z" />
    <glyph glyph-name="B" unicode="B" horiz-adv-x="685" 
d="M493 630h-199l-52 -220h190c92 0 167 47 167 133c0 57 -43 87 -106 87zM533 362c61 -11 106 -70 106 -128c0 -142 -131 -234 -291 -234h-308l171 722h293c124 0 196 -72 196 -158c0 -91 -61 -176 -167 -202zM168 96h197c84 0 166 45 166 135c0 51 -40 89 -119 89h-192z
" />
    <glyph glyph-name="C" unicode="C" horiz-adv-x="696" 
d="M571 224l85 -45c-76 -123 -199 -200 -339 -200c-150 0 -242 103 -242 253c0 277 178 510 425 510c130 0 213 -79 221 -193l-92 -42c-5 89 -47 145 -148 145c-171 0 -305 -197 -305 -402c0 -109 50 -181 155 -181c97 0 177 52 240 155z" />
    <glyph glyph-name="D" unicode="D" horiz-adv-x="727" 
d="M712 470c0 -268 -172 -470 -428 -470h-244l169 722h247c149 0 256 -103 256 -252zM167 96h147c185 0 295 196 295 356c0 114 -53 178 -164 178h-153z" />
    <glyph glyph-name="E" unicode="E" horiz-adv-x="658" 
d="M40 0l170 722h508l-22 -94h-403l-52 -219h343l-22 -89h-343l-50 -223h422l-25 -97h-526z" />
    <glyph glyph-name="F" unicode="F" horiz-adv-x="605" 
d="M40 0l171 722h494l-25 -95h-386l-53 -226h296l-22 -93h-298l-71 -308h-106z" />
    <glyph glyph-name="G" unicode="G" horiz-adv-x="757" 
d="M580 232l14 62h-198l19 88h302l-91 -382h-42l-5 115c-72 -97 -173 -135 -265 -135c-140 0 -239 104 -239 252c0 284 197 510 435 510c125 0 213 -72 237 -173l-92 -49c-11 83 -64 132 -165 132c-178 0 -318 -202 -318 -400c0 -112 57 -185 171 -185c92 0 195 63 237 165z
" />
    <glyph glyph-name="H" unicode="H" horiz-adv-x="722" 
d="M752 722l-171 -722h-104l77 329h-332l-77 -329h-105l171 722h104l-69 -296h332l68 296h106z" />
    <glyph glyph-name="I" unicode="I" horiz-adv-x="290" 
d="M40 0l173 722h102l-171 -722h-104z" />
    <glyph glyph-name="J" unicode="J" horiz-adv-x="500" 
d="M294 173l133 549h103l-130 -547c-30 -128 -115 -195 -245 -195c-82 0 -145 51 -145 126c0 36 6 71 17 105l103 38c-13 -39 -25 -86 -25 -115c0 -42 25 -66 64 -66c64 0 110 42 125 105z" />
    <glyph glyph-name="K" unicode="K" horiz-adv-x="651" 
d="M141 0h-101l169 722h101l-92 -386l392 386h126l-323 -319l181 -403h-111l-147 342l-145 -135z" />
    <glyph glyph-name="L" unicode="L" horiz-adv-x="574" 
d="M315 722l-147 -624h371l-23 -98h-476l170 722h105z" />
    <glyph glyph-name="M" unicode="M" horiz-adv-x="881" 
d="M792 630l-366 -630h-71l-69 629l-148 -629h-98l171 722h158l57 -554l314 554h171l-170 -722h-99z" />
    <glyph glyph-name="N" unicode="N" horiz-adv-x="731" 
d="M590 0h-114l-197 618l-140 -618h-99l168 722h132l188 -589l136 589h97z" />
    <glyph glyph-name="O" unicode="O" horiz-adv-x="769" 
d="M505 742c153 0 253 -103 253 -261c0 -276 -187 -501 -426 -501c-166 0 -257 109 -257 261c0 249 170 501 430 501zM177 252c0 -109 60 -183 172 -183c160 0 308 184 308 400c0 113 -55 186 -168 186c-181 0 -312 -206 -312 -403z" />
    <glyph glyph-name="P" unicode="P" horiz-adv-x="642" 
d="M40 0l171 722h292c109 0 189 -76 189 -172c0 -163 -131 -251 -300 -251h-176l-68 -299h-108zM487 629h-191l-56 -237h174c97 0 171 52 171 146c0 55 -43 91 -98 91z" />
    <glyph glyph-name="Q" unicode="Q" horiz-adv-x="770" 
d="M508 742c152 0 252 -102 252 -261c0 -200 -106 -372 -253 -456c-11 -50 13 -93 67 -93c31 0 58 9 79 21l17 -55c-27 -22 -74 -49 -130 -49c-63 0 -94 41 -94 101c0 15 2 32 7 53c-43 -15 -85 -23 -123 -23c-166 0 -255 108 -255 261c0 249 173 501 433 501zM176 252
c0 -109 62 -183 174 -183c162 0 306 184 306 400c0 113 -56 186 -169 186c-183 0 -311 -206 -311 -403z" />
    <glyph glyph-name="R" unicode="R" horiz-adv-x="719" 
d="M410 308h-192l-72 -308h-106l171 722h320c111 0 188 -72 188 -170c0 -121 -99 -187 -196 -205c58 -14 96 -61 96 -126c0 -57 -18 -111 -18 -172c0 -20 2 -37 5 -49h-113c-2 9 -2 20 -2 34c0 56 24 114 24 171c0 65 -39 103 -105 103zM519 630h-224l-55 -232h200
c93 0 176 51 176 142c0 55 -35 90 -97 90z" />
    <glyph glyph-name="S" unicode="S" horiz-adv-x="649" 
d="M420 742c133 0 216 -74 251 -151l-87 -57c-16 38 -59 121 -177 121c-106 0 -180 -56 -180 -131c0 -41 27 -74 101 -97c42 -13 87 -27 133 -38c82 -20 144 -83 144 -163c0 -154 -144 -246 -319 -246c-105 0 -246 53 -269 202l101 35c7 -52 35 -143 186 -143
c126 0 190 68 190 135c0 52 -31 76 -84 91c-43 12 -89 26 -133 40c-74 24 -156 85 -156 168c0 150 133 234 299 234z" />
    <glyph glyph-name="T" unicode="T" horiz-adv-x="554" 
d="M325 631h-225l20 91h544l-19 -91h-214l-148 -631h-107z" />
    <glyph glyph-name="U" unicode="U" horiz-adv-x="729" 
d="M92 251l110 471h106l-110 -466c-4 -17 -8 -38 -8 -54c0 -78 46 -129 135 -129c122 0 193 77 217 179l110 470h108l-110 -461c-43 -180 -159 -281 -339 -281c-139 0 -226 83 -226 206c0 20 2 42 7 65z" />
    <glyph glyph-name="V" unicode="V" horiz-adv-x="590" 
d="M260 116l325 606h115l-403 -722h-120l-57 722h105z" />
    <glyph glyph-name="W" unicode="W" horiz-adv-x="943" 
d="M521 722h132l8 -584l276 584h111l-363 -722h-109l-10 609l-297 -609h-110l-29 722h105l8 -586z" />
    <glyph glyph-name="X" unicode="X" horiz-adv-x="590" 
d="M268 372l-118 350h115l78 -260l214 260h123l-293 -354l138 -368h-117l-96 280l-228 -280h-124z" />
    <glyph glyph-name="Y" unicode="Y" horiz-adv-x="559" 
d="M171 0l62 264l-123 458h108l83 -367l258 367h120l-339 -458l-63 -264h-106z" />
    <glyph glyph-name="Z" unicode="Z" horiz-adv-x="586" 
d="M-35 0l22 94l535 534l-397 -2l25 94l521 2l-22 -97l-535 -528l422 2l-22 -97z" />
    <glyph glyph-name="a" unicode="a" horiz-adv-x="571" 
d="M224 66c77 0 155 72 181 171c12 45 12 62 12 77c0 74 -36 130 -107 130c-120 0 -192 -142 -192 -246c0 -83 32 -132 106 -132zM561 508l-119 -508h-73v83c-47 -54 -106 -95 -178 -95c-102 0 -161 75 -161 183c0 174 108 349 279 349c61 0 112 -35 140 -97l40 85h72z" />
    <glyph glyph-name="b" unicode="b" horiz-adv-x="573" 
d="M130 90l-36 -90h-74l162 722h94l-70 -300c38 53 92 97 178 98c93 1 159 -72 159 -182c0 -170 -112 -350 -285 -350c-59 0 -110 42 -128 102zM265 70c123 0 185 149 185 249c0 72 -37 123 -104 123c-73 0 -138 -67 -167 -161c-11 -31 -16 -65 -16 -90
c-1 -77 43 -121 102 -121z" />
    <glyph glyph-name="c" unicode="c" horiz-adv-x="503" 
d="M379 159l64 -44c-54 -79 -132 -127 -228 -127c-110 0 -185 71 -185 186c0 169 108 346 301 346c96 0 157 -61 167 -149l-77 -33c-5 63 -36 105 -102 105c-118 0 -202 -123 -202 -250c0 -81 36 -126 111 -126c61 0 115 42 151 92z" />
    <glyph glyph-name="d" unicode="d" horiz-adv-x="569" 
d="M364 0l2 90c-40 -63 -109 -102 -175 -102c-98 0 -161 72 -161 176c0 158 98 356 275 356c70 0 113 -44 134 -99l71 301h89l-163 -722h-72zM222 67c61 0 142 44 174 169c12 47 13 71 13 84c0 94 -68 121 -107 121c-118 0 -183 -145 -183 -255c0 -73 38 -119 103 -119z" />
    <glyph glyph-name="e" unicode="e" horiz-adv-x="524" 
d="M390 175l75 -35c-55 -95 -146 -152 -251 -152c-109 0 -182 71 -182 188c0 166 101 344 295 344c106 0 174 -71 174 -178c0 -32 -8 -65 -17 -94l-44 -4h-314c-6 -21 -9 -40 -9 -57c0 -75 37 -121 111 -121c66 0 129 43 162 109zM313 448c-75 0 -142 -57 -168 -135h263
c6 19 6 33 6 42c0 57 -38 93 -101 93z" />
    <glyph glyph-name="f" unicode="f" horiz-adv-x="321" 
d="M431 715l-45 -69c-12 7 -27 12 -40 12c-38 0 -58 -24 -66 -60l-19 -90h101l-18 -77h-100l-98 -431h-91l97 431h-95l16 77h97l20 90c24 110 94 141 153 141c38 0 70 -13 88 -24z" />
    <glyph glyph-name="g" unicode="g" horiz-adv-x="591" 
d="M234 67c70 0 163 58 191 168c10 45 11 62 11 77c0 74 -48 130 -120 130c-120 0 -195 -139 -195 -243c0 -81 36 -132 113 -132zM581 508l-106 -450c-40 -172 -143 -287 -322 -287c-101 0 -181 66 -183 156h95c3 -45 38 -77 101 -77c115 0 187 73 216 191l11 44
c-38 -46 -103 -97 -184 -97c-101 0 -176 76 -176 187c0 174 108 345 290 345c66 0 113 -34 144 -99l43 87h71z" />
    <glyph glyph-name="h" unicode="h" horiz-adv-x="566" 
d="M346 445c-40 0 -140 -26 -170 -164l-64 -281h-92l162 722h93l-70 -302c34 47 106 100 183 100c88 0 138 -59 138 -139c0 -14 -2 -30 -5 -46l-73 -335h-94l74 325c3 13 5 26 5 38c0 54 -31 82 -87 82z" />
    <glyph glyph-name="i" unicode="i" horiz-adv-x="236" 
d="M18 0l115 508h91l-116 -508h-90zM148 603l24 102h97l-22 -102h-99z" />
    <glyph glyph-name="j" unicode="j" horiz-adv-x="246" 
d="M-90 -171l14 74c10 -4 20 -5 29 -5c36 0 57 17 65 51l127 559h90l-129 -569c-18 -80 -78 -122 -149 -122c-16 0 -36 5 -47 12zM159 603l24 102h99l-22 -102h-101z" />
    <glyph glyph-name="k" unicode="k" horiz-adv-x="511" 
d="M258 241l-114 -104l-32 -137h-92l163 722h91l-108 -476l266 262h114l-218 -208l129 -300h-99z" />
    <glyph glyph-name="l" unicode="l" horiz-adv-x="233" 
d="M21 0l163 722h90l-163 -722h-90z" />
    <glyph glyph-name="m" unicode="m" horiz-adv-x="890" 
d="M343 444c-50 0 -140 -43 -168 -164l-64 -280h-91l113 508h72v-96c43 59 93 108 179 108c67 0 115 -38 125 -107c46 61 121 107 203 107c85 0 138 -53 138 -132c0 -16 -2 -35 -6 -55l-74 -333h-92l71 316c3 15 6 28 6 42c0 49 -24 86 -85 86c-50 0 -132 -27 -164 -166
l-63 -278h-92l72 312c3 15 5 27 5 41c0 52 -24 91 -85 91z" />
    <glyph glyph-name="n" unicode="n" horiz-adv-x="568" 
d="M351 443c-40 0 -140 -41 -174 -161l-65 -282h-92l114 508h73v-97c44 59 113 109 183 109c89 0 138 -59 138 -140c0 -14 -1 -29 -5 -45l-76 -335h-93l74 324c3 13 4 24 4 36c0 52 -28 83 -81 83z" />
    <glyph glyph-name="o" unicode="o" horiz-adv-x="544" 
d="M326 520c108 0 186 -75 186 -188c0 -196 -132 -344 -298 -344c-110 0 -185 77 -185 187c0 184 113 345 297 345zM121 189c0 -75 35 -124 108 -124c113 0 191 126 191 255c0 77 -38 126 -110 126c-126 0 -189 -148 -189 -257z" />
    <glyph glyph-name="p" unicode="p" horiz-adv-x="581" 
d="M211 508v-88c47 66 113 100 174 100c99 0 166 -71 166 -177c0 -157 -97 -355 -285 -355c-66 0 -119 44 -134 104l-62 -271h-90l154 687h77zM350 444c-43 0 -138 -32 -177 -173c-10 -39 -11 -62 -11 -85c0 -81 51 -120 104 -120c127 0 196 145 196 255
c0 75 -36 123 -112 123z" />
    <glyph glyph-name="q" unicode="q" horiz-adv-x="562" 
d="M439 418l38 90h75l-154 -687h-89l58 258c-38 -46 -92 -91 -176 -91c-91 0 -161 79 -161 176c0 168 97 356 275 356c59 0 110 -41 134 -102zM308 444c-120 0 -188 -147 -188 -259c0 -77 40 -119 103 -119c81 0 150 70 175 160c11 38 14 74 14 91c0 100 -66 127 -104 127z
" />
    <glyph glyph-name="r" unicode="r" horiz-adv-x="352" 
d="M203 508l1 -94c36 54 94 106 160 106c28 0 49 -17 58 -37l-63 -78c-7 17 -22 32 -43 32c-46 0 -103 -38 -143 -168l-62 -269h-91l114 508h69z" />
    <glyph glyph-name="s" unicode="s" horiz-adv-x="466" 
d="M203 65c79 0 131 34 131 83c0 26 -19 49 -60 58c-35 8 -67 16 -100 27c-53 18 -109 56 -109 121c0 94 90 166 216 166c86 0 153 -49 184 -94l-67 -60c-18 33 -66 79 -128 79c-75 0 -117 -34 -117 -79c0 -25 19 -45 65 -58c31 -9 68 -19 98 -26c58 -13 106 -53 106 -118
c0 -110 -117 -176 -230 -176c-91 0 -179 52 -197 117l69 47c16 -34 60 -87 139 -87z" />
    <glyph glyph-name="t" unicode="t" horiz-adv-x="336" 
d="M274 76l-25 -71c-17 -8 -42 -17 -68 -17c-66 0 -101 43 -101 99c0 10 2 21 4 32l69 312h-93l18 77h94l24 104l108 85l-43 -189h105l-18 -77h-103l-66 -296c-12 -51 21 -77 72 -66c7 2 16 4 23 7z" />
    <glyph glyph-name="u" unicode="u" horiz-adv-x="559" 
d="M219 67c53 0 147 54 172 160l66 281h92l-115 -508h-72v99c-41 -66 -115 -111 -182 -111c-87 0 -140 58 -140 139c0 15 1 30 5 48l79 333h93l-77 -322c-3 -12 -5 -23 -5 -35c0 -53 27 -84 84 -84z" />
    <glyph glyph-name="v" unicode="v" horiz-adv-x="459" 
d="M192 106l219 402h98l-289 -508h-95l-55 508h91z" />
    <glyph glyph-name="w" unicode="w" horiz-adv-x="739" 
d="M421 0l-10 423l-206 -423h-98l-37 508h89l18 -400l194 400h110l13 -400l191 400h94l-259 -508h-99z" />
    <glyph glyph-name="x" unicode="x" horiz-adv-x="439" 
d="M282 0l-72 189l-152 -189h-103l222 270l-93 238h94l61 -166l132 166h103l-202 -245l108 -263h-98z" />
    <glyph glyph-name="y" unicode="y" horiz-adv-x="474" 
d="M109 -45l32 57l-66 496h91l42 -399l213 399h98s-222 -398 -331 -582c-41 -69 -92 -113 -172 -113c-34 0 -63 13 -81 26l47 67c10 -8 25 -14 43 -14c30 0 59 19 84 63z" />
    <glyph glyph-name="z" unicode="z" horiz-adv-x="438" 
d="M451 439l-355 -359l283 2l-19 -80l-390 -2l15 69l352 363l-267 -2l19 76l379 2z" />
    <glyph glyph-name="ae" unicode="&#xe6;" horiz-adv-x="899" 
d="M560 508l-7 -30c41 26 90 42 147 42c106 0 174 -71 174 -178c0 -32 -8 -65 -17 -94l-44 -4h-314c-6 -21 -9 -40 -9 -57c0 -75 37 -121 111 -121c66 0 131 42 164 108l73 -34c-55 -95 -146 -152 -251 -152c-57 0 -104 19 -136 54l-10 -42h-73v83
c-47 -54 -106 -95 -178 -95c-102 0 -160 75 -160 183c0 174 107 349 278 349c61 0 112 -35 140 -97l40 85h72zM223 66c77 0 155 72 181 171c12 45 12 62 12 77c0 74 -36 130 -107 130c-120 0 -192 -142 -192 -246c0 -83 32 -132 106 -132zM686 448c-75 0 -142 -57 -168 -135
h263c6 19 6 33 6 42c0 57 -38 93 -101 93z" />
    <glyph glyph-name="oe" unicode="&#x153;" horiz-adv-x="902" 
d="M768 174l73 -34c-55 -95 -146 -152 -251 -152c-78 0 -138 36 -166 100c-53 -62 -128 -100 -211 -100c-109 0 -182 73 -182 185c0 184 114 347 298 347c78 0 135 -37 163 -97c49 58 120 97 211 97c106 0 174 -71 174 -178c0 -32 -8 -65 -17 -94l-44 -4h-314
c-6 -21 -9 -40 -9 -57c0 -75 37 -121 111 -121c66 0 131 42 164 108zM122 189c0 -76 33 -124 108 -124c113 0 191 126 191 255c0 78 -36 126 -110 126c-126 0 -189 -148 -189 -257zM689 448c-75 0 -142 -57 -168 -135h263c6 19 6 33 6 42c0 57 -38 93 -101 93z" />
    <glyph glyph-name="germandbls" unicode="&#xdf;" horiz-adv-x="586" 
d="M403 666c-94 0 -155 -69 -174 -154l-116 -512h-93l117 521c32 143 138 221 279 221c94 0 170 -58 170 -148c0 -99 -79 -170 -176 -188c70 -5 132 -65 132 -159c0 -145 -103 -259 -237 -259c-66 0 -115 36 -119 107l76 17c4 -29 26 -48 54 -48c91 0 130 103 130 174
c0 87 -55 131 -130 129l20 83c82 -3 159 58 159 134c0 50 -35 82 -92 82z" />
    <glyph glyph-name="eng" unicode="&#x14b;" horiz-adv-x="568" 
d="M236 -171l14 74c10 -4 20 -5 29 -5c36 0 55 17 63 51l86 375c3 13 4 24 4 36c0 52 -28 83 -81 83c-40 0 -140 -41 -174 -161l-65 -282h-92l114 508h73v-97c44 59 113 109 183 109c89 0 138 -59 138 -140c0 -14 -1 -29 -5 -45l-90 -396c-18 -81 -79 -122 -150 -122
c-16 0 -36 5 -47 12z" />
    <glyph glyph-name="eth" unicode="&#xf0;" horiz-adv-x="552" 
d="M409 602l-158 -62l-10 49l124 49c-40 24 -90 35 -132 38l50 66c61 -7 120 -35 166 -71l129 51l9 -49l-103 -41c37 -57 58 -113 58 -184c0 -195 -112 -468 -327 -468c-106 0 -185 75 -185 189c0 171 98 351 285 351c84 0 135 -64 153 -116c6 77 -10 145 -59 198zM229 59
c109 0 192 137 192 255c0 84 -47 132 -113 132c-127 0 -191 -160 -191 -258c0 -79 41 -129 112 -129z" />
    <glyph glyph-name="thorn" unicode="&#xfe;" horiz-adv-x="566" 
d="M265 70c123 0 185 149 185 249c0 72 -37 123 -104 123c-73 0 -140 -67 -167 -161c-9 -31 -16 -65 -16 -90c-1 -77 43 -121 102 -121zM71 -179h-92l203 901h94l-70 -300c38 53 92 97 178 98c93 1 159 -72 159 -182c0 -170 -113 -350 -284 -350c-64 0 -113 44 -128 104z
" />
    <glyph glyph-name="dotlessi" unicode="&#x131;" horiz-adv-x="236" 
d="M18 0l115 508h91l-116 -508h-90z" />
    <glyph glyph-name="AE" unicode="&#xc6;" horiz-adv-x="954" 
d="M-40 0l426 722h628l-24 -95h-447l-14 -215h350l-21 -92h-334l-14 -220h377l-24 -100h-461l11 176h-238l-106 -176h-109zM225 269h194l24 364z" />
    <glyph glyph-name="OE" unicode="&#x152;" horiz-adv-x="989" 
d="M565 722h484l-22 -95h-385l-49 -215h331l-24 -92h-328l-51 -220h402l-24 -100h-491c-172 0 -333 98 -333 271c0 268 208 451 490 451zM177 284c0 -126 95 -193 235 -189l124 534c-230 0 -359 -159 -359 -345z" />
    <glyph glyph-name="Eng" unicode="&#x14a;" horiz-adv-x="731" 
d="M485 0l-206 618l-140 -618h-99l168 722h132l190 -581l134 581h97l-170 -721c-28 -120 -115 -194 -240 -194c-82 0 -143 52 -143 125l95 58c-2 -12 -3 -23 -3 -32c0 -39 21 -63 61 -63c63 0 109 43 124 105z" />
    <glyph glyph-name="Eth" unicode="&#xd0;" horiz-adv-x="739" 
d="M733 470c0 -268 -172 -470 -428 -470h-244l77 332h-88l13 58h89l78 332h247c149 0 256 -103 256 -252zM188 96h147c185 0 295 196 295 356c0 114 -53 178 -164 178h-153l-57 -240h172l-14 -58h-171z" />
    <glyph glyph-name="Thorn" unicode="&#xde;" horiz-adv-x="664" 
d="M209 722h106l-32 -141h186c109 0 186 -74 186 -169c0 -163 -131 -254 -300 -254h-176l-37 -158h-107zM450 488h-191l-57 -237h175c97 0 171 52 171 146c0 55 -43 91 -98 91z" />
    <glyph glyph-name="ampersand" unicode="&#x26;" horiz-adv-x="661" 
d="M191 -12c-104 0 -166 64 -166 167c0 139 136 221 245 271c-8 32 -14 69 -14 95c0 118 66 221 199 221c73 0 117 -57 117 -117c0 -106 -111 -189 -203 -234c7 -38 33 -125 60 -193c70 74 123 154 159 236l58 -64c-34 -64 -102 -165 -186 -244c20 -39 47 -58 92 -58
c13 0 27 6 39 10l-28 -73c-19 -10 -40 -16 -68 -16c-46 0 -81 26 -109 75c-64 -49 -132 -76 -195 -76zM287 351c-107 -50 -171 -106 -171 -185c0 -61 36 -95 95 -95c44 0 100 24 145 62c-29 72 -53 151 -69 218zM485 587c10 46 -8 79 -53 79c-63 0 -89 -66 -89 -114
c0 -25 5 -57 11 -88c69 37 120 78 131 123z" />
    <glyph glyph-name="comma" unicode="," horiz-adv-x="260" 
d="M89 0l-58 40l23 93h120l-27 -109c-29 -116 -98 -156 -172 -166l12 49c50 8 86 38 102 93z" />
    <glyph glyph-name="semicolon" unicode=";" horiz-adv-x="264" 
d="M109 379l29 129h116l-29 -129h-116zM89 0l-58 40l23 93h120l-27 -109c-29 -116 -98 -156 -172 -166l12 49c50 8 86 38 102 93z" />
    <glyph glyph-name="colon" unicode=":" horiz-adv-x="269" 
d="M30 0l30 129h115l-29 -129h-116zM114 379l30 129h115l-29 -129h-116z" />
    <glyph glyph-name="period" unicode="." horiz-adv-x="264" 
d="M30 0l29 129h115l-28 -129h-116z" />
    <glyph glyph-name="ellipsis" unicode="&#x2026;" horiz-adv-x="831" 
d="M30 0l25 119h107l-28 -119h-104zM322 0l25 119h103l-25 -119h-103zM610 0l27 119h104l-25 -119h-106z" />
    <glyph glyph-name="hyphen" unicode="-" horiz-adv-x="360" 
d="M52 269l33 84h275l-35 -84h-273z" />
    <glyph glyph-name="exclam" unicode="!" horiz-adv-x="300" 
d="M254 436l-87 -214h-35l25 215l60 285h103zM155 0h-105l25 112h105z" />
    <glyph glyph-name="exclamdown" unicode="&#xa1;" horiz-adv-x="300" 
d="M116 286l86 214h35l-24 -215l-60 -285h-103zM215 722h105l-25 -112h-105z" />
    <glyph glyph-name="question" unicode="?" horiz-adv-x="470" 
d="M181 342c0 -29 22 -54 65 -54c68 0 127 65 151 97l47 -54c-44 -60 -114 -114 -210 -114c-77 0 -131 51 -131 118c0 91 77 136 156 168l67 26c43 17 80 35 80 82c0 38 -28 61 -74 61c-60 0 -122 -65 -153 -105l-42 69c35 42 110 106 207 106c73 0 140 -45 140 -124
c0 -101 -89 -141 -168 -172l-63 -25c-40 -16 -72 -36 -72 -79zM232 0h-105l25 112h105z" />
    <glyph glyph-name="questiondown" unicode="&#xbf;" horiz-adv-x="470" 
d="M351 378c0 -43 -32 -61 -72 -77l-63 -25c-79 -31 -168 -71 -168 -172c0 -79 67 -124 140 -124c97 0 172 64 207 106l-41 66c-31 -40 -94 -102 -154 -102c-46 0 -74 23 -74 61c0 47 37 65 80 82l67 26c79 32 156 77 156 168c0 67 -54 118 -131 118
c-96 0 -166 -54 -210 -114l47 -55c24 32 83 98 151 98c43 0 65 -27 65 -56zM300 721h105l-25 -112h-105z" />
    <glyph glyph-name="interrobang" unicode="&#x203d;" horiz-adv-x="433" 
d="M354 394l50 -56c-35 -61 -89 -126 -185 -126c-72 0 -119 50 -119 111c0 87 60 139 139 171l39 172c-42 -18 -83 -72 -104 -113l-48 59c28 49 103 130 210 130c78 0 137 -44 137 -116c0 -102 -84 -147 -165 -179l-5 -20l-56 -145c60 12 92 80 107 112zM111 0l26 110h100
l-25 -110h-101zM396 618c0 26 -15 42 -35 47l-32 -134c36 16 67 49 67 87zM172 332c0 -24 13 -44 40 -49l10 127c-30 -15 -50 -45 -50 -78z" />
    <glyph glyph-name="quoteleft" unicode="&#x2018;" horiz-adv-x="205" 
d="M185 611l54 -37l-23 -87h-116l27 101c28 104 93 145 164 155l-13 -47c-47 -10 -80 -36 -93 -85z" />
    <glyph glyph-name="quoteright" unicode="&#x2019;" horiz-adv-x="205" 
d="M186 598l-54 37l23 87h116l-27 -101c-28 -104 -93 -145 -164 -155l13 47c47 10 80 36 93 85z" />
    <glyph glyph-name="quotedblleft" unicode="&#x201c;" horiz-adv-x="380" 
d="M361 610l54 -37l-24 -87h-116l28 101c28 104 93 145 164 155l-13 -47c-47 -10 -80 -36 -93 -85zM198 610l53 -37l-24 -87h-115l28 101c28 104 98 145 169 155l-13 -47c-47 -10 -85 -36 -98 -85z" />
    <glyph glyph-name="quotedblright" unicode="&#x201d;" horiz-adv-x="380" 
d="M192 598l-54 37l24 87h116l-28 -101c-28 -104 -93 -145 -164 -155l13 47c47 10 80 36 93 85zM355 598l-53 37l24 87h115l-28 -101c-28 -104 -98 -145 -169 -155l13 47c47 10 85 36 98 85z" />
    <glyph glyph-name="quotesinglbase" unicode="&#x201a;" horiz-adv-x="205" 
d="M57 0l-54 37l23 87h116l-27 -101c-28 -104 -93 -145 -164 -155l13 47c47 10 80 36 93 85z" />
    <glyph glyph-name="quotedblbase" unicode="&#x201e;" horiz-adv-x="380" 
d="M57 0l-54 37l24 87h116l-28 -101c-28 -104 -93 -145 -164 -155l13 47c47 10 80 36 93 85zM220 0l-53 37l24 87h115l-28 -101c-28 -104 -98 -145 -169 -155l13 47c47 10 85 36 98 85z" />
    <glyph glyph-name="guilsinglleft" unicode="&#x2039;" horiz-adv-x="340" 
d="M64 265l204 243h93l-211 -254l97 -230h-85z" />
    <glyph glyph-name="guilsinglright" unicode="&#x203a;" horiz-adv-x="340" 
d="M294 267l-204 -243h-93l211 254l-97 230h85z" />
    <glyph glyph-name="guillemotleft" unicode="&#xab;" horiz-adv-x="510" 
d="M55 265l185 243h83l-193 -253l82 -231h-76zM265 265l185 243h83l-193 -253l82 -231h-76z" />
    <glyph glyph-name="guillemotright" unicode="&#xbb;" horiz-adv-x="510" 
d="M473 267l-185 -243h-83l193 253l-82 231h76zM263 267l-185 -243h-83l193 253l-82 231h76z" />
    <glyph glyph-name="slash" unicode="/" horiz-adv-x="382" 
d="M20 -105l297 847h75l-297 -847h-75z" />
    <glyph glyph-name="bar" unicode="|" horiz-adv-x="365" 
d="M55 -188l210 910h75l-212 -910h-73z" />
    <glyph glyph-name="endash" unicode="&#x2013;" horiz-adv-x="540" 
d="M37 269l19 76h474l-19 -76h-474z" />
    <glyph glyph-name="emdash" unicode="&#x2014;" horiz-adv-x="953" 
d="M-6 269l16 76h972l-17 -76h-971z" />
    <glyph glyph-name="bullet" unicode="&#x2022;" horiz-adv-x="426" 
d="M80 255c0 73 60 133 133 133s133 -60 133 -133s-60 -133 -133 -133s-133 60 -133 133z" />
    <glyph glyph-name="periodcentered" unicode="&#xb7;" horiz-adv-x="264" 
d="M89 269l29 129h116l-30 -129h-115z" />
    <glyph glyph-name="parenleft" unicode="(" horiz-adv-x="335" 
d="M80 256c0 230 138 453 371 535l13 -48c-202 -83 -305 -302 -305 -503c0 -163 84 -238 126 -261l-22 -46c-78 34 -183 147 -183 323z" />
    <glyph glyph-name="parenright" unicode=")" horiz-adv-x="335" 
d="M320 466c0 -230 -138 -453 -371 -535l-13 48c202 83 305 302 305 503c0 163 -84 238 -126 261l22 46c78 -34 183 -147 183 -323z" />
    <glyph glyph-name="bracketleft" unicode="[" horiz-adv-x="360" 
d="M0 -185l234 1015h238l-18 -79h-155l-198 -858h155l-18 -78h-238z" />
    <glyph glyph-name="bracketright" unicode="]" horiz-adv-x="360" 
d="M375 830l-234 -1015h-238l18 79h155l198 858h-155l18 78h238z" />
    <glyph glyph-name="braceleft" unicode="{" horiz-adv-x="340" 
d="M264 -50l-21 -50c-100 4 -162 49 -162 118c0 86 75 151 75 228c0 46 -38 55 -78 48l23 102c47 -6 102 7 109 77c5 55 0 108 6 158c12 98 101 158 223 161l7 -51c-88 -4 -132 -60 -140 -114c-8 -55 -7 -113 -19 -170c-14 -65 -74 -111 -127 -115c38 -7 77 -34 77 -81
c0 -85 -69 -149 -69 -232c0 -41 30 -74 96 -79z" />
    <glyph glyph-name="braceright" unicode="}" horiz-adv-x="340" 
d="M136 742l21 50c100 -4 162 -49 162 -118c0 -86 -75 -151 -75 -228c0 -46 38 -55 78 -48l-23 -102c-47 6 -102 -7 -109 -77c-5 -55 0 -108 -6 -158c-12 -98 -101 -158 -223 -161l-7 51c88 4 132 60 140 114c8 55 7 113 19 170c14 65 74 111 127 115c-38 7 -77 34 -77 81
c0 85 69 149 69 232c0 41 -30 74 -96 79z" />
    <glyph glyph-name="asterisk" unicode="*" horiz-adv-x="450" 
d="M103 578l183 -44l-183 -42v86zM233 723l54 -186l-130 142zM156 393l131 138l-54 -185zM292 534l183 44v-86zM291 537l54 186l76 -44zM291 531l131 -138l-77 -47z" />
    <glyph glyph-name="dagger" unicode="&#x2020;" horiz-adv-x="470" 
d="M306 722h85l-74 -230l196 18l-16 -72l-185 17l-108 -551h-89l149 551l-193 -17l16 72l187 -18z" />
    <glyph glyph-name="daggerdbl" unicode="&#x2021;" horiz-adv-x="470" 
d="M313 455l-17 -135l-47 -142l194 17l-17 -72l-188 18l-34 -237h-85l76 237l-195 -18l17 72l186 -17l17 142l47 135l-194 -17l16 72l187 -18l32 230h85l-74 -230l196 18l-16 -72z" />
    <glyph glyph-name="section" unicode="&#xa7;" horiz-adv-x="563" 
d="M345 370l-50 27c-49 -13 -130 -41 -130 -114c0 -52 39 -84 82 -108l48 -27c51 13 134 42 134 114c0 53 -40 84 -84 108zM247 429c-52 44 -80 89 -80 134c0 118 100 187 228 187c99 0 171 -51 190 -120l-81 -45c-17 55 -64 92 -120 92c-63 0 -122 -27 -122 -95
c0 -42 28 -78 109 -122c109 -59 153 -96 153 -171c0 -94 -82 -141 -183 -173c54 -34 86 -88 86 -132c0 -117 -102 -184 -236 -184c-100 0 -173 53 -196 123l80 50c14 -57 76 -99 131 -99c63 0 125 29 125 92c0 42 -27 75 -109 119c-110 59 -148 100 -148 175
c0 88 90 141 173 169z" />
    <glyph glyph-name="paragraph" unicode="&#xb6;" horiz-adv-x="488" 
d="M211 -189v429l11 73c-98 20 -176 105 -176 204c0 114 89 205 199 205h253l16 -72h-71v-839h-65v839h-102v-839h-65z" />
    <glyph glyph-name="asciicircum" unicode="^" horiz-adv-x="520" 
d="M355 722l173 -303h-91l-127 236l-129 -236h-89l173 303h90z" />
    <glyph glyph-name="asciitilde" unicode="~" horiz-adv-x="583" 
d="M205 431c48 0 88 -24 128 -47c42 -24 84 -47 128 -47c46 0 87 18 127 52l-4 -74c-40 -43 -93 -62 -151 -62c-44 0 -86 23 -126 46c-42 24 -84 47 -128 47c-45 0 -88 -17 -127 -49l4 71c41 43 93 63 149 63z" />
    <glyph glyph-name="brokenbar" unicode="&#xa6;" horiz-adv-x="358" 
d="M172 -189v387h86v-387h-86zM172 334v388h86v-388h-86z" />
    <glyph glyph-name="backslash" unicode="\" horiz-adv-x="395" 
d="M165 742l240 -847h-75l-240 847h75z" />
    <glyph glyph-name="underscore" unicode="_" horiz-adv-x="475" 
d="M-63 -98l18 73h471l-16 -73h-473z" />
    <glyph glyph-name="quotesingle" unicode="'" horiz-adv-x="179" 
d="M115 520l43 202h86l-54 -202h-75z" />
    <glyph glyph-name="quotedbl" unicode="&#x22;" horiz-adv-x="319" 
d="M115 521l43 201h84l-47 -201h-80zM259 521l43 201h84l-47 -201h-80z" />
    <glyph glyph-name="at" unicode="@" horiz-adv-x="826" 
d="M453 478c-87 0 -160 -154 -160 -262c0 -56 18 -82 54 -82s76 40 102 89l59 178c-1 46 -27 77 -55 77zM713 117l46 -52c-80 -93 -227 -178 -381 -178c-186 0 -314 112 -314 335c0 255 178 501 429 501c156 0 272 -98 272 -294c0 -157 -109 -368 -255 -368
c-38 0 -67 27 -59 83c-32 -42 -80 -82 -128 -82c-69 0 -110 57 -110 148c0 154 108 333 240 333c43 0 83 -27 92 -83l56 71h37l-121 -369c-6 -18 2 -33 20 -33c71 0 160 171 160 308c0 132 -61 224 -207 224c-170 0 -358 -167 -358 -439c0 -173 83 -270 246 -270
c144 0 275 92 335 165z" />
    <glyph glyph-name="copyright" unicode="&#xa9;" horiz-adv-x="818" 
d="M548 285l66 -35c-31 -76 -103 -126 -185 -126c-122 0 -206 93 -206 237c0 145 82 240 208 240c83 0 148 -49 174 -126l-64 -35c-19 57 -57 93 -111 93c-83 0 -130 -55 -130 -172c0 -107 51 -168 130 -168c54 0 94 29 118 92zM56 360c0 227 164 382 369 382
c204 0 369 -155 369 -382c0 -226 -165 -380 -369 -380c-205 0 -369 154 -369 380zM114 360c0 -192 136 -322 311 -322s310 130 310 322c0 193 -135 325 -310 325s-311 -132 -311 -325z" />
    <glyph glyph-name="registered" unicode="&#xae;" horiz-adv-x="818" 
d="M428 332h-87v-186h-70v447h183c89 0 146 -47 146 -126c0 -60 -50 -96 -104 -107c43 -5 88 -39 89 -103c1 -54 9 -88 21 -111h-77c-11 17 -15 60 -17 106c-2 50 -34 80 -84 80zM459 532h-118v-138h105c52 0 83 26 83 72c0 44 -31 66 -70 66zM56 360c0 227 164 382 369 382
c204 0 369 -155 369 -382c0 -226 -165 -380 -369 -380c-205 0 -369 154 -369 380zM114 360c0 -192 136 -322 311 -322s310 130 310 322c0 193 -135 325 -310 325s-311 -132 -311 -325z" />
    <glyph glyph-name="trademark" unicode="&#x2122;" horiz-adv-x="1006" 
d="M891 646l-129 -391h-73l-124 391v-391h-71v467h116l118 -367l119 367h115v-467h-71v391zM217 653h-151v69h379v-69h-151v-398h-77v398z" />
    <glyph glyph-name="currency" unicode="&#xa4;" horiz-adv-x="630" 
d="M539 339c0 -47 -14 -92 -42 -130l54 -54l-52 -52l-53 54c-24 -17 -67 -42 -130 -42c-68 0 -108 25 -131 41l-53 -53l-52 52l53 53c-27 39 -42 84 -42 131s15 92 42 131l-53 53l52 52l53 -53c23 16 63 41 131 41c63 0 106 -25 130 -42l53 54l52 -52l-54 -54
c28 -38 42 -83 42 -130zM171 339c0 -85 62 -147 144 -147s144 62 144 147s-62 147 -144 147s-144 -62 -144 -147z" />
    <glyph glyph-name="Euro" unicode="&#x20ac;" horiz-adv-x="600" 
d="M83 271h-79l14 55h71c5 31 12 62 21 92h-60l14 55h66c61 151 180 269 345 269c102 0 178 -74 196 -178l-88 -40c-12 73 -50 126 -125 126c-101 0 -175 -78 -222 -177h197l-14 -55h-205c-10 -30 -18 -61 -24 -92h195l-14 -55h-188c-2 -16 -2 -32 -2 -47
c0 -93 46 -148 132 -148c75 0 146 52 195 132l77 -53c-71 -111 -173 -175 -288 -175c-141 0 -215 100 -215 247c0 14 0 29 1 44z" />
    <glyph glyph-name="dollar" unicode="$" horiz-adv-x="605" 
d="M391 741l18 80h58l-18 -80c87 -17 154 -79 180 -155l-85 -55c-10 39 -45 99 -116 117l-55 -236s12 -4 22 -7c82 -23 158 -85 158 -173c0 -139 -123 -240 -277 -249l-22 -97h-59l23 97c-94 13 -181 93 -188 205l95 34c1 -42 13 -129 114 -142l58 253l-17 7
c-74 33 -147 93 -147 175c0 138 118 223 258 226zM448 216c0 32 -17 80 -93 98l-57 -234c86 9 150 69 150 136zM236 533c0 -30 15 -71 84 -100l49 216c-80 -3 -133 -60 -133 -116z" />
    <glyph glyph-name="cent" unicode="&#xa2;" horiz-adv-x="600" 
d="M384 520l36 92h58l-39 -103c61 -25 101 -74 108 -138l-75 -30c-4 37 -29 76 -63 92l-140 -368c70 7 118 40 154 91l64 -41c-54 -79 -132 -127 -228 -127h-20l-38 -101h-58l44 114c-69 31 -110 95 -110 178c0 170 111 341 307 341zM161 193c0 -49 18 -90 55 -115l138 364
c-117 -10 -193 -140 -193 -249z" />
    <glyph glyph-name="sterling" unicode="&#xa3;" horiz-adv-x="610" 
d="M236 266h-125l14 54h111c0 15 -4 35 -11 61c-8 31 -21 78 -21 110c0 156 122 251 272 251c118 0 172 -77 174 -173l-92 -37c-1 67 -21 122 -107 122c-85 0 -148 -59 -148 -155c0 -31 6 -68 11 -95c5 -28 9 -51 9 -84h231l-10 -54h-222c-3 -65 -36 -118 -54 -143
c53 -38 87 -57 124 -57c47 0 91 27 105 75h77c-22 -100 -97 -161 -200 -161c-61 0 -109 36 -157 78c-54 -55 -114 -78 -171 -78c-55 0 -88 41 -88 83c0 85 68 125 141 125c35 0 69 -16 101 -35c25 36 36 70 36 113zM165 97c-31 25 -59 37 -84 37c-38 0 -66 -25 -66 -60
c0 -26 22 -40 47 -40c31 0 60 11 103 63z" />
    <glyph glyph-name="florin" unicode="&#x192;" horiz-adv-x="410" 
d="M96 508h142l34 100c35 105 93 134 156 134c37 0 66 -12 81 -22l-39 -69c-10 6 -26 11 -36 11c-36 0 -59 -24 -70 -56l-33 -98h136l-43 -78h-118l-157 -468c-37 -109 -102 -134 -162 -134c-38 0 -64 12 -79 22l40 70c10 -7 23 -12 35 -12c38 -1 60 19 72 54l157 468h-134z
" />
    <glyph glyph-name="yen" unicode="&#xa5;" horiz-adv-x="594" 
d="M46 111l13 54h171l19 94h-170l13 54h167l-105 409h108l67 -326l216 326h119l-293 -409h178l-12 -54h-178l-20 -94h175l-13 -54h-176l-24 -111h-109l25 111h-171z" />
    <glyph glyph-name="ordfeminine" unicode="&#xaa;" horiz-adv-x="400" 
d="M238 450c42 0 90 45 105 108c5 21 6 32 6 41c0 49 -18 75 -58 75c-72 0 -114 -87 -114 -144c0 -49 18 -80 61 -80zM448 722l-72 -321h-49l-1 54c-29 -40 -69 -63 -106 -63c-70 0 -107 52 -107 119c0 112 72 220 183 220c37 0 61 -23 80 -60l23 51h49z" />
    <glyph glyph-name="ordmasculine" unicode="&#xba;" horiz-adv-x="400" 
d="M313 734c69 0 119 -47 119 -122c0 -125 -88 -218 -192 -218c-72 0 -117 46 -117 120c0 115 69 220 190 220zM189 524c0 -45 21 -72 61 -72c69 0 114 77 114 151c0 47 -21 72 -63 72c-75 0 -112 -87 -112 -151z" />
    <glyph glyph-name="numbersign" unicode="#" horiz-adv-x="627" 
d="M403 700l-75 -172h184l74 172h74l-75 -172h92l-15 -67h-106l-94 -221h98l-16 -67h-112l-73 -173h-73l73 173h-184l-72 -173h-74l74 173h-93l15 67h108l95 221h-100l15 67h113l74 172h73zM300 461l-95 -221h183l95 221h-183z" />
    <glyph glyph-name="zero" unicode="0" horiz-adv-x="610" 
d="M251 -21c-124 0 -193 86 -193 236c0 198 109 501 361 501c117 0 193 -92 193 -236c0 -215 -104 -501 -361 -501zM401 632c-165 0 -251 -269 -251 -411c0 -95 37 -157 119 -157c171 0 250 260 250 408c0 97 -36 160 -118 160z" />
    <glyph glyph-name="one" unicode="1" horiz-adv-x="410" 
d="M126 0l126 545l-138 -37l17 71c81 13 148 54 187 121h67l-160 -700h-99z" />
    <glyph glyph-name="two" unicode="2" horiz-adv-x="610" 
d="M399 716c118 0 205 -82 205 -188c0 -128 -81 -204 -215 -265c-47 -22 -84 -40 -130 -65c-81 -44 -110 -77 -116 -110h377l-19 -88h-490c30 143 135 225 213 269c48 27 97 53 150 80c67 34 132 81 132 171c0 65 -50 109 -117 109c-133 0 -178 -94 -201 -165l-92 25
c35 112 127 227 303 227z" />
    <glyph glyph-name="three" unicode="3" horiz-adv-x="610" 
d="M451 352c59 -19 100 -73 100 -132c0 -142 -127 -240 -303 -240c-137 0 -238 92 -238 196l95 29c-3 -77 57 -138 153 -138c111 0 191 52 191 143c0 57 -40 95 -109 103c-10 1 -24 2 -35 2c-14 0 -29 0 -42 -1l21 84c12 -1 24 -2 36 -2c15 0 33 1 46 3
c74 12 148 55 148 130c0 54 -34 102 -122 102c-106 0 -162 -63 -192 -129l-88 35c52 107 153 179 291 179c114 0 208 -75 208 -176c0 -91 -68 -153 -160 -188z" />
    <glyph glyph-name="four" unicode="4" horiz-adv-x="610" 
d="M129 239h232l77 317s-146 -168 -309 -317zM458 238h119l-18 -86h-121l-33 -152h-98l33 152h-315l25 109s230 217 415 434h97z" />
    <glyph glyph-name="five" unicode="5" horiz-adv-x="610" 
d="M293 609l-84 -218c33 32 88 69 171 69c123 0 194 -76 194 -183c0 -173 -153 -297 -330 -297c-121 0 -202 76 -212 165l89 30c13 -56 55 -109 141 -109c108 0 214 81 214 197c0 68 -43 118 -122 118c-63 0 -136 -35 -183 -91l-75 17l142 389h396l-21 -87h-320z" />
    <glyph glyph-name="six" unicode="6" horiz-adv-x="610" 
d="M292 68c114 0 200 95 200 197c0 71 -46 117 -127 117c-106 0 -199 -85 -199 -191c0 -72 46 -123 126 -123zM470 716c85 0 159 -45 187 -120l-71 -55c-26 59 -77 92 -139 92c-161 0 -256 -172 -271 -282c41 55 124 115 229 115c104 0 187 -73 187 -183
c0 -177 -146 -303 -311 -303c-146 0 -214 101 -214 224c0 238 131 512 403 512z" />
    <glyph glyph-name="seven" unicode="7" horiz-adv-x="610" 
d="M139 606l21 89h497l-16 -70c-165 -145 -348 -391 -388 -625h-115c52 233 262 498 396 606h-395z" />
    <glyph glyph-name="eight" unicode="8" horiz-adv-x="610" 
d="M252 -20c-122 0 -225 63 -225 180c0 97 73 177 172 209c-45 30 -75 77 -75 123c0 145 136 224 285 224c120 0 206 -75 206 -171c0 -89 -65 -160 -148 -184c56 -25 97 -83 97 -137c0 -160 -142 -244 -312 -244zM320 321c-93 0 -195 -53 -195 -149c0 -58 50 -107 138 -107
c107 0 202 56 202 149c0 62 -53 107 -145 107zM396 633c-92 0 -178 -49 -178 -133c0 -55 44 -99 126 -99c88 0 176 47 176 134c0 57 -45 98 -124 98z" />
    <glyph glyph-name="nine" unicode="9" horiz-adv-x="610" 
d="M367 630c-112 0 -198 -95 -198 -198c0 -70 42 -123 123 -123c110 0 201 95 201 195c0 76 -48 126 -126 126zM188 -20c-83 0 -161 54 -185 122l72 59c19 -68 81 -97 130 -97c153 0 253 157 278 276c-45 -63 -125 -110 -224 -110c-101 0 -184 78 -184 185
c0 170 141 301 303 301c140 0 213 -106 213 -234c0 -242 -153 -502 -403 -502z" />
    <glyph glyph-name="zero.dnom" 
d="M298 446c76 0 124 -52 124 -144c0 -118 -72 -316 -220 -316c-78 0 -126 52 -126 144c0 122 73 316 222 316zM210 47c95 0 143 167 143 249c0 57 -20 92 -64 92c-92 0 -144 -171 -144 -253c0 -54 20 -88 65 -88z" />
    <glyph glyph-name="one.dnom" horiz-adv-x="320" 
d="M140 -4l79 332l-87 -28l12 54c41 9 92 35 118 81h49l-102 -439h-69z" />
    <glyph glyph-name="two.dnom" 
d="M322 446c75 0 134 -48 134 -123c0 -92 -69 -135 -141 -168l-82 -39c-40 -19 -64 -38 -76 -59h242l-15 -61h-317c15 80 97 147 136 168l101 52c40 20 85 52 85 105c0 34 -26 65 -73 65c-75 0 -101 -56 -115 -100l-66 21c24 70 84 139 187 139z" />
    <glyph glyph-name="three.dnom" 
d="M360 217c33 -14 53 -45 53 -79c0 -87 -84 -152 -193 -152c-84 0 -142 54 -151 118l69 21c4 -43 35 -78 89 -78c66 0 115 36 115 87c0 30 -25 53 -68 58c-8 1 -31 2 -47 1l13 57c16 -2 33 -2 47 -1c48 7 90 33 90 84c0 32 -23 57 -71 57c-59 0 -96 -44 -115 -84l-61 24
c31 68 93 117 186 117c76 0 129 -45 129 -107c0 -59 -34 -101 -85 -123z" />
    <glyph glyph-name="four.dnom" 
d="M250 85h-211l16 74s180 168 274 276h69l-63 -294h68l-13 -56h-69l-20 -89h-72zM262 140l51 208s-88 -108 -204 -208h153z" />
    <glyph glyph-name="five.dnom" 
d="M226 377l-51 -126c29 27 62 43 104 43c69 0 115 -41 115 -111c0 -104 -89 -195 -202 -195c-81 0 -124 51 -128 110l61 32c0 -41 21 -80 75 -80c66 0 126 55 126 121c0 40 -27 65 -70 65c-45 0 -79 -27 -105 -57l-51 21l84 235h239l-13 -58h-184z" />
    <glyph glyph-name="six.dnom" 
d="M207 47c65 0 119 59 119 118c0 39 -24 66 -70 66c-62 0 -118 -59 -118 -117c0 -39 20 -67 69 -67zM78 208c28 128 108 238 238 238c57 0 103 -32 119 -83l-57 -36c-8 42 -33 64 -75 64c-86 0 -151 -108 -160 -172c30 38 79 71 138 71c65 0 113 -45 113 -114
c0 -103 -90 -190 -192 -190c-81 0 -132 50 -132 136c0 26 3 63 8 86z" />
    <glyph glyph-name="seven.dnom" 
d="M118 377l13 58h313l-11 -48c-90 -84 -207 -253 -237 -391h-75c33 138 164 315 233 381h-236z" />
    <glyph glyph-name="eight.dnom" 
d="M295 446c79 0 128 -47 128 -106c0 -52 -35 -96 -84 -116c26 -15 51 -43 51 -83c0 -99 -99 -155 -196 -155c-85 0 -134 45 -134 112c0 59 46 109 102 129c-27 15 -44 47 -44 77c0 86 86 142 177 142zM199 44c58 0 122 35 122 93c0 33 -29 59 -78 59
c-50 0 -116 -35 -116 -95c0 -30 25 -57 72 -57zM252 252c45 0 106 30 106 83c0 31 -25 54 -71 54c-48 0 -103 -30 -103 -85c0 -29 21 -52 68 -52z" />
    <glyph glyph-name="nine.dnom" 
d="M283 388c-65 0 -119 -59 -119 -118c0 -39 24 -66 70 -66c62 0 118 59 118 117c0 39 -20 67 -69 67zM412 224c-28 -128 -108 -238 -238 -238c-57 0 -103 32 -119 83l57 37c8 -42 33 -62 75 -62c86 0 151 105 160 169c-30 -38 -79 -71 -138 -71c-65 0 -113 47 -113 116
c0 103 90 188 192 188c81 0 132 -50 132 -136c0 -26 -3 -63 -8 -86z" />
    <glyph glyph-name="zero.numr" 
d="M298 706c76 0 124 -52 124 -144c0 -118 -72 -316 -220 -316c-78 0 -126 52 -126 144c0 122 73 316 222 316zM210 307c95 0 143 167 143 249c0 57 -20 92 -64 92c-92 0 -144 -171 -144 -253c0 -54 20 -88 65 -88z" />
    <glyph glyph-name="one.numr" horiz-adv-x="320" 
d="M140 256l79 332l-87 -28l12 54c41 9 92 35 118 81h49l-102 -439h-69z" />
    <glyph glyph-name="two.numr" 
d="M322 706c75 0 134 -48 134 -123c0 -92 -69 -135 -141 -168l-82 -39c-40 -19 -64 -38 -76 -59h242l-15 -61h-317c15 80 97 147 136 168l101 52c40 20 85 52 85 105c0 34 -26 65 -73 65c-75 0 -101 -56 -115 -100l-66 21c24 70 84 139 187 139z" />
    <glyph glyph-name="three.numr" 
d="M360 477c33 -14 53 -45 53 -79c0 -87 -84 -152 -193 -152c-84 0 -142 54 -151 118l69 21c4 -43 35 -78 89 -78c66 0 115 36 115 87c0 30 -25 53 -68 58c-8 1 -31 2 -47 1l13 57c16 -2 33 -2 47 -1c48 7 90 33 90 84c0 32 -23 57 -71 57c-59 0 -96 -44 -115 -84l-61 24
c31 68 93 117 186 117c76 0 129 -45 129 -107c0 -59 -34 -101 -85 -123z" />
    <glyph glyph-name="four.numr" 
d="M250 345h-211l16 74s180 168 274 276h69l-63 -294h68l-13 -56h-69l-20 -89h-72zM262 400l51 208s-88 -108 -204 -208h153z" />
    <glyph glyph-name="five.numr" 
d="M226 637l-51 -126c29 27 62 43 104 43c69 0 115 -41 115 -111c0 -104 -89 -195 -202 -195c-81 0 -124 51 -128 110l61 32c0 -41 21 -80 75 -80c66 0 126 55 126 121c0 40 -27 65 -70 65c-45 0 -79 -27 -105 -57l-51 21l84 235h239l-13 -58h-184z" />
    <glyph glyph-name="six.numr" 
d="M207 307c65 0 119 59 119 118c0 39 -24 66 -70 66c-62 0 -118 -59 -118 -117c0 -39 20 -67 69 -67zM78 468c28 128 108 238 238 238c57 0 103 -32 119 -83l-57 -36c-8 42 -33 64 -75 64c-86 0 -151 -108 -160 -172c30 38 79 71 138 71c65 0 113 -45 113 -114
c0 -103 -90 -190 -192 -190c-81 0 -132 50 -132 136c0 26 3 63 8 86z" />
    <glyph glyph-name="seven.numr" 
d="M118 637l13 58h313l-11 -48c-90 -84 -207 -253 -237 -391h-75c33 138 164 315 233 381h-236z" />
    <glyph glyph-name="eight.numr" 
d="M295 706c79 0 128 -47 128 -106c0 -52 -35 -96 -84 -116c26 -15 51 -43 51 -83c0 -99 -99 -155 -196 -155c-85 0 -134 45 -134 112c0 59 46 109 102 129c-27 15 -44 47 -44 77c0 86 86 142 177 142zM199 304c58 0 122 35 122 93c0 33 -29 59 -78 59
c-50 0 -116 -35 -116 -95c0 -30 25 -57 72 -57zM252 512c45 0 106 30 106 83c0 31 -25 54 -71 54c-48 0 -103 -30 -103 -85c0 -29 21 -52 68 -52z" />
    <glyph glyph-name="nine.numr" 
d="M283 648c-65 0 -119 -59 -119 -118c0 -39 24 -66 70 -66c62 0 118 59 118 117c0 39 -20 67 -69 67zM412 484c-28 -128 -108 -238 -238 -238c-57 0 -103 32 -119 83l57 37c8 -42 33 -62 75 -62c86 0 151 105 160 169c-30 -38 -79 -71 -138 -71c-65 0 -113 47 -113 116
c0 103 90 188 192 188c81 0 132 -50 132 -136c0 -26 -3 -63 -8 -86z" />
    <glyph glyph-name="zerosuperior" unicode="&#x2070;" 
d="M298 886c76 0 124 -52 124 -144c0 -118 -72 -316 -220 -316c-78 0 -126 52 -126 144c0 122 73 316 222 316zM210 487c95 0 143 167 143 249c0 57 -20 92 -64 92c-92 0 -144 -171 -144 -253c0 -54 20 -88 65 -88z" />
    <glyph glyph-name="onesuperior" unicode="&#xb9;" horiz-adv-x="320" 
d="M140 436l79 332l-87 -28l12 54c41 9 92 35 118 81h49l-102 -439h-69z" />
    <glyph glyph-name="twosuperior" unicode="&#xb2;" 
d="M322 886c75 0 134 -48 134 -123c0 -92 -69 -135 -141 -168l-82 -39c-40 -19 -64 -38 -76 -59h242l-15 -61h-317c15 80 97 147 136 168l101 52c40 20 85 52 85 105c0 34 -26 65 -73 65c-75 0 -101 -56 -115 -100l-66 21c24 70 84 139 187 139z" />
    <glyph glyph-name="threesuperior" unicode="&#xb3;" 
d="M360 657c33 -14 53 -45 53 -79c0 -87 -84 -152 -193 -152c-84 0 -142 54 -151 118l69 21c4 -43 35 -78 89 -78c66 0 115 36 115 87c0 30 -25 53 -68 58c-8 1 -31 2 -47 1l13 57c16 -2 33 -2 47 -1c48 7 90 33 90 84c0 32 -23 57 -71 57c-59 0 -96 -44 -115 -84l-61 24
c31 68 93 117 186 117c76 0 129 -45 129 -107c0 -59 -34 -101 -85 -123z" />
    <glyph glyph-name="foursuperior" unicode="&#x2074;" 
d="M250 525h-211l16 74s180 168 274 276h69l-63 -294h68l-13 -56h-69l-20 -89h-72zM262 580l51 208s-88 -108 -204 -208h153z" />
    <glyph glyph-name="fivesuperior" unicode="&#x2075;" 
d="M226 817l-51 -126c29 27 62 43 104 43c69 0 115 -41 115 -111c0 -104 -89 -195 -202 -195c-81 0 -124 51 -128 110l61 32c0 -41 21 -80 75 -80c66 0 126 55 126 121c0 40 -27 65 -70 65c-45 0 -79 -27 -105 -57l-51 21l84 235h239l-13 -58h-184z" />
    <glyph glyph-name="sixsuperior" unicode="&#x2076;" 
d="M207 487c65 0 119 59 119 118c0 39 -24 66 -70 66c-62 0 -118 -59 -118 -117c0 -39 20 -67 69 -67zM78 648c28 128 108 238 238 238c57 0 103 -32 119 -83l-57 -36c-8 42 -33 64 -75 64c-86 0 -151 -108 -160 -172c30 38 79 71 138 71c65 0 113 -45 113 -114
c0 -103 -90 -190 -192 -190c-81 0 -132 50 -132 136c0 26 3 63 8 86z" />
    <glyph glyph-name="sevensuperior" unicode="&#x2077;" 
d="M118 817l13 58h313l-11 -48c-90 -84 -207 -253 -237 -391h-75c33 138 164 315 233 381h-236z" />
    <glyph glyph-name="eightsuperior" unicode="&#x2078;" 
d="M295 886c79 0 128 -47 128 -106c0 -52 -35 -96 -84 -116c26 -15 51 -43 51 -83c0 -99 -99 -155 -196 -155c-85 0 -134 45 -134 112c0 59 46 109 102 129c-27 15 -44 47 -44 77c0 86 86 142 177 142zM199 484c58 0 122 35 122 93c0 33 -29 59 -78 59
c-50 0 -116 -35 -116 -95c0 -30 25 -57 72 -57zM252 692c45 0 106 30 106 83c0 31 -25 54 -71 54c-48 0 -103 -30 -103 -85c0 -29 21 -52 68 -52z" />
    <glyph glyph-name="ninesuperior" unicode="&#x2079;" 
d="M283 828c-65 0 -119 -59 -119 -118c0 -39 24 -66 70 -66c62 0 118 59 118 117c0 39 -20 67 -69 67zM412 664c-28 -128 -108 -238 -238 -238c-57 0 -103 32 -119 83l57 37c8 -42 33 -62 75 -62c86 0 151 105 160 169c-30 -38 -79 -71 -138 -71c-65 0 -113 47 -113 116
c0 103 90 188 192 188c81 0 132 -50 132 -136c0 -26 -3 -63 -8 -86z" />
    <glyph glyph-name="zeroinferior" unicode="&#x2080;" 
d="M298 266c76 0 124 -52 124 -144c0 -118 -72 -316 -220 -316c-78 0 -126 52 -126 144c0 122 73 316 222 316zM210 -133c95 0 143 167 143 249c0 57 -20 92 -64 92c-92 0 -144 -171 -144 -253c0 -54 20 -88 65 -88z" />
    <glyph glyph-name="oneinferior" unicode="&#x2081;" horiz-adv-x="320" 
d="M140 -184l79 332l-87 -28l12 54c41 9 92 35 118 81h49l-102 -439h-69z" />
    <glyph glyph-name="twoinferior" unicode="&#x2082;" 
d="M322 266c75 0 134 -48 134 -123c0 -92 -69 -135 -141 -168l-82 -39c-40 -19 -64 -38 -76 -59h242l-15 -61h-317c15 80 97 147 136 168l101 52c40 20 85 52 85 105c0 34 -26 65 -73 65c-75 0 -101 -56 -115 -100l-66 21c24 70 84 139 187 139z" />
    <glyph glyph-name="threeinferior" unicode="&#x2083;" 
d="M360 37c33 -14 53 -45 53 -79c0 -87 -84 -152 -193 -152c-84 0 -142 54 -151 118l69 21c4 -43 35 -78 89 -78c66 0 115 36 115 87c0 30 -25 53 -68 58c-8 1 -31 2 -47 1l13 57c16 -2 33 -2 47 -1c48 7 90 33 90 84c0 32 -23 57 -71 57c-59 0 -96 -44 -115 -84l-61 24
c31 68 93 117 186 117c76 0 129 -45 129 -107c0 -59 -34 -101 -85 -123z" />
    <glyph glyph-name="fourinferior" unicode="&#x2084;" 
d="M250 -95h-211l16 74s180 168 274 276h69l-63 -294h68l-13 -56h-69l-20 -89h-72zM262 -40l51 208s-88 -108 -204 -208h153z" />
    <glyph glyph-name="fiveinferior" unicode="&#x2085;" 
d="M226 197l-51 -126c29 27 62 43 104 43c69 0 115 -41 115 -111c0 -104 -89 -195 -202 -195c-81 0 -124 51 -128 110l61 32c0 -41 21 -80 75 -80c66 0 126 55 126 121c0 40 -27 65 -70 65c-45 0 -79 -27 -105 -57l-51 21l84 235h239l-13 -58h-184z" />
    <glyph glyph-name="sixinferior" unicode="&#x2086;" 
d="M207 -133c65 0 119 59 119 118c0 39 -24 66 -70 66c-62 0 -118 -59 -118 -117c0 -39 20 -67 69 -67zM78 28c28 128 108 238 238 238c57 0 103 -32 119 -83l-57 -36c-8 42 -33 64 -75 64c-86 0 -151 -108 -160 -172c30 38 79 71 138 71c65 0 113 -45 113 -114
c0 -103 -90 -190 -192 -190c-81 0 -132 50 -132 136c0 26 3 63 8 86z" />
    <glyph glyph-name="seveninferior" unicode="&#x2087;" 
d="M118 197l13 58h313l-11 -48c-90 -84 -207 -253 -237 -391h-75c33 138 164 315 233 381h-236z" />
    <glyph glyph-name="eightinferior" unicode="&#x2088;" 
d="M295 266c79 0 128 -47 128 -106c0 -52 -35 -96 -84 -116c26 -15 51 -43 51 -83c0 -99 -99 -155 -196 -155c-85 0 -134 45 -134 112c0 59 46 109 102 129c-27 15 -44 47 -44 77c0 86 86 142 177 142zM199 -136c58 0 122 35 122 93c0 33 -29 59 -78 59
c-50 0 -116 -35 -116 -95c0 -30 25 -57 72 -57zM252 72c45 0 106 30 106 83c0 31 -25 54 -71 54c-48 0 -103 -30 -103 -85c0 -29 21 -52 68 -52z" />
    <glyph glyph-name="nineinferior" unicode="&#x2089;" 
d="M283 208c-65 0 -119 -59 -119 -118c0 -39 24 -66 70 -66c62 0 118 59 118 117c0 39 -20 67 -69 67zM412 44c-28 -128 -108 -238 -238 -238c-57 0 -103 32 -119 83l57 37c8 -42 33 -62 75 -62c86 0 151 105 160 169c-30 -38 -79 -71 -138 -71c-65 0 -113 47 -113 116
c0 103 90 188 192 188c81 0 132 -50 132 -136c0 -26 -3 -63 -8 -86z" />
    <glyph glyph-name="fraction" unicode="&#x2044;" horiz-adv-x="560" 
d="M-55 -93l621 793h75l-624 -793h-72z" />
    <glyph glyph-name="onequarter" unicode="&#xbc;" horiz-adv-x="920" 
d="M444 0h211l-21 -89h72l20 89h69l11 56h-66l63 294h-69c-94 -108 -274 -276 -274 -276zM719 264l-52 -209h-153c116 100 205 209 205 209zM101 -89l620 784h75l-623 -784h-72zM257 588l-79 -332h69l102 439h-49c-26 -46 -77 -72 -118 -81l-12 -54z" />
    <glyph glyph-name="onehalf" unicode="&#xbd;" horiz-adv-x="920" 
d="M699 361c75 0 135 -48 135 -123c0 -92 -70 -135 -142 -168l-82 -39c-40 -19 -64 -38 -76 -59h242l-15 -61h-317c15 80 97 147 136 168l101 52c40 20 85 52 85 105c0 34 -26 65 -73 65c-75 0 -104 -56 -118 -100l-66 21c24 70 87 139 190 139zM75 -89l620 784h75
l-623 -784h-72zM231 588l-79 -332h69l102 439h-49c-26 -46 -77 -72 -118 -81l-12 -54z" />
    <glyph glyph-name="threequarters" unicode="&#xbe;" horiz-adv-x="920" 
d="M154 -89l620 784h75l-623 -784h-72zM682 0h-211l16 74s180 168 274 276h69l-63 -294h68l-13 -56h-69l-20 -89h-72zM694 55l51 208s-88 -108 -204 -208h153zM360 477c33 -14 53 -45 53 -79c0 -87 -84 -152 -193 -152c-84 0 -142 54 -151 118l69 21c4 -43 35 -78 89 -78
c66 0 115 36 115 87c0 30 -25 53 -68 58c-8 1 -31 2 -47 1l13 57c16 -2 33 -2 47 -1c48 7 90 33 90 84c0 32 -23 57 -71 57c-59 0 -96 -44 -115 -84l-61 24c31 68 93 117 186 117c76 0 129 -45 129 -107c0 -59 -34 -101 -85 -123z" />
    <glyph glyph-name="percent" unicode="%" horiz-adv-x="708" 
d="M264 716c72 0 116 -48 116 -120c0 -104 -68 -223 -184 -223c-73 0 -116 53 -116 119c0 105 64 224 184 224zM151 500c0 -42 17 -68 55 -68c74 0 102 107 102 160c0 41 -16 67 -55 67c-70 0 -102 -106 -102 -159zM115 0l465 700h78l-464 -700h-79zM582 330
c72 0 116 -48 116 -120c0 -104 -68 -223 -184 -223c-73 0 -116 53 -116 119c0 105 65 224 184 224zM469 114c0 -42 17 -68 55 -68c74 0 102 107 102 160c0 41 -16 67 -55 67c-70 0 -102 -106 -102 -159z" />
    <glyph glyph-name="perthousand" unicode="&#x2030;" horiz-adv-x="988" 
d="M88 0l480 700h79l-479 -700h-80zM264 716c72 0 116 -48 116 -120c0 -104 -68 -223 -184 -223c-73 0 -116 53 -116 119c0 105 64 224 184 224zM151 500c0 -42 17 -68 55 -68c74 0 102 107 102 160c0 41 -16 67 -55 67c-70 0 -102 -106 -102 -159zM544 331
c72 0 116 -48 116 -120c0 -104 -68 -223 -184 -223c-73 0 -116 53 -116 119c0 105 64 224 184 224zM431 115c0 -42 17 -68 55 -68c74 0 102 107 102 160c0 41 -16 67 -55 67c-70 0 -102 -106 -102 -159zM862 331c72 0 116 -48 116 -120c0 -104 -68 -223 -184 -223
c-73 0 -116 53 -116 119c0 105 64 224 184 224zM749 115c0 -42 17 -68 55 -68c74 0 102 107 102 160c0 41 -16 67 -55 67c-70 0 -102 -106 -102 -159z" />
    <glyph glyph-name="plus" unicode="+" horiz-adv-x="530" 
d="M65 270v78h180v187h82v-187h180v-78h-180v-188h-82v188h-180z" />
    <glyph glyph-name="minus" unicode="&#x2212;" horiz-adv-x="530" 
d="M503 270h-443v78h443v-78z" />
    <glyph glyph-name="plusminus" unicode="&#xb1;" horiz-adv-x="520" 
d="M39 372v78h180v187h82v-187h180v-78h-180v-188h-82v188h-180zM481 0h-442v78h442v-78z" />
    <glyph glyph-name="multiply" unicode="&#xd7;" horiz-adv-x="530" 
d="M120 522l165 -173l166 173l55 -55l-169 -172l169 -171l-55 -55l-166 172l-165 -173l-55 55l169 172l-169 172z" />
    <glyph glyph-name="divide" unicode="&#xf7;" horiz-adv-x="520" 
d="M481 229h-443v78h443v-78zM207 0v123h108v-123h-108zM207 412v123h108v-123h-108z" />
    <glyph glyph-name="equal" unicode="=" horiz-adv-x="520" 
d="M493 372h-443v72h443v-72zM493 172h-443v73h443v-73z" />
    <glyph glyph-name="notequal" unicode="&#x2260;" horiz-adv-x="520" 
d="M282 444l105 298h75l-104 -298h135v-72h-160l-45 -127h205v-73h-230l-97 -277h-76l97 277h-137v73h162l45 127h-207v72h232z" />
    <glyph glyph-name="approxequal" unicode="&#x2248;" horiz-adv-x="583" 
d="M210 493c48 0 88 -24 128 -47c42 -24 84 -47 128 -47c46 0 87 18 127 52l-4 -74c-40 -43 -93 -62 -151 -62c-44 0 -86 23 -126 46c-42 24 -84 47 -128 47c-45 0 -88 -17 -127 -49l4 71c41 43 93 63 149 63zM169 293c48 0 88 -24 128 -47c42 -24 84 -47 128 -47
c46 0 87 18 127 52l-4 -74c-40 -43 -93 -62 -151 -62c-44 0 -86 23 -126 46c-42 24 -84 47 -128 47c-45 0 -88 -17 -127 -49l4 71c41 43 93 63 149 63z" />
    <glyph glyph-name="less" unicode="&#x3c;" horiz-adv-x="520" 
d="M480 45l-443 195v71l443 196v-82l-358 -149l358 -149v-82z" />
    <glyph glyph-name="greater" unicode="&#x3e;" horiz-adv-x="520" 
d="M503 240l-443 -195v82l359 149l-359 149v82l443 -196v-71z" />
    <glyph glyph-name="lessequal" unicode="&#x2264;" horiz-adv-x="520" 
d="M480 126l-443 196v71l443 197v-83l-358 -149l358 -149v-83zM480 0h-443v73h443v-73z" />
    <glyph glyph-name="greaterequal" unicode="&#x2265;" horiz-adv-x="520" 
d="M481 322l-443 -196v83l358 149l-358 149v83l443 -197v-71zM38 0h443v73h-443v-73z" />
    <glyph glyph-name="logicalnot" unicode="&#xac;" horiz-adv-x="520" 
d="M38 366v78h443v-272h-84v194h-359z" />
    <glyph glyph-name="Delta" unicode="&#x394;" horiz-adv-x="610" 
d="M590 0h-590l236 695h118zM295 619l-176 -536h352z" />
    <glyph glyph-name="Delta" unicode="&#x2206;" horiz-adv-x="610" 
d="M590 0h-590l236 695h118zM295 619l-176 -536h352z" />
    <glyph glyph-name="Omega" unicode="&#x3a9;" horiz-adv-x="674" 
d="M337 624c-129 0 -217 -92 -217 -222c0 -108 50 -186 158 -213v-189h-230v83h152v55c-108 44 -171 140 -171 264c0 178 141 302 308 302s308 -124 308 -302c0 -124 -63 -220 -171 -264v-55h152v-83h-230v189c108 27 158 105 158 213c0 130 -88 222 -217 222z" />
    <glyph glyph-name="Omega" unicode="&#x2126;" horiz-adv-x="674" 
d="M337 624c-129 0 -217 -92 -217 -222c0 -108 50 -186 158 -213v-189h-230v83h152v55c-108 44 -171 140 -171 264c0 178 141 302 308 302s308 -124 308 -302c0 -124 -63 -220 -171 -264v-55h152v-83h-230v189c108 27 158 105 158 213c0 130 -88 222 -217 222z" />
    <glyph glyph-name="mu" unicode="&#xb5;" horiz-adv-x="569" 
d="M229 67c53 0 147 54 172 160l66 281h92l-115 -508h-72v99c-41 -66 -115 -111 -182 -111c-33 0 -63 10 -80 32l-44 -185l-96 -19l163 692h94l-77 -322c-3 -12 -5 -23 -5 -35c0 -53 27 -84 84 -84z" />
    <glyph glyph-name="mu" unicode="&#x3bc;" horiz-adv-x="569" 
d="M229 67c53 0 147 54 172 160l66 281h92l-115 -508h-72v99c-41 -66 -115 -111 -182 -111c-33 0 -63 10 -80 32l-44 -185l-96 -19l163 692h94l-77 -322c-3 -12 -5 -23 -5 -35c0 -53 27 -84 84 -84z" />
    <glyph glyph-name="pi" unicode="&#x3c0;" horiz-adv-x="610" 
d="M529 14c-22 -14 -53 -24 -82 -24c-71 0 -115 49 -102 123l56 311h-169l-81 -424h-92l81 424h-113l35 84h522v-84h-92l-55 -303c-6 -33 15 -51 44 -51c15 0 35 9 48 17v-73z" />
    <glyph glyph-name="degree" unicode="&#xb0;" horiz-adv-x="324" 
d="M245 477c-68 0 -122 53 -122 122s54 123 122 123s122 -53 122 -122s-54 -123 -122 -123zM245 673c-41 0 -72 -33 -72 -74s31 -73 72 -73s72 33 72 74s-31 73 -72 73z" />
    <glyph glyph-name="infinity" unicode="&#x221e;" horiz-adv-x="610" 
d="M305 235c-36 -57 -85 -86 -138 -86c-87 0 -159 60 -159 161c0 100 72 160 159 160c53 0 102 -28 138 -86c36 58 85 86 138 86c87 0 159 -60 159 -160c0 -101 -72 -161 -159 -161c-53 0 -102 29 -138 86zM76 310c0 -59 37 -99 95 -99c46 0 79 44 101 98
c-22 54 -55 99 -101 99c-58 0 -95 -40 -95 -98zM534 310c0 58 -37 98 -95 98c-46 0 -79 -45 -101 -99c22 -54 55 -98 101 -98c58 0 95 40 95 99z" />
    <glyph glyph-name="partialdiff" unicode="&#x2202;" horiz-adv-x="610" 
d="M298 64c82 0 142 69 145 158c0 97 -67 166 -152 166c-89 0 -142 -64 -142 -157c0 -99 59 -167 149 -167zM163 592l-58 70c37 29 96 53 156 53c184 0 290 -170 290 -383c0 -187 -98 -352 -263 -352c-132 0 -231 102 -231 252c0 142 111 237 224 237c95 0 170 -60 193 -134
c7 118 -50 301 -211 301c-37 0 -77 -16 -100 -44z" />
    <glyph glyph-name="integral" unicode="&#x222b;" horiz-adv-x="380" 
d="M27 -182l18 67c12 -6 29 -11 43 -11c37 0 57 22 57 60v675c0 115 64 144 122 144c41 0 72 -12 87 -21l-18 -67c-12 6 -29 11 -43 11c-37 0 -57 -22 -57 -60v-675c0 -115 -64 -144 -122 -144c-41 0 -72 12 -87 21z" />
    <glyph glyph-name="radical" unicode="&#x221a;" horiz-adv-x="610" 
d="M610 742l-283 -931h-74l-168 298l-61 -36l-36 70l134 72l156 -281l245 808h87z" />
    <glyph glyph-name="summation" unicode="&#x2211;" horiz-adv-x="610" 
d="M45 -108l234 385l-234 384v81h543v-83h-438l234 -383l-234 -382h438v-83h-543v81z" />
    <glyph glyph-name="product" unicode="&#x220f;" horiz-adv-x="610" 
d="M136 -189h-92v911h522v-911h-92v827h-338v-827z" />
    <glyph glyph-name="lozenge" unicode="&#x25ca;" horiz-adv-x="610" 
d="M252 742h107l179 -381l-179 -382h-107l-179 382zM305 59l135 302l-135 301l-134 -301z" />
    <glyph glyph-name="caron" unicode="&#x2c7;" horiz-adv-x="398" 
d="M279 616l78 75h84l-117 -129h-102l-67 129h75z" />
    <glyph glyph-name="circumflex" unicode="&#x2c6;" horiz-adv-x="398" 
d="M274 638l-78 -76h-84l118 129h101l67 -129h-75z" />
    <glyph glyph-name="acute" unicode="&#xb4;" horiz-adv-x="370" 
d="M299 705h122l-153 -143h-67z" />
    <glyph glyph-name="grave" unicode="`" horiz-adv-x="370" 
d="M307 562h-62l-86 143h107z" />
    <glyph glyph-name="macron" unicode="&#xaf;" horiz-adv-x="425" 
d="M409 576h-277l17 73h277z" />
    <glyph glyph-name="breve" unicode="&#x2d8;" horiz-adv-x="398" 
d="M272 623c49 0 74 35 83 60h77c-13 -42 -58 -126 -170 -126c-90 0 -120 61 -118 116c0 4 0 7 1 10h71v-6c0 -25 11 -54 56 -54z" />
    <glyph glyph-name="ring" unicode="&#x2da;" horiz-adv-x="398" 
d="M261 554c-53 0 -86 41 -75 93c9 51 59 93 112 93s85 -42 76 -93c-11 -52 -60 -93 -113 -93zM288 692c-27 0 -49 -21 -53 -45c-5 -25 9 -46 36 -46s49 21 54 46c4 24 -10 45 -37 45z" />
    <glyph glyph-name="tilde" unicode="&#x2dc;" horiz-adv-x="398" 
d="M395 666l51 -13c-17 -49 -55 -91 -111 -91c-46 0 -74 39 -121 39c-24 0 -40 -13 -52 -37l-49 14c18 49 49 93 112 93c44 0 73 -38 118 -38c22 0 39 9 52 33z" />
    <glyph glyph-name="dotaccent" unicode="&#x2d9;" horiz-adv-x="398" 
d="M214 569l25 107h103l-25 -107h-103z" />
    <glyph glyph-name="hungarumlaut" unicode="&#x2dd;" horiz-adv-x="478" 
d="M376 562h-63l95 143h100zM230 562h-63l95 143h100z" />
    <glyph glyph-name="dieresis" unicode="&#xa8;" horiz-adv-x="500" 
d="M191 572l23 97h91l-23 -97h-91zM352 572l23 97h90l-23 -97h-90z" />
    <glyph glyph-name="commaaccent" horiz-adv-x="225" 
d="M8 -221l-25 28c19 7 49 27 54 53l-43 20l20 79h91l-20 -81c-13 -51 -42 -85 -77 -99z" />
    <glyph glyph-name="commaaccent.alt" horiz-adv-x="210" 
d="M69 -221l-25 28c19 7 49 27 54 53l-43 20l20 79h91l-20 -81c-13 -51 -42 -85 -77 -99z" />
    <glyph glyph-name="cedilla" unicode="&#xb8;" horiz-adv-x="277" 
d="M16 -88l50 115h57l-31 -67h13c42 0 80 -23 70 -71c-11 -48 -69 -85 -143 -85c-38 0 -80 14 -92 33l43 52c15 -14 40 -27 65 -27c30 0 53 11 57 27c3 17 -13 23 -41 23h-48z" />
    <glyph glyph-name="ogonek" unicode="&#x2db;" horiz-adv-x="278" 
d="M151 -108l-4 -62c-34 -21 -70 -24 -86 -24c-59 0 -86 30 -86 68c0 68 74 125 127 144l51 -18c-48 -27 -95 -62 -95 -104c0 -15 8 -28 33 -28c28 0 60 24 60 24z" />
    <glyph glyph-name="caron.alt" horiz-adv-x="398" 
d="M236 532l-15 39c25 4 52 23 58 53l-39 12l21 86h87l-18 -80c-15 -65 -52 -92 -94 -110z" />
    <glyph glyph-name="caron.cap" horiz-adv-x="225" 
d="M240 825l76 70h88l-117 -124h-106l-67 124h79z" />
    <glyph glyph-name="circumflex.cap" horiz-adv-x="398" 
d="M323 842l-75 -71h-88l117 124h106l67 -124h-79z" />
    <glyph glyph-name="acute.cap" horiz-adv-x="225" 
d="M241 771h-73l91 129h123z" />
    <glyph glyph-name="grave.cap" horiz-adv-x="225" 
d="M106 900h112l35 -129h-67z" />
    <glyph glyph-name="macron.cap" horiz-adv-x="471" 
d="M472 780h-276l17 73h276z" />
    <glyph glyph-name="breve.cap" horiz-adv-x="225" 
d="M236 832c49 0 77 33 84 58h76c-13 -46 -58 -123 -169 -123c-90 0 -120 65 -120 113c0 4 0 7 1 10h73v-6c0 -25 12 -52 55 -52z" />
    <glyph glyph-name="ring.cap" horiz-adv-x="225" 
d="M224 765c-48 0 -78 37 -68 84c8 46 53 84 101 84c47 0 77 -38 69 -84c-10 -47 -55 -84 -102 -84zM248 888c-24 0 -42 -18 -46 -39c-5 -22 7 -40 31 -40s42 18 47 40c4 21 -8 39 -32 39z" />
    <glyph glyph-name="tilde.cap" horiz-adv-x="398" 
d="M439 873l50 -13c-16 -49 -54 -90 -110 -90c-45 0 -73 37 -119 37c-24 0 -40 -12 -52 -35l-48 13c17 49 48 92 111 92c43 0 72 -36 116 -36c22 0 39 8 52 32z" />
    <glyph glyph-name="dotaccent.cap" horiz-adv-x="225" 
d="M175 779l26 108h108l-28 -108h-106z" />
    <glyph glyph-name="hungarumlaut.cap" horiz-adv-x="225" 
d="M320 772h-70l100 129h101zM160 772h-70l98 129h101z" />
    <glyph glyph-name="dieresis.cap" horiz-adv-x="500" 
d="M202 778l24 98h96l-24 -98h-96zM380 778l24 98h95l-24 -98h-95z" />
    <glyph glyph-name="agrave" unicode="&#xe0;" horiz-adv-x="571" 
d="M224 66c77 0 155 72 181 171c12 45 12 62 12 77c0 74 -36 130 -107 130c-120 0 -192 -142 -192 -246c0 -83 32 -132 106 -132zM561 508l-119 -508h-73v83c-47 -54 -106 -95 -178 -95c-102 0 -161 75 -161 183c0 174 108 349 279 349c61 0 112 -35 140 -97l40 85h72z
M372 562h-62l-86 143h107z" />
    <glyph glyph-name="aacute" unicode="&#xe1;" horiz-adv-x="571" 
d="M224 66c-74 0 -106 49 -106 132c0 104 72 246 192 246c71 0 107 -56 107 -130c0 -15 0 -32 -12 -77c-26 -99 -104 -171 -181 -171zM442 0l119 508h-72l-40 -85c-28 62 -79 97 -140 97c-171 0 -279 -175 -279 -349c0 -108 59 -183 161 -183c72 0 131 41 178 95v-83h73z
M379 705h122l-153 -143h-67z" />
    <glyph glyph-name="acircumflex" unicode="&#xe2;" horiz-adv-x="571" 
d="M224 66c-74 0 -106 49 -106 132c0 104 72 246 192 246c71 0 107 -56 107 -130c0 -15 0 -32 -12 -77c-26 -99 -104 -171 -181 -171zM442 0l119 508h-72l-40 -85c-28 62 -79 97 -140 97c-171 0 -279 -175 -279 -349c0 -108 59 -183 161 -183c72 0 131 41 178 95v-83h73z
M354 638l-78 -76h-84l118 129h101l67 -129h-75z" />
    <glyph glyph-name="atilde" unicode="&#xe3;" horiz-adv-x="571" 
d="M224 66c-74 0 -106 49 -106 132c0 104 72 246 192 246c71 0 107 -56 107 -130c0 -15 0 -32 -12 -77c-26 -99 -104 -171 -181 -171zM442 0l119 508h-72l-40 -85c-28 62 -79 97 -140 97c-171 0 -279 -175 -279 -349c0 -108 59 -183 161 -183c72 0 131 41 178 95v-83h73z
M475 666l51 -13c-17 -49 -55 -91 -111 -91c-46 0 -74 39 -121 39c-24 0 -40 -13 -52 -37l-49 14c18 49 49 93 112 93c44 0 73 -38 118 -38c22 0 39 9 52 33z" />
    <glyph glyph-name="adieresis" unicode="&#xe4;" horiz-adv-x="571" 
d="M224 66c-74 0 -106 49 -106 132c0 104 72 246 192 246c71 0 107 -56 107 -130c0 -15 0 -32 -12 -77c-26 -99 -104 -171 -181 -171zM442 0l119 508h-72l-40 -85c-28 62 -79 97 -140 97c-171 0 -279 -175 -279 -349c0 -108 59 -183 161 -183c72 0 131 41 178 95v-83h73z
M216 572l23 97h91l-23 -97h-91zM377 572l23 97h90l-23 -97h-90z" />
    <glyph glyph-name="amacron" unicode="&#x101;" horiz-adv-x="571" 
d="M224 66c-74 0 -106 49 -106 132c0 104 72 246 192 246c71 0 107 -56 107 -130c0 -15 0 -32 -12 -77c-26 -99 -104 -171 -181 -171zM442 0l119 508h-72l-40 -85c-28 62 -79 97 -140 97c-171 0 -279 -175 -279 -349c0 -108 59 -183 161 -183c72 0 131 41 178 95v-83h73z
M474 576h-277l17 73h277z" />
    <glyph glyph-name="abreve" unicode="&#x103;" horiz-adv-x="571" 
d="M224 66c77 0 155 72 181 171c12 45 12 62 12 77c0 74 -36 130 -107 130c-120 0 -192 -142 -192 -246c0 -83 32 -132 106 -132zM561 508l-119 -508h-73v83c-47 -54 -106 -95 -178 -95c-102 0 -161 75 -161 183c0 174 108 349 279 349c61 0 112 -35 140 -97l40 85h72z
M347 623c49 0 74 35 83 60h77c-13 -42 -58 -126 -170 -126c-90 0 -120 61 -118 116c0 4 0 7 1 10h71v-6c0 -25 11 -54 56 -54z" />
    <glyph glyph-name="aring" unicode="&#xe5;" horiz-adv-x="571" 
d="M224 66c-74 0 -106 49 -106 132c0 104 72 246 192 246c71 0 107 -56 107 -130c0 -15 0 -32 -12 -77c-26 -99 -104 -171 -181 -171zM442 0l119 508h-72l-40 -85c-28 62 -79 97 -140 97c-171 0 -279 -175 -279 -349c0 -108 59 -183 161 -183c72 0 131 41 178 95v-83h73z
M326 554c-53 0 -86 41 -75 93c9 51 59 93 112 93s85 -42 76 -93c-11 -52 -60 -93 -113 -93zM353 692c-27 0 -49 -21 -53 -45c-5 -25 9 -46 36 -46s49 21 54 46c4 24 -10 45 -37 45z" />
    <glyph glyph-name="aringacute" unicode="&#x1fb;" horiz-adv-x="571" 
d="M224 66c-74 0 -106 49 -106 132c0 104 72 246 192 246c71 0 107 -56 107 -130c0 -15 0 -32 -12 -77c-26 -99 -104 -171 -181 -171zM442 0l119 508h-72l-40 -85c-28 62 -79 97 -140 97c-171 0 -279 -175 -279 -349c0 -108 59 -183 161 -183c72 0 131 41 178 95v-83h73z
M327 544c-53 0 -86 41 -75 93c9 51 59 93 112 93s85 -42 76 -93c-11 -52 -60 -93 -113 -93zM354 682c-27 0 -49 -21 -53 -45c-5 -25 9 -46 36 -46s49 21 54 46c4 24 -10 45 -37 45zM431 897h122l-153 -143h-67z" />
    <glyph glyph-name="aogonek" unicode="&#x105;" horiz-adv-x="571" 
d="M440 -108l-4 -62c-34 -21 -70 -24 -86 -24c-59 0 -86 30 -86 68c0 59 55 110 105 134v75c-47 -54 -106 -95 -178 -95c-102 0 -161 75 -161 183c0 174 108 349 279 349c61 0 112 -35 140 -97l40 85h72l-119 -508c-48 -27 -95 -62 -95 -104c0 -15 8 -28 33 -28
c28 0 60 24 60 24zM224 66c77 0 155 72 181 171c12 45 12 62 12 77c0 74 -36 130 -107 130c-120 0 -192 -142 -192 -246c0 -83 32 -132 106 -132z" />
    <glyph glyph-name="aeacute" unicode="&#x1fd;" horiz-adv-x="899" 
d="M553 478l7 30h-72l-40 -85c-28 62 -79 97 -140 97c-171 0 -278 -175 -278 -349c0 -108 58 -183 160 -183c72 0 131 41 178 95v-83h73l10 42c32 -35 79 -54 136 -54c105 0 196 57 251 152l-73 34c-33 -66 -98 -108 -164 -108c-74 0 -111 46 -111 121c0 17 3 36 9 57h314
l44 4c9 29 17 62 17 94c0 107 -68 178 -174 178c-57 0 -106 -16 -147 -42zM223 66c-74 0 -106 49 -106 132c0 104 72 246 192 246c71 0 107 -56 107 -130c0 -15 0 -32 -12 -77c-26 -99 -104 -171 -181 -171zM686 448c63 0 101 -36 101 -93c0 -9 0 -23 -6 -42h-263
c26 78 93 135 168 135zM577 705h122l-153 -143h-67z" />
    <glyph glyph-name="cacute" unicode="&#x107;" horiz-adv-x="503" 
d="M379 159l64 -44c-54 -79 -132 -127 -228 -127c-110 0 -185 71 -185 186c0 169 108 346 301 346c96 0 157 -61 167 -149l-77 -33c-5 63 -36 105 -102 105c-118 0 -202 -123 -202 -250c0 -81 36 -126 111 -126c61 0 115 42 151 92zM389 705h122l-153 -143h-67z" />
    <glyph glyph-name="ccircumflex" unicode="&#x109;" horiz-adv-x="503" 
d="M379 159l64 -44c-54 -79 -132 -127 -228 -127c-110 0 -185 71 -185 186c0 169 108 346 301 346c96 0 157 -61 167 -149l-77 -33c-5 63 -36 105 -102 105c-118 0 -202 -123 -202 -250c0 -81 36 -126 111 -126c61 0 115 42 151 92zM361 638l-78 -76h-84l118 129h101
l67 -129h-75z" />
    <glyph glyph-name="ccaron" unicode="&#x10d;" horiz-adv-x="503" 
d="M379 159l64 -44c-54 -79 -132 -127 -228 -127c-110 0 -185 71 -185 186c0 169 108 346 301 346c96 0 157 -61 167 -149l-77 -33c-5 63 -36 105 -102 105c-118 0 -202 -123 -202 -250c0 -81 36 -126 111 -126c61 0 115 42 151 92zM344 616l78 75h84l-117 -129h-102
l-67 129h75z" />
    <glyph glyph-name="cdotaccent" unicode="&#x10b;" horiz-adv-x="503" 
d="M379 159l64 -44c-54 -79 -132 -127 -228 -127c-110 0 -185 71 -185 186c0 169 108 346 301 346c96 0 157 -61 167 -149l-77 -33c-5 63 -36 105 -102 105c-118 0 -202 -123 -202 -250c0 -81 36 -126 111 -126c61 0 115 42 151 92zM295 569l25 107h103l-25 -107h-103z" />
    <glyph glyph-name="ccedilla" unicode="&#xe7;" horiz-adv-x="503" 
d="M121 -88l36 84c-78 20 -127 84 -127 178c0 169 108 346 301 346c96 0 157 -61 167 -149l-77 -33c-5 63 -36 105 -102 105c-118 0 -202 -123 -202 -250c0 -81 36 -126 111 -126c61 0 115 42 151 92l64 -44c-54 -79 -132 -127 -228 -127h-5l-13 -28h13c42 0 80 -23 70 -71
c-11 -48 -69 -85 -143 -85c-38 0 -80 14 -92 33l43 52c15 -14 40 -27 65 -27c30 0 53 11 57 27c3 17 -13 23 -41 23h-48z" />
    <glyph glyph-name="dcaron" unicode="&#x10f;" horiz-adv-x="598" 
d="M364 0l2 90c-40 -63 -109 -102 -175 -102c-98 0 -161 72 -161 176c0 158 98 356 275 356c70 0 113 -44 134 -99l71 301h89l-163 -722h-72zM222 67c61 0 142 44 174 169c12 47 13 71 13 84c0 94 -68 121 -107 121c-118 0 -183 -145 -183 -255c0 -73 38 -119 103 -119z
M619 532l-15 39c25 4 52 23 58 53l-39 12l21 86h87l-18 -80c-15 -65 -52 -92 -94 -110z" />
    <glyph glyph-name="dcroat" unicode="&#x111;" horiz-adv-x="569" 
d="M364 0l2 90c-40 -63 -109 -102 -175 -102c-98 0 -161 72 -161 176c0 158 98 356 275 356c70 0 113 -44 134 -99l35 151h-163l13 58h164l22 92h89l-21 -92h81l-14 -58h-80l-129 -572h-72zM222 67c61 0 142 44 174 169c12 47 13 71 13 84c0 94 -68 121 -107 121
c-118 0 -183 -145 -183 -255c0 -73 38 -119 103 -119z" />
    <glyph glyph-name="egrave" unicode="&#xe8;" horiz-adv-x="524" 
d="M390 175l75 -35c-55 -95 -146 -152 -251 -152c-109 0 -182 71 -182 188c0 166 101 344 295 344c106 0 174 -71 174 -178c0 -32 -8 -65 -17 -94l-44 -4h-314c-6 -21 -9 -40 -9 -57c0 -75 37 -121 111 -121c66 0 129 43 162 109zM313 448c-75 0 -142 -57 -168 -135h263
c6 19 6 33 6 42c0 57 -38 93 -101 93zM372 562h-62l-86 143h107z" />
    <glyph glyph-name="eacute" unicode="&#xe9;" horiz-adv-x="524" 
d="M390 175l75 -35c-55 -95 -146 -152 -251 -152c-109 0 -182 71 -182 188c0 166 101 344 295 344c106 0 174 -71 174 -178c0 -32 -8 -65 -17 -94l-44 -4h-314c-6 -21 -9 -40 -9 -57c0 -75 37 -121 111 -121c66 0 129 43 162 109zM313 448c-75 0 -142 -57 -168 -135h263
c6 19 6 33 6 42c0 57 -38 93 -101 93zM384 705h122l-153 -143h-67z" />
    <glyph glyph-name="ecircumflex" unicode="&#xea;" horiz-adv-x="524" 
d="M390 175l75 -35c-55 -95 -146 -152 -251 -152c-109 0 -182 71 -182 188c0 166 101 344 295 344c106 0 174 -71 174 -178c0 -32 -8 -65 -17 -94l-44 -4h-314c-6 -21 -9 -40 -9 -57c0 -75 37 -121 111 -121c66 0 129 43 162 109zM313 448c-75 0 -142 -57 -168 -135h263
c6 19 6 33 6 42c0 57 -38 93 -101 93zM354 638l-78 -76h-84l118 129h101l67 -129h-75z" />
    <glyph glyph-name="ecaron" unicode="&#x11b;" horiz-adv-x="524" 
d="M390 175l75 -35c-55 -95 -146 -152 -251 -152c-109 0 -182 71 -182 188c0 166 101 344 295 344c106 0 174 -71 174 -178c0 -32 -8 -65 -17 -94l-44 -4h-314c-6 -21 -9 -40 -9 -57c0 -75 37 -121 111 -121c66 0 129 43 162 109zM313 448c-75 0 -142 -57 -168 -135h263
c6 19 6 33 6 42c0 57 -38 93 -101 93zM344 616l78 75h84l-117 -129h-102l-67 129h75z" />
    <glyph glyph-name="edieresis" unicode="&#xeb;" horiz-adv-x="524" 
d="M390 175l75 -35c-55 -95 -146 -152 -251 -152c-109 0 -182 71 -182 188c0 166 101 344 295 344c106 0 174 -71 174 -178c0 -32 -8 -65 -17 -94l-44 -4h-314c-6 -21 -9 -40 -9 -57c0 -75 37 -121 111 -121c66 0 129 43 162 109zM313 448c-75 0 -142 -57 -168 -135h263
c6 19 6 33 6 42c0 57 -38 93 -101 93zM206 572l23 97h91l-23 -97h-91zM367 572l23 97h90l-23 -97h-90z" />
    <glyph glyph-name="emacron" unicode="&#x113;" horiz-adv-x="524" 
d="M390 175l75 -35c-55 -95 -146 -152 -251 -152c-109 0 -182 71 -182 188c0 166 101 344 295 344c106 0 174 -71 174 -178c0 -32 -8 -65 -17 -94l-44 -4h-314c-6 -21 -9 -40 -9 -57c0 -75 37 -121 111 -121c66 0 129 43 162 109zM313 448c-75 0 -142 -57 -168 -135h263
c6 19 6 33 6 42c0 57 -38 93 -101 93zM479 576h-277l17 73h277z" />
    <glyph glyph-name="ebreve" unicode="&#x115;" horiz-adv-x="524" 
d="M390 175l75 -35c-55 -95 -146 -152 -251 -152c-109 0 -182 71 -182 188c0 166 101 344 295 344c106 0 174 -71 174 -178c0 -32 -8 -65 -17 -94l-44 -4h-314c-6 -21 -9 -40 -9 -57c0 -75 37 -121 111 -121c66 0 129 43 162 109zM313 448c-75 0 -142 -57 -168 -135h263
c6 19 6 33 6 42c0 57 -38 93 -101 93zM347 623c49 0 74 35 83 60h77c-13 -42 -58 -126 -170 -126c-90 0 -120 61 -118 116c0 4 0 7 1 10h71v-6c0 -25 11 -54 56 -54z" />
    <glyph glyph-name="edotaccent" unicode="&#x117;" horiz-adv-x="524" 
d="M390 175l75 -35c-55 -95 -146 -152 -251 -152c-109 0 -182 71 -182 188c0 166 101 344 295 344c106 0 174 -71 174 -178c0 -32 -8 -65 -17 -94l-44 -4h-314c-6 -21 -9 -40 -9 -57c0 -75 37 -121 111 -121c66 0 129 43 162 109zM313 448c-75 0 -142 -57 -168 -135h263
c6 19 6 33 6 42c0 57 -38 93 -101 93zM289 569l25 107h103l-25 -107h-103z" />
    <glyph glyph-name="eogonek" unicode="&#x119;" horiz-adv-x="524" 
d="M390 175l75 -35c-23 -40 -52 -73 -86 -98c-38 -30 -81 -69 -92 -119c-8 -32 10 -49 35 -49c28 0 59 22 59 22l-5 -64c-35 -21 -65 -24 -88 -24c-70 0 -97 47 -84 98c8 33 28 62 51 85c-13 -2 -27 -3 -41 -3c-109 0 -182 71 -182 188c0 166 101 344 295 344
c106 0 174 -71 174 -178c0 -32 -8 -65 -17 -94l-44 -4h-314c-6 -21 -9 -40 -9 -57c0 -75 37 -121 111 -121c66 0 129 43 162 109zM313 448c-75 0 -142 -57 -168 -135h263c6 19 6 33 6 42c0 57 -38 93 -101 93z" />
    <glyph glyph-name="gcircumflex" unicode="&#x11d;" horiz-adv-x="591" 
d="M234 67c-77 0 -113 51 -113 132c0 104 75 243 195 243c72 0 120 -56 120 -130c0 -15 -1 -32 -11 -77c-28 -110 -121 -168 -191 -168zM475 58l106 450h-71l-43 -87c-31 65 -78 99 -144 99c-182 0 -290 -171 -290 -345c0 -111 75 -187 176 -187c81 0 146 51 184 97l-11 -44
c-29 -118 -101 -191 -216 -191c-63 0 -98 32 -101 77h-95c2 -90 82 -156 183 -156c179 0 282 115 322 287zM374 638l-78 -76h-84l118 129h101l67 -129h-75z" />
    <glyph glyph-name="gbreve" unicode="&#x11f;" horiz-adv-x="591" 
d="M234 67c70 0 163 58 191 168c10 45 11 62 11 77c0 74 -48 130 -120 130c-120 0 -195 -139 -195 -243c0 -81 36 -132 113 -132zM581 508l-106 -450c-40 -172 -143 -287 -322 -287c-101 0 -181 66 -183 156h95c3 -45 38 -77 101 -77c115 0 187 73 216 191l11 44
c-38 -46 -103 -97 -184 -97c-101 0 -176 76 -176 187c0 174 108 345 290 345c66 0 113 -34 144 -99l43 87h71zM347 623c49 0 74 35 83 60h77c-13 -42 -58 -126 -170 -126c-90 0 -120 61 -118 116c0 4 0 7 1 10h71v-6c0 -25 11 -54 56 -54z" />
    <glyph glyph-name="gdotaccent" unicode="&#x121;" horiz-adv-x="591" 
d="M234 67c-77 0 -113 51 -113 132c0 104 75 243 195 243c72 0 120 -56 120 -130c0 -15 -1 -32 -11 -77c-28 -110 -121 -168 -191 -168zM475 58l106 450h-71l-43 -87c-31 65 -78 99 -144 99c-182 0 -290 -171 -290 -345c0 -111 75 -187 176 -187c81 0 146 51 184 97l-11 -44
c-29 -118 -101 -191 -216 -191c-63 0 -98 32 -101 77h-95c2 -90 82 -156 183 -156c179 0 282 115 322 287zM284 569l25 107h103l-25 -107h-103z" />
    <glyph glyph-name="gcommaaccent" unicode="&#x123;" horiz-adv-x="591" 
d="M234 67c-77 0 -113 51 -113 132c0 104 75 243 195 243c72 0 120 -56 120 -130c0 -15 -1 -32 -11 -77c-28 -110 -121 -168 -191 -168zM475 58l106 450h-71l-43 -87c-31 65 -78 99 -144 99c-182 0 -290 -171 -290 -345c0 -111 75 -187 176 -187c81 0 146 51 184 97l-11 -44
c-29 -118 -101 -191 -216 -191c-63 0 -98 32 -101 77h-95c2 -90 82 -156 183 -156c179 0 282 115 322 287zM387 741l25 -28c-19 -7 -49 -27 -54 -53l43 -20l-20 -79h-91l20 81c13 51 42 85 77 99z" />
    <glyph glyph-name="hcircumflex" unicode="&#x125;" horiz-adv-x="566" 
d="M346 445c56 0 87 -28 87 -82c0 -12 -2 -25 -5 -38l-74 -325h94l73 335c3 16 5 32 5 46c0 80 -50 139 -138 139c-77 0 -149 -53 -183 -100l70 302h-93l-162 -722h92l64 281c30 138 130 164 170 164zM376 838l-78 -76h-84l118 129h101l67 -129h-75z" />
    <glyph glyph-name="hbar" unicode="&#x127;" horiz-adv-x="566" 
d="M346 445c-40 0 -140 -26 -170 -164l-64 -281h-92l128 572h-69l14 58h68l21 92h93l-22 -92h164l-14 -58h-163l-35 -152c34 47 106 100 183 100c88 0 138 -59 138 -139c0 -14 -2 -30 -5 -46l-73 -335h-94l74 325c3 13 5 26 5 38c0 54 -31 82 -87 82z" />
    <glyph glyph-name="igrave" unicode="&#xec;" horiz-adv-x="236" 
d="M18 0l115 508h91l-116 -508h-90zM217 562h-62l-86 143h107z" />
    <glyph glyph-name="iacute" unicode="&#xed;" horiz-adv-x="236" 
d="M133 508l-115 -508h90l116 508h-91zM244 705h122l-153 -143h-67z" />
    <glyph glyph-name="icircumflex" unicode="&#xee;" horiz-adv-x="236" 
d="M133 508l-115 -508h90l116 508h-91zM204 638l-78 -76h-84l118 129h101l67 -129h-75z" />
    <glyph glyph-name="itilde" unicode="&#x129;" horiz-adv-x="236" 
d="M133 508l-115 -508h90l116 508h-91zM314 666l51 -13c-17 -49 -55 -91 -111 -91c-46 0 -74 39 -121 39c-24 0 -40 -13 -52 -37l-49 14c18 49 49 93 112 93c44 0 73 -38 118 -38c22 0 39 9 52 33z" />
    <glyph glyph-name="idieresis" unicode="&#xef;" horiz-adv-x="236" 
d="M133 508l-115 -508h90l116 508h-91zM61 572l23 97h91l-23 -97h-91zM222 572l23 97h90l-23 -97h-90z" />
    <glyph glyph-name="imacron" unicode="&#x12b;" horiz-adv-x="236" 
d="M133 508l-115 -508h90l116 508h-91zM324 576h-277l17 73h277z" />
    <glyph glyph-name="ibreve" unicode="&#x12d;" horiz-adv-x="236" 
d="M18 0l115 508h91l-116 -508h-90zM193 623c49 0 74 35 83 60h77c-13 -42 -58 -126 -170 -126c-90 0 -120 61 -118 116c0 4 0 7 1 10h71v-6c0 -25 11 -54 56 -54z" />
    <glyph glyph-name="iogonek" unicode="&#x12f;" horiz-adv-x="236" 
d="M105 -108l-4 -62c-34 -21 -70 -24 -86 -24c-59 0 -86 30 -86 68c0 53 45 99 89 126l115 508h91l-116 -508h-1c-48 -27 -95 -62 -95 -104c0 -15 8 -28 33 -28c28 0 60 24 60 24zM148 603l24 102h97l-22 -102h-99z" />
    <glyph glyph-name="jcircumflex" unicode="&#x135;" horiz-adv-x="246" 
d="M-90 -171l14 74c10 -4 20 -5 29 -5c36 0 57 17 65 51l127 559h90l-129 -569c-18 -80 -78 -122 -149 -122c-16 0 -36 5 -47 12zM216 638l-78 -76h-84l118 129h101l67 -129h-75z" />
    <glyph glyph-name="kcommaaccent" unicode="&#x137;" horiz-adv-x="511" 
d="M258 241l-114 -104l-32 -137h-92l163 722h91l-108 -476l266 262h114l-218 -208l129 -300h-99zM178 -221l-25 28c19 7 49 27 54 53l-43 20l20 79h91l-20 -81c-13 -51 -42 -85 -77 -99z" />
    <glyph glyph-name="lacute" unicode="&#x13a;" horiz-adv-x="233" 
d="M21 0l163 722h90l-163 -722h-90zM271 771h-73l91 129h123z" />
    <glyph glyph-name="lcaron" unicode="&#x13e;" horiz-adv-x="272" 
d="M21 0l163 722h90l-163 -722h-90zM293 532l-15 39c25 4 52 23 58 53l-39 12l21 86h87l-18 -80c-15 -65 -52 -92 -94 -110z" />
    <glyph glyph-name="lcommaaccent" unicode="&#x13c;" horiz-adv-x="233" 
d="M21 0l163 722h90l-163 -722h-90zM8 -221l-25 28c19 7 49 27 54 53l-43 20l20 79h91l-20 -81c-13 -51 -42 -85 -77 -99z" />
    <glyph glyph-name="ldot" unicode="&#x140;" horiz-adv-x="358" 
d="M21 0l163 722h90l-163 -722h-90zM243 269l29 129h116l-30 -129h-115z" />
    <glyph glyph-name="lslash" unicode="&#x142;" horiz-adv-x="258" 
d="M89 254l-79 -69l19 77l77 68l89 392h91l-66 -293l83 73l-19 -79l-82 -71l-79 -352h-91z" />
    <glyph glyph-name="nacute" unicode="&#x144;" horiz-adv-x="568" 
d="M351 443c53 0 81 -31 81 -83c0 -12 -1 -23 -4 -36l-74 -324h93l76 335c4 16 5 31 5 45c0 81 -49 140 -138 140c-70 0 -139 -50 -183 -109v97h-73l-114 -508h92l65 282c34 120 134 161 174 161zM419 705h122l-153 -143h-67z" />
    <glyph glyph-name="ncaron" unicode="&#x148;" horiz-adv-x="568" 
d="M351 443c53 0 81 -31 81 -83c0 -12 -1 -23 -4 -36l-74 -324h93l76 335c4 16 5 31 5 45c0 81 -49 140 -138 140c-70 0 -139 -50 -183 -109v97h-73l-114 -508h92l65 282c34 120 134 161 174 161zM364 616l78 75h84l-117 -129h-102l-67 129h75z" />
    <glyph glyph-name="ntilde" unicode="&#xf1;" horiz-adv-x="568" 
d="M351 443c53 0 81 -31 81 -83c0 -12 -1 -23 -4 -36l-74 -324h93l76 335c4 16 5 31 5 45c0 81 -49 140 -138 140c-70 0 -139 -50 -183 -109v97h-73l-114 -508h92l65 282c34 120 134 161 174 161zM480 666l51 -13c-17 -49 -55 -91 -111 -91c-46 0 -74 39 -121 39
c-24 0 -40 -13 -52 -37l-49 14c18 49 49 93 112 93c44 0 73 -38 118 -38c22 0 39 9 52 33z" />
    <glyph glyph-name="ncommaaccent" unicode="&#x146;" horiz-adv-x="568" 
d="M351 443c-40 0 -140 -41 -174 -161l-65 -282h-92l114 508h73v-97c44 59 113 109 183 109c89 0 138 -59 138 -140c0 -14 -1 -29 -5 -45l-76 -335h-93l74 324c3 13 4 24 4 36c0 52 -28 83 -81 83zM183 -221l-25 28c19 7 49 27 54 53l-43 20l20 79h91l-20 -81
c-13 -51 -42 -85 -77 -99z" />
    <glyph glyph-name="ograve" unicode="&#xf2;" horiz-adv-x="544" 
d="M326 520c108 0 186 -75 186 -188c0 -196 -132 -344 -298 -344c-110 0 -185 77 -185 187c0 184 113 345 297 345zM121 189c0 -75 35 -124 108 -124c113 0 191 126 191 255c0 77 -38 126 -110 126c-126 0 -189 -148 -189 -257zM377 562h-62l-86 143h107z" />
    <glyph glyph-name="oacute" unicode="&#xf3;" horiz-adv-x="544" 
d="M326 520c-184 0 -297 -161 -297 -345c0 -110 75 -187 185 -187c166 0 298 148 298 344c0 113 -78 188 -186 188zM121 189c0 109 63 257 189 257c72 0 110 -49 110 -126c0 -129 -78 -255 -191 -255c-73 0 -108 49 -108 124zM389 705h122l-153 -143h-67z" />
    <glyph glyph-name="ocircumflex" unicode="&#xf4;" horiz-adv-x="544" 
d="M326 520c-184 0 -297 -161 -297 -345c0 -110 75 -187 185 -187c166 0 298 148 298 344c0 113 -78 188 -186 188zM121 189c0 109 63 257 189 257c72 0 110 -49 110 -126c0 -129 -78 -255 -191 -255c-73 0 -108 49 -108 124zM359 638l-78 -76h-84l118 129h101l67 -129h-75z
" />
    <glyph glyph-name="otilde" unicode="&#xf5;" horiz-adv-x="544" 
d="M326 520c-184 0 -297 -161 -297 -345c0 -110 75 -187 185 -187c166 0 298 148 298 344c0 113 -78 188 -186 188zM121 189c0 109 63 257 189 257c72 0 110 -49 110 -126c0 -129 -78 -255 -191 -255c-73 0 -108 49 -108 124zM460 666l51 -13c-17 -49 -55 -91 -111 -91
c-46 0 -74 39 -121 39c-24 0 -40 -13 -52 -37l-49 14c18 49 49 93 112 93c44 0 73 -38 118 -38c22 0 39 9 52 33z" />
    <glyph glyph-name="odieresis" unicode="&#xf6;" horiz-adv-x="544" 
d="M326 520c-184 0 -297 -161 -297 -345c0 -110 75 -187 185 -187c166 0 298 148 298 344c0 113 -78 188 -186 188zM121 189c0 109 63 257 189 257c72 0 110 -49 110 -126c0 -129 -78 -255 -191 -255c-73 0 -108 49 -108 124zM216 572l23 97h91l-23 -97h-91zM377 572l23 97
h90l-23 -97h-90z" />
    <glyph glyph-name="omacron" unicode="&#x14d;" horiz-adv-x="544" 
d="M326 520c-184 0 -297 -161 -297 -345c0 -110 75 -187 185 -187c166 0 298 148 298 344c0 113 -78 188 -186 188zM121 189c0 109 63 257 189 257c72 0 110 -49 110 -126c0 -129 -78 -255 -191 -255c-73 0 -108 49 -108 124zM474 576h-277l17 73h277z" />
    <glyph glyph-name="obreve" unicode="&#x14f;" horiz-adv-x="544" 
d="M326 520c108 0 186 -75 186 -188c0 -196 -132 -344 -298 -344c-110 0 -185 77 -185 187c0 184 113 345 297 345zM121 189c0 -75 35 -124 108 -124c113 0 191 126 191 255c0 77 -38 126 -110 126c-126 0 -189 -148 -189 -257zM360 623c49 0 74 35 83 60h77
c-13 -42 -58 -126 -170 -126c-90 0 -120 61 -118 116c0 4 0 7 1 10h71v-6c0 -25 11 -54 56 -54z" />
    <glyph glyph-name="ohungarumlaut" unicode="&#x151;" horiz-adv-x="544" 
d="M326 520c-184 0 -297 -161 -297 -345c0 -110 75 -187 185 -187c166 0 298 148 298 344c0 113 -78 188 -186 188zM121 189c0 109 63 257 189 257c72 0 110 -49 110 -126c0 -129 -78 -255 -191 -255c-73 0 -108 49 -108 124zM431 562h-63l95 143h100zM285 562h-63l95 143
h100z" />
    <glyph glyph-name="oslash" unicode="&#xf8;" horiz-adv-x="567" 
d="M12 -30l-37 42l84 78c-12 25 -18 54 -18 85c0 184 113 345 297 345c52 0 98 -20 131 -52l84 77l36 -43l-87 -80c15 -27 21 -57 21 -90c0 -196 -131 -344 -297 -344c-55 0 -102 20 -135 55zM241 65c113 0 191 126 191 255c0 12 -1 24 -3 34l-273 -252
c17 -24 45 -37 85 -37zM133 189c0 -11 0 -20 2 -30l271 251c-18 23 -46 36 -84 36c-126 0 -189 -148 -189 -257z" />
    <glyph glyph-name="oslashacute" unicode="&#x1ff;" horiz-adv-x="567" 
d="M-25 12l37 -42l79 73c33 -35 80 -55 135 -55c166 0 297 148 297 344c0 33 -6 63 -21 90l87 80l-36 43l-84 -77c-33 32 -79 52 -131 52c-184 0 -297 -161 -297 -345c0 -31 6 -60 18 -85zM241 65c-40 0 -68 13 -85 37l273 252c2 -10 3 -22 3 -34c0 -129 -78 -255 -191 -255
zM133 189c0 109 63 257 189 257c38 0 66 -13 84 -36l-271 -251c-2 10 -2 19 -2 30zM407 705h122l-153 -143h-67z" />
    <glyph glyph-name="racute" unicode="&#x155;" horiz-adv-x="352" 
d="M203 508l1 -94c36 54 94 106 160 106c28 0 49 -17 58 -37l-63 -78c-7 17 -22 32 -43 32c-46 0 -103 -38 -143 -168l-62 -269h-91l114 508h69zM344 705h122l-153 -143h-67z" />
    <glyph glyph-name="rcommaaccent" unicode="&#x157;" horiz-adv-x="352" 
d="M203 508l1 -94c36 54 94 106 160 106c28 0 49 -17 58 -37l-63 -78c-7 17 -22 32 -43 32c-46 0 -103 -38 -143 -168l-62 -269h-91l114 508h69zM8 -221l-25 28c19 7 49 27 54 53l-43 20l20 79h91l-20 -81c-13 -51 -42 -85 -77 -99z" />
    <glyph glyph-name="rcaron" unicode="&#x159;" horiz-adv-x="352" 
d="M203 508l1 -94c36 54 94 106 160 106c28 0 49 -17 58 -37l-63 -78c-7 17 -22 32 -43 32c-46 0 -103 -38 -143 -168l-62 -269h-91l114 508h69zM299 616l78 75h84l-117 -129h-102l-67 129h75z" />
    <glyph glyph-name="sacute" unicode="&#x15b;" horiz-adv-x="466" 
d="M203 65c79 0 131 34 131 83c0 26 -19 49 -60 58c-35 8 -67 16 -100 27c-53 18 -109 56 -109 121c0 94 90 166 216 166c86 0 153 -49 184 -94l-67 -60c-18 33 -66 79 -128 79c-75 0 -117 -34 -117 -79c0 -25 19 -45 65 -58c31 -9 68 -19 98 -26c58 -13 106 -53 106 -118
c0 -110 -117 -176 -230 -176c-91 0 -179 52 -197 117l69 47c16 -34 60 -87 139 -87zM334 705h122l-153 -143h-67z" />
    <glyph glyph-name="scircumflex" unicode="&#x15d;" horiz-adv-x="466" 
d="M203 65c79 0 131 34 131 83c0 26 -19 49 -60 58c-35 8 -67 16 -100 27c-53 18 -109 56 -109 121c0 94 90 166 216 166c86 0 153 -49 184 -94l-67 -60c-18 33 -66 79 -128 79c-75 0 -117 -34 -117 -79c0 -25 19 -45 65 -58c31 -9 68 -19 98 -26c58 -13 106 -53 106 -118
c0 -110 -117 -176 -230 -176c-91 0 -179 52 -197 117l69 47c16 -34 60 -87 139 -87zM312 638l-78 -76h-84l118 129h101l67 -129h-75z" />
    <glyph glyph-name="scaron" unicode="&#x161;" horiz-adv-x="466" 
d="M203 65c79 0 131 34 131 83c0 26 -19 49 -60 58c-35 8 -67 16 -100 27c-53 18 -109 56 -109 121c0 94 90 166 216 166c86 0 153 -49 184 -94l-67 -60c-18 33 -66 79 -128 79c-75 0 -117 -34 -117 -79c0 -25 19 -45 65 -58c31 -9 68 -19 98 -26c58 -13 106 -53 106 -118
c0 -110 -117 -176 -230 -176c-91 0 -179 52 -197 117l69 47c16 -34 60 -87 139 -87zM299 616l78 75h84l-117 -129h-102l-67 129h75z" />
    <glyph glyph-name="scedilla" unicode="&#x15f;" horiz-adv-x="466" 
d="M106 -88l35 82c-71 14 -132 58 -146 111l69 47c16 -34 60 -87 139 -87s131 34 131 83c0 26 -19 49 -60 58c-35 8 -67 16 -100 27c-53 18 -109 56 -109 121c0 94 90 166 216 166c86 0 153 -49 184 -94l-67 -60c-18 33 -66 79 -128 79c-75 0 -117 -34 -117 -79
c0 -25 19 -45 65 -58c31 -9 68 -19 98 -26c58 -13 106 -53 106 -118c0 -109 -115 -175 -227 -176l-13 -28h13c42 0 80 -23 70 -71c-11 -48 -69 -85 -143 -85c-38 0 -80 14 -92 33l43 52c15 -14 40 -27 65 -27c30 0 53 11 57 27c3 17 -13 23 -41 23h-48z" />
    <glyph glyph-name="uni0219" unicode="&#x219;" horiz-adv-x="466" 
d="M203 65c79 0 131 34 131 83c0 26 -19 49 -60 58c-35 8 -67 16 -100 27c-53 18 -109 56 -109 121c0 94 90 166 216 166c86 0 153 -49 184 -94l-67 -60c-18 33 -66 79 -128 79c-75 0 -117 -34 -117 -79c0 -25 19 -45 65 -58c31 -9 68 -19 98 -26c58 -13 106 -53 106 -118
c0 -110 -117 -176 -230 -176c-91 0 -179 52 -197 117l69 47c16 -34 60 -87 139 -87zM138 -221l-25 28c19 7 49 27 54 53l-43 20l20 79h91l-20 -81c-13 -51 -42 -85 -77 -99z" />
    <glyph glyph-name="tcaron" unicode="&#x165;" horiz-adv-x="336" 
d="M274 76l-25 -71c-17 -8 -42 -17 -68 -17c-66 0 -101 43 -101 99c0 10 2 21 4 32l69 312h-93l18 77h94l24 104l108 85l-43 -189h105l-18 -77h-103l-66 -296c-12 -51 21 -77 72 -66c7 2 16 4 23 7zM336 553l-15 39c25 4 52 23 58 53l-39 12l21 86h87l-18 -80
c-15 -65 -52 -92 -94 -110z" />
    <glyph glyph-name="uni0163" unicode="&#x163;" horiz-adv-x="336" 
d="M81 -88l40 92c-27 17 -41 47 -41 83c0 10 2 21 4 32l69 312h-93l18 77h94l24 104l108 85l-43 -189h105l-18 -77h-103l-66 -296c-12 -51 21 -77 72 -66c7 2 16 4 23 7l-25 -71c-17 -8 -42 -17 -68 -17c-4 0 -8 0 -11 1l-13 -29h13c42 0 80 -23 70 -71
c-11 -48 -69 -85 -143 -85c-38 0 -80 14 -92 33l43 52c15 -14 40 -27 65 -27c30 0 53 11 57 27c3 17 -13 23 -41 23h-48z" />
    <glyph glyph-name="uni021B" unicode="&#x21b;" horiz-adv-x="336" 
d="M274 76l-25 -71c-17 -8 -42 -17 -68 -17c-66 0 -101 43 -101 99c0 10 2 21 4 32l69 312h-93l18 77h94l24 104l108 85l-43 -189h105l-18 -77h-103l-66 -296c-12 -51 21 -77 72 -66c7 2 16 4 23 7zM132 -221l-25 28c19 7 49 27 54 53l-43 20l20 79h91l-20 -81
c-13 -51 -42 -85 -77 -99z" />
    <glyph glyph-name="tbar" unicode="&#x167;" horiz-adv-x="336" 
d="M274 76l-25 -71c-17 -8 -42 -17 -68 -17c-66 0 -101 43 -101 99c0 10 2 21 4 32l23 106h-86l16 73h86l30 133h-93l18 77h94l24 104l108 85l-43 -189h105l-18 -77h-103l-30 -133h110l-17 -73h-109l-20 -90c-12 -51 21 -77 72 -66c7 2 16 4 23 7z" />
    <glyph glyph-name="ugrave" unicode="&#xf9;" horiz-adv-x="559" 
d="M219 67c53 0 147 54 172 160l66 281h92l-115 -508h-72v99c-41 -66 -115 -111 -182 -111c-87 0 -140 58 -140 139c0 15 1 30 5 48l79 333h93l-77 -322c-3 -12 -5 -23 -5 -35c0 -53 27 -84 84 -84zM377 562h-62l-86 143h107z" />
    <glyph glyph-name="uacute" unicode="&#xfa;" horiz-adv-x="559" 
d="M219 67c-57 0 -84 31 -84 84c0 12 2 23 5 35l77 322h-93l-79 -333c-4 -18 -5 -33 -5 -48c0 -81 53 -139 140 -139c67 0 141 45 182 111v-99h72l115 508h-92l-66 -281c-25 -106 -119 -160 -172 -160zM404 705h122l-153 -143h-67z" />
    <glyph glyph-name="ucircumflex" unicode="&#xfb;" horiz-adv-x="559" 
d="M219 67c-57 0 -84 31 -84 84c0 12 2 23 5 35l77 322h-93l-79 -333c-4 -18 -5 -33 -5 -48c0 -81 53 -139 140 -139c67 0 141 45 182 111v-99h72l115 508h-92l-66 -281c-25 -106 -119 -160 -172 -160zM359 638l-78 -76h-84l118 129h101l67 -129h-75z" />
    <glyph glyph-name="utilde" unicode="&#x169;" horiz-adv-x="559" 
d="M219 67c-57 0 -84 31 -84 84c0 12 2 23 5 35l77 322h-93l-79 -333c-4 -18 -5 -33 -5 -48c0 -81 53 -139 140 -139c67 0 141 45 182 111v-99h72l115 508h-92l-66 -281c-25 -106 -119 -160 -172 -160zM475 666l51 -13c-17 -49 -55 -91 -111 -91c-46 0 -74 39 -121 39
c-24 0 -40 -13 -52 -37l-49 14c18 49 49 93 112 93c44 0 73 -38 118 -38c22 0 39 9 52 33z" />
    <glyph glyph-name="udieresis" unicode="&#xfc;" horiz-adv-x="559" 
d="M219 67c-57 0 -84 31 -84 84c0 12 2 23 5 35l77 322h-93l-79 -333c-4 -18 -5 -33 -5 -48c0 -81 53 -139 140 -139c67 0 141 45 182 111v-99h72l115 508h-92l-66 -281c-25 -106 -119 -160 -172 -160zM221 572l23 97h91l-23 -97h-91zM382 572l23 97h90l-23 -97h-90z" />
    <glyph glyph-name="umacron" unicode="&#x16b;" horiz-adv-x="559" 
d="M219 67c-57 0 -84 31 -84 84c0 12 2 23 5 35l77 322h-93l-79 -333c-4 -18 -5 -33 -5 -48c0 -81 53 -139 140 -139c67 0 141 45 182 111v-99h72l115 508h-92l-66 -281c-25 -106 -119 -160 -172 -160zM489 576h-277l17 73h277z" />
    <glyph glyph-name="ubreve" unicode="&#x16d;" horiz-adv-x="559" 
d="M219 67c53 0 147 54 172 160l66 281h92l-115 -508h-72v99c-41 -66 -115 -111 -182 -111c-87 0 -140 58 -140 139c0 15 1 30 5 48l79 333h93l-77 -322c-3 -12 -5 -23 -5 -35c0 -53 27 -84 84 -84zM360 623c49 0 74 35 83 60h77c-13 -42 -58 -126 -170 -126
c-90 0 -120 61 -118 116c0 4 0 7 1 10h71v-6c0 -25 11 -54 56 -54z" />
    <glyph glyph-name="uring" unicode="&#x16f;" horiz-adv-x="559" 
d="M219 67c-57 0 -84 31 -84 84c0 12 2 23 5 35l77 322h-93l-79 -333c-4 -18 -5 -33 -5 -48c0 -81 53 -139 140 -139c67 0 141 45 182 111v-99h72l115 508h-92l-66 -281c-25 -106 -119 -160 -172 -160zM341 554c-53 0 -86 41 -75 93c9 51 59 93 112 93s85 -42 76 -93
c-11 -52 -60 -93 -113 -93zM368 692c-27 0 -49 -21 -53 -45c-5 -25 9 -46 36 -46s49 21 54 46c4 24 -10 45 -37 45z" />
    <glyph glyph-name="uhungarumlaut" unicode="&#x171;" horiz-adv-x="559" 
d="M219 67c-57 0 -84 31 -84 84c0 12 2 23 5 35l77 322h-93l-79 -333c-4 -18 -5 -33 -5 -48c0 -81 53 -139 140 -139c67 0 141 45 182 111v-99h72l115 508h-92l-66 -281c-25 -106 -119 -160 -172 -160zM436 562h-63l95 143h100zM290 562h-63l95 143h100z" />
    <glyph glyph-name="uogonek" unicode="&#x173;" horiz-adv-x="559" 
d="M432 -108l-4 -62c-34 -21 -70 -24 -86 -24c-59 0 -86 30 -86 68c0 60 56 111 106 135v90c-41 -66 -115 -111 -182 -111c-87 0 -140 58 -140 139c0 15 1 30 5 48l79 333h93l-77 -322c-3 -12 -5 -23 -5 -35c0 -53 27 -84 84 -84c53 0 147 54 172 160l66 281h92l-115 -508
c-48 -27 -95 -62 -95 -104c0 -15 8 -28 33 -28c28 0 60 24 60 24z" />
    <glyph glyph-name="wgrave" unicode="&#x1e81;" horiz-adv-x="739" 
d="M421 0l-10 423l-206 -423h-98l-37 508h89l18 -400l194 400h110l13 -400l191 400h94l-259 -508h-99zM473 562h-62l-86 143h107z" />
    <glyph glyph-name="wacute" unicode="&#x1e83;" horiz-adv-x="739" 
d="M411 423l10 -423h99l259 508h-94l-191 -400l-13 400h-110l-194 -400l-18 400h-89l37 -508h98zM487 705h122l-153 -143h-67z" />
    <glyph glyph-name="wcircumflex" unicode="&#x175;" horiz-adv-x="739" 
d="M411 423l10 -423h99l259 508h-94l-191 -400l-13 400h-110l-194 -400l-18 400h-89l37 -508h98zM452 638l-78 -76h-84l118 129h101l67 -129h-75z" />
    <glyph glyph-name="wdieresis" unicode="&#x1e85;" horiz-adv-x="739" 
d="M411 423l10 -423h99l259 508h-94l-191 -400l-13 400h-110l-194 -400l-18 400h-89l37 -508h98zM313 572l23 97h91l-23 -97h-91zM474 572l23 97h90l-23 -97h-90z" />
    <glyph glyph-name="ygrave" unicode="&#x1ef3;" horiz-adv-x="474" 
d="M109 -45l32 57l-66 496h91l42 -399l213 399h98s-222 -398 -331 -582c-41 -69 -92 -113 -172 -113c-34 0 -63 13 -81 26l47 67c10 -8 25 -14 43 -14c30 0 59 19 84 63zM351 562h-62l-86 143h107z" />
    <glyph glyph-name="yacute" unicode="&#xfd;" horiz-adv-x="474" 
d="M141 12l-32 -57c-25 -44 -54 -63 -84 -63c-18 0 -33 6 -43 14l-47 -67c18 -13 47 -26 81 -26c80 0 131 44 172 113c109 184 331 582 331 582h-98l-213 -399l-42 399h-91zM359 705h122l-153 -143h-67z" />
    <glyph glyph-name="ycircumflex" unicode="&#x177;" horiz-adv-x="474" 
d="M141 12l-32 -57c-25 -44 -54 -63 -84 -63c-18 0 -33 6 -43 14l-47 -67c18 -13 47 -26 81 -26c80 0 131 44 172 113c109 184 331 582 331 582h-98l-213 -399l-42 399h-91zM319 638l-78 -76h-84l118 129h101l67 -129h-75z" />
    <glyph glyph-name="ydieresis" unicode="&#xff;" horiz-adv-x="474" 
d="M141 12l-32 -57c-25 -44 -54 -63 -84 -63c-18 0 -33 6 -43 14l-47 -67c18 -13 47 -26 81 -26c80 0 131 44 172 113c109 184 331 582 331 582h-98l-213 -399l-42 399h-91zM181 572l23 97h91l-23 -97h-91zM342 572l23 97h90l-23 -97h-90z" />
    <glyph glyph-name="zacute" unicode="&#x17a;" horiz-adv-x="438" 
d="M451 439l-355 -359l283 2l-19 -80l-390 -2l15 69l352 363l-267 -2l19 76l379 2zM329 705h122l-153 -143h-67z" />
    <glyph glyph-name="zcaron" unicode="&#x17e;" horiz-adv-x="438" 
d="M451 439l-355 -359l283 2l-19 -80l-390 -2l15 69l352 363l-267 -2l19 76l379 2zM299 616l78 75h84l-117 -129h-102l-67 129h75z" />
    <glyph glyph-name="zdotaccent" unicode="&#x17c;" horiz-adv-x="438" 
d="M451 439l-355 -359l283 2l-19 -80l-390 -2l15 69l352 363l-267 -2l19 76l379 2zM234 569l25 107h103l-25 -107h-103z" />
    <glyph glyph-name="Agrave" unicode="&#xc0;" horiz-adv-x="603" 
d="M167 177l-96 -177h-111l401 722h129l58 -722h-101l-11 177h-269zM410 626l-194 -358h215zM326 900h112l35 -129h-67z" />
    <glyph glyph-name="Aacute" unicode="&#xc1;" horiz-adv-x="603" 
d="M71 0l96 177h269l11 -177h101l-58 722h-129l-401 -722h111zM216 268l194 358l21 -358h-215zM461 771h-73l91 129h123z" />
    <glyph glyph-name="Acircumflex" unicode="&#xc2;" horiz-adv-x="603" 
d="M71 0l96 177h269l11 -177h101l-58 722h-129l-401 -722h111zM216 268l194 358l21 -358h-215zM448 842l-75 -71h-88l117 124h106l67 -124h-79z" />
    <glyph glyph-name="Atilde" unicode="&#xc3;" horiz-adv-x="603" 
d="M71 0l96 177h269l11 -177h101l-58 722h-129l-401 -722h111zM216 268l194 358l21 -358h-215zM554 873l50 -13c-16 -49 -54 -90 -110 -90c-45 0 -73 37 -119 37c-24 0 -40 -12 -52 -35l-48 13c17 49 48 92 111 92c43 0 72 -36 116 -36c22 0 39 8 52 32z" />
    <glyph glyph-name="Adieresis" unicode="&#xc4;" horiz-adv-x="603" 
d="M71 0l96 177h269l11 -177h101l-58 722h-129l-401 -722h111zM216 268l194 358l21 -358h-215zM297 778l24 98h96l-24 -98h-96zM475 778l24 98h95l-24 -98h-95z" />
    <glyph glyph-name="Amacron" unicode="&#x100;" horiz-adv-x="603" 
d="M71 0l96 177h269l11 -177h101l-58 722h-129l-401 -722h111zM216 268l194 358l21 -358h-215zM567 780h-276l17 73h276z" />
    <glyph glyph-name="Abreve" unicode="&#x102;" horiz-adv-x="603" 
d="M167 177l-96 -177h-111l401 722h129l58 -722h-101l-11 177h-269zM410 626l-194 -358h215zM436 832c49 0 77 33 84 58h76c-13 -46 -58 -123 -169 -123c-90 0 -120 65 -120 113c0 4 0 7 1 10h73v-6c0 -25 12 -52 55 -52z" />
    <glyph glyph-name="Aring" unicode="&#xc5;" horiz-adv-x="603" 
d="M71 0l96 177h269l11 -177h101l-58 722h-129l-401 -722h111zM216 268l194 358l21 -358h-215zM434 765c-48 0 -78 37 -68 84c8 46 53 84 101 84c47 0 77 -38 69 -84c-10 -47 -55 -84 -102 -84zM458 888c-24 0 -42 -18 -46 -39c-5 -22 7 -40 31 -40s42 18 47 40
c4 21 -8 39 -32 39z" />
    <glyph glyph-name="Aringacute" unicode="&#x1fa;" horiz-adv-x="603" 
d="M71 0l96 177h269l11 -177h101l-58 722h-129l-401 -722h111zM216 268l194 358l21 -358h-215zM443 752c-48 0 -78 37 -68 84c8 46 53 84 101 84c47 0 77 -38 69 -84c-10 -47 -55 -84 -102 -84zM467 875c-24 0 -42 -18 -46 -39c-5 -22 7 -40 31 -40s42 18 47 40
c4 21 -8 39 -32 39zM525 946h-73l91 129h123z" />
    <glyph glyph-name="Aogonek" unicode="&#x104;" horiz-adv-x="603" 
d="M546 -108l-4 -62c-34 -21 -70 -24 -86 -24c-59 0 -86 30 -86 68c0 53 44 99 89 126h-12l-11 177h-269l-96 -177h-111l401 722h129l58 -722c-48 -27 -95 -62 -95 -104c0 -15 8 -28 33 -28c28 0 60 24 60 24zM410 626l-194 -358h215z" />
    <glyph glyph-name="AEacute" unicode="&#x1fc;" horiz-adv-x="954" 
d="M386 722l-426 -722h109l106 176h238l-11 -176h461l24 100h-377l14 220h334l21 92h-350l14 215h447l24 95h-628zM419 269h-194l218 364zM693 771h-73l91 129h123z" />
    <glyph glyph-name="Cacute" unicode="&#x106;" horiz-adv-x="696" 
d="M571 224l85 -45c-76 -123 -199 -200 -339 -200c-150 0 -242 103 -242 253c0 277 178 510 425 510c130 0 213 -79 221 -193l-92 -42c-5 89 -47 145 -148 145c-171 0 -305 -197 -305 -402c0 -109 50 -181 155 -181c97 0 177 52 240 155zM531 771h-73l91 129h123z" />
    <glyph glyph-name="Ccircumflex" unicode="&#x108;" horiz-adv-x="696" 
d="M571 224l85 -45c-76 -123 -199 -200 -339 -200c-150 0 -242 103 -242 253c0 277 178 510 425 510c130 0 213 -79 221 -193l-92 -42c-5 89 -47 145 -148 145c-171 0 -305 -197 -305 -402c0 -109 50 -181 155 -181c97 0 177 52 240 155zM533 842l-75 -71h-88l117 124h106
l67 -124h-79z" />
    <glyph glyph-name="Ccaron" unicode="&#x10c;" horiz-adv-x="696" 
d="M571 224l85 -45c-76 -123 -199 -200 -339 -200c-150 0 -242 103 -242 253c0 277 178 510 425 510c130 0 213 -79 221 -193l-92 -42c-5 89 -47 145 -148 145c-171 0 -305 -197 -305 -402c0 -109 50 -181 155 -181c97 0 177 52 240 155zM515 825l76 70h88l-117 -124h-106
l-67 124h79z" />
    <glyph glyph-name="Cdotaccent" unicode="&#x10a;" horiz-adv-x="696" 
d="M571 224l85 -45c-76 -123 -199 -200 -339 -200c-150 0 -242 103 -242 253c0 277 178 510 425 510c130 0 213 -79 221 -193l-92 -42c-5 89 -47 145 -148 145c-171 0 -305 -197 -305 -402c0 -109 50 -181 155 -181c97 0 177 52 240 155zM453 779l26 108h108l-28 -108h-106z
" />
    <glyph glyph-name="Ccedilla" unicode="&#xc7;" horiz-adv-x="696" 
d="M206 -88l33 78c-103 29 -164 120 -164 242c0 277 178 510 425 510c130 0 213 -79 221 -193l-92 -42c-5 89 -47 145 -148 145c-171 0 -305 -197 -305 -402c0 -109 50 -181 155 -181c97 0 177 52 240 155l85 -45c-76 -123 -199 -200 -339 -200c-9 0 -17 1 -26 1l-9 -20h13
c42 0 80 -23 70 -71c-11 -48 -69 -85 -143 -85c-38 0 -80 14 -92 33l43 52c15 -14 40 -27 65 -27c30 0 53 11 57 27c3 17 -13 23 -41 23h-48z" />
    <glyph glyph-name="Dcaron" unicode="&#x10e;" horiz-adv-x="727" 
d="M712 470c0 -268 -172 -470 -428 -470h-244l169 722h247c149 0 256 -103 256 -252zM167 96h147c185 0 295 196 295 356c0 114 -53 178 -164 178h-153zM450 825l76 70h88l-117 -124h-106l-67 124h79z" />
    <glyph glyph-name="Dcroat" unicode="&#x110;" horiz-adv-x="739" 
d="M733 470c0 -268 -172 -470 -428 -470h-244l77 332h-88l13 58h89l78 332h247c149 0 256 -103 256 -252zM188 96h147c185 0 295 196 295 356c0 114 -53 178 -164 178h-153l-57 -240h172l-14 -58h-171z" />
    <glyph glyph-name="Egrave" unicode="&#xc8;" horiz-adv-x="658" 
d="M40 0l170 722h508l-22 -94h-403l-52 -219h343l-22 -89h-343l-50 -223h422l-25 -97h-526zM371 900h112l35 -129h-67z" />
    <glyph glyph-name="Eacute" unicode="&#xc9;" horiz-adv-x="658" 
d="M210 722l-170 -722h526l25 97h-422l50 223h343l22 89h-343l52 219h403l22 94h-508zM501 771h-73l91 129h123z" />
    <glyph glyph-name="Ecircumflex" unicode="&#xca;" horiz-adv-x="658" 
d="M210 722l-170 -722h526l25 97h-422l50 223h343l22 89h-343l52 219h403l22 94h-508zM493 842l-75 -71h-88l117 124h106l67 -124h-79z" />
    <glyph glyph-name="Ecaron" unicode="&#x11a;" horiz-adv-x="658" 
d="M210 722l-170 -722h526l25 97h-422l50 223h343l22 89h-343l52 219h403l22 94h-508zM470 825l76 70h88l-117 -124h-106l-67 124h79z" />
    <glyph glyph-name="Edieresis" unicode="&#xcb;" horiz-adv-x="658" 
d="M210 722l-170 -722h526l25 97h-422l50 223h343l22 89h-343l52 219h403l22 94h-508zM337 778l24 98h96l-24 -98h-96zM515 778l24 98h95l-24 -98h-95z" />
    <glyph glyph-name="Emacron" unicode="&#x112;" horiz-adv-x="658" 
d="M210 722l-170 -722h526l25 97h-422l50 223h343l22 89h-343l52 219h403l22 94h-508zM617 780h-276l17 73h276z" />
    <glyph glyph-name="Ebreve" unicode="&#x114;" horiz-adv-x="658" 
d="M40 0l170 722h508l-22 -94h-403l-52 -219h343l-22 -89h-343l-50 -223h422l-25 -97h-526zM484 832c49 0 77 33 84 58h76c-13 -46 -58 -123 -169 -123c-90 0 -120 65 -120 113c0 4 0 7 1 10h73v-6c0 -25 12 -52 55 -52z" />
    <glyph glyph-name="Edotaccent" unicode="&#x116;" horiz-adv-x="658" 
d="M210 722l-170 -722h526l25 97h-422l50 223h343l22 89h-343l52 219h403l22 94h-508zM425 779l26 108h108l-28 -108h-106z" />
    <glyph glyph-name="Eogonek" unicode="&#x118;" horiz-adv-x="658" 
d="M564 -108l-4 -62c-34 -21 -70 -24 -86 -24c-59 0 -86 30 -86 68c0 53 44 99 89 126h-437l170 722h508l-22 -94h-403l-52 -219h343l-22 -89h-343l-50 -223h422l-25 -97c-48 -27 -95 -62 -95 -104c0 -15 8 -28 33 -28c28 0 60 24 60 24z" />
    <glyph glyph-name="Gcircumflex" unicode="&#x11c;" horiz-adv-x="757" 
d="M580 232l14 62h-198l19 88h302l-91 -382h-42l-5 115c-72 -97 -173 -135 -265 -135c-140 0 -239 104 -239 252c0 284 197 510 435 510c125 0 213 -72 237 -173l-92 -49c-11 83 -64 132 -165 132c-178 0 -318 -202 -318 -400c0 -112 57 -185 171 -185c92 0 195 63 237 165z
M535 842l-75 -71h-88l117 124h106l67 -124h-79z" />
    <glyph glyph-name="Gbreve" unicode="&#x11e;" horiz-adv-x="757" 
d="M580 232l14 62h-198l19 88h302l-91 -382h-42l-5 115c-72 -97 -173 -135 -265 -135c-140 0 -239 104 -239 252c0 284 197 510 435 510c125 0 213 -72 237 -173l-92 -49c-11 83 -64 132 -165 132c-178 0 -318 -202 -318 -400c0 -112 57 -185 171 -185c92 0 195 63 237 165z
M521 832c49 0 77 33 84 58h76c-13 -46 -58 -123 -169 -123c-90 0 -120 65 -120 113c0 4 0 7 1 10h73v-6c0 -25 12 -52 55 -52z" />
    <glyph glyph-name="Gdotaccent" unicode="&#x120;" horiz-adv-x="757" 
d="M580 232l14 62h-198l19 88h302l-91 -382h-42l-5 115c-72 -97 -173 -135 -265 -135c-140 0 -239 104 -239 252c0 284 197 510 435 510c125 0 213 -72 237 -173l-92 -49c-11 83 -64 132 -165 132c-178 0 -318 -202 -318 -400c0 -112 57 -185 171 -185c92 0 195 63 237 165z
M473 779l26 108h108l-28 -108h-106z" />
    <glyph glyph-name="Gcommaaccent" unicode="&#x122;" horiz-adv-x="757" 
d="M580 232l14 62h-198l19 88h302l-91 -382h-42l-5 115c-72 -97 -173 -135 -265 -135c-140 0 -239 104 -239 252c0 284 197 510 435 510c125 0 213 -72 237 -173l-92 -49c-11 83 -64 132 -165 132c-178 0 -318 -202 -318 -400c0 -112 57 -185 171 -185c92 0 195 63 237 165z
M253 -221l-25 28c19 7 49 27 54 53l-43 20l20 79h91l-20 -81c-13 -51 -42 -85 -77 -99z" />
    <glyph glyph-name="Hcircumflex" unicode="&#x124;" horiz-adv-x="722" 
d="M752 722l-171 -722h-104l77 329h-332l-77 -329h-105l171 722h104l-69 -296h332l68 296h106zM509 842l-75 -71h-88l117 124h106l67 -124h-79z" />
    <glyph glyph-name="Hbar" unicode="&#x126;" horiz-adv-x="722" 
d="M752 722l-31 -130h76l-14 -60h-76l-126 -532h-104l77 329h-332l-77 -329h-105l126 532h-80l14 60h80l31 130h104l-31 -130h332l30 130h106zM246 426h332l24 106h-332z" />
    <glyph glyph-name="Igrave" unicode="&#xcc;" horiz-adv-x="290" 
d="M40 0l173 722h102l-171 -722h-104zM161 900h112l35 -129h-67z" />
    <glyph glyph-name="Iacute" unicode="&#xcd;" horiz-adv-x="290" 
d="M213 722l-173 -722h104l171 722h-102zM306 771h-73l91 129h123z" />
    <glyph glyph-name="Icircumflex" unicode="&#xce;" horiz-adv-x="290" 
d="M213 722l-173 -722h104l171 722h-102zM288 842l-75 -71h-88l117 124h106l67 -124h-79z" />
    <glyph glyph-name="Itilde" unicode="&#x128;" horiz-adv-x="290" 
d="M213 722l-173 -722h104l171 722h-102zM400 873l50 -13c-16 -49 -54 -90 -110 -90c-45 0 -73 37 -119 37c-24 0 -40 -12 -52 -35l-48 13c17 49 48 92 111 92c43 0 72 -36 116 -36c22 0 39 8 52 32z" />
    <glyph glyph-name="Idieresis" unicode="&#xcf;" horiz-adv-x="290" 
d="M213 722l-173 -722h104l171 722h-102zM137 778l24 98h96l-24 -98h-96zM315 778l24 98h95l-24 -98h-95z" />
    <glyph glyph-name="Imacron" unicode="&#x12a;" horiz-adv-x="290" 
d="M213 722l-173 -722h104l171 722h-102zM412 780h-276l17 73h276z" />
    <glyph glyph-name="Ibreve" unicode="&#x12c;" horiz-adv-x="290" 
d="M40 0l173 722h102l-171 -722h-104zM282 832c49 0 77 33 84 58h76c-13 -46 -58 -123 -169 -123c-90 0 -120 65 -120 113c0 4 0 7 1 10h73v-6c0 -25 12 -52 55 -52z" />
    <glyph glyph-name="Idotaccent" unicode="&#x130;" horiz-adv-x="290" 
d="M213 722l-173 -722h104l171 722h-102zM223 779l26 108h108l-28 -108h-106z" />
    <glyph glyph-name="Iogonek" unicode="&#x12e;" horiz-adv-x="290" 
d="M142 -108l-4 -62c-34 -21 -70 -24 -86 -24c-59 0 -86 30 -86 68c0 53 44 99 89 126h-15l173 722h102l-171 -722c-48 -27 -95 -62 -95 -104c0 -15 8 -28 33 -28c28 0 60 24 60 24z" />
    <glyph glyph-name="Jcircumflex" unicode="&#x134;" horiz-adv-x="500" 
d="M294 173l133 549h103l-130 -547c-30 -128 -115 -195 -245 -195c-82 0 -145 51 -145 126c0 36 6 71 17 105l103 38c-13 -39 -25 -86 -25 -115c0 -42 25 -66 64 -66c64 0 110 42 125 105zM396 842l-75 -71h-88l117 124h106l67 -124h-79z" />
    <glyph glyph-name="Kcommaaccent" unicode="&#x136;" horiz-adv-x="651" 
d="M141 0h-101l169 722h101l-92 -386l392 386h126l-323 -319l181 -403h-111l-147 342l-145 -135zM248 -221l-25 28c19 7 49 27 54 53l-43 20l20 79h91l-20 -81c-13 -51 -42 -85 -77 -99z" />
    <glyph glyph-name="Lacute" unicode="&#x139;" horiz-adv-x="574" 
d="M168 98l147 624h-105l-170 -722h476l23 98h-371zM301 771h-73l91 129h123z" />
    <glyph glyph-name="Lcaron" unicode="&#x13d;" horiz-adv-x="574" 
d="M168 98l147 624h-105l-170 -722h476l23 98h-371zM371 572l-15 39c25 4 52 23 58 53l-39 12l21 86h87l-18 -80c-15 -65 -52 -92 -94 -110z" />
    <glyph glyph-name="Lcommaaccent" unicode="&#x13b;" horiz-adv-x="574" 
d="M315 722l-147 -624h371l-23 -98h-476l170 722h105zM228 -221l-25 28c19 7 49 27 54 53l-43 20l20 79h91l-20 -81c-13 -51 -42 -85 -77 -99z" />
    <glyph glyph-name="Ldot" unicode="&#x13f;" horiz-adv-x="574" 
d="M315 722l-147 -624h371l-23 -98h-476l170 722h105zM324 269l29 129h116l-30 -129h-115z" />
    <glyph glyph-name="Lslash" unicode="&#x141;" horiz-adv-x="583" 
d="M97 218l-82 -47l16 67l82 47l103 437h105l-86 -367l226 131l-16 -68l-226 -130l-45 -190h373l-25 -98h-476z" />
    <glyph glyph-name="Nacute" unicode="&#x143;" horiz-adv-x="731" 
d="M590 0h-114l-197 618l-140 -618h-99l168 722h132l188 -589l136 589h97zM531 771h-73l91 129h123z" />
    <glyph glyph-name="Ncaron" unicode="&#x147;" horiz-adv-x="731" 
d="M590 0h-114l-197 618l-140 -618h-99l168 722h132l188 -589l136 589h97zM505 825l76 70h88l-117 -124h-106l-67 124h79z" />
    <glyph glyph-name="Ntilde" unicode="&#xd1;" horiz-adv-x="731" 
d="M590 0h-114l-197 618l-140 -618h-99l168 722h132l188 -589l136 589h97zM624 873l50 -13c-16 -49 -54 -90 -110 -90c-45 0 -73 37 -119 37c-24 0 -40 -12 -52 -35l-48 13c17 49 48 92 111 92c43 0 72 -36 116 -36c22 0 39 8 52 32z" />
    <glyph glyph-name="Ncommaaccent" unicode="&#x145;" horiz-adv-x="731" 
d="M590 0h-114l-197 618l-140 -618h-99l168 722h132l188 -589l136 589h97zM258 -221l-25 28c19 7 49 27 54 53l-43 20l20 79h91l-20 -81c-13 -51 -42 -85 -77 -99z" />
    <glyph glyph-name="Ograve" unicode="&#xd2;" horiz-adv-x="769" 
d="M505 742c153 0 253 -103 253 -261c0 -276 -187 -501 -426 -501c-166 0 -257 109 -257 261c0 249 170 501 430 501zM177 252c0 -109 60 -183 172 -183c160 0 308 184 308 400c0 113 -55 186 -168 186c-181 0 -312 -206 -312 -403zM411 900h112l35 -129h-67z" />
    <glyph glyph-name="Oacute" unicode="&#xd3;" horiz-adv-x="769" 
d="M505 742c-260 0 -430 -252 -430 -501c0 -152 91 -261 257 -261c239 0 426 225 426 501c0 158 -100 261 -253 261zM177 252c0 197 131 403 312 403c113 0 168 -73 168 -186c0 -216 -148 -400 -308 -400c-112 0 -172 74 -172 183zM546 771h-73l91 129h123z" />
    <glyph glyph-name="Ocircumflex" unicode="&#xd4;" horiz-adv-x="769" 
d="M505 742c-260 0 -430 -252 -430 -501c0 -152 91 -261 257 -261c239 0 426 225 426 501c0 158 -100 261 -253 261zM177 252c0 197 131 403 312 403c113 0 168 -73 168 -186c0 -216 -148 -400 -308 -400c-112 0 -172 74 -172 183zM533 842l-75 -71h-88l117 124h106l67 -124
h-79z" />
    <glyph glyph-name="Otilde" unicode="&#xd5;" horiz-adv-x="769" 
d="M505 742c-260 0 -430 -252 -430 -501c0 -152 91 -261 257 -261c239 0 426 225 426 501c0 158 -100 261 -253 261zM177 252c0 197 131 403 312 403c113 0 168 -73 168 -186c0 -216 -148 -400 -308 -400c-112 0 -172 74 -172 183zM639 873l50 -13c-16 -49 -54 -90 -110 -90
c-45 0 -73 37 -119 37c-24 0 -40 -12 -52 -35l-48 13c17 49 48 92 111 92c43 0 72 -36 116 -36c22 0 39 8 52 32z" />
    <glyph glyph-name="Odieresis" unicode="&#xd6;" horiz-adv-x="769" 
d="M505 742c-260 0 -430 -252 -430 -501c0 -152 91 -261 257 -261c239 0 426 225 426 501c0 158 -100 261 -253 261zM177 252c0 197 131 403 312 403c113 0 168 -73 168 -186c0 -216 -148 -400 -308 -400c-112 0 -172 74 -172 183zM377 778l24 98h96l-24 -98h-96zM555 778
l24 98h95l-24 -98h-95z" />
    <glyph glyph-name="Omacron" unicode="&#x14c;" horiz-adv-x="769" 
d="M505 742c-260 0 -430 -252 -430 -501c0 -152 91 -261 257 -261c239 0 426 225 426 501c0 158 -100 261 -253 261zM177 252c0 197 131 403 312 403c113 0 168 -73 168 -186c0 -216 -148 -400 -308 -400c-112 0 -172 74 -172 183zM647 780h-276l17 73h276z" />
    <glyph glyph-name="Obreve" unicode="&#x14e;" horiz-adv-x="769" 
d="M505 742c153 0 253 -103 253 -261c0 -276 -187 -501 -426 -501c-166 0 -257 109 -257 261c0 249 170 501 430 501zM177 252c0 -109 60 -183 172 -183c160 0 308 184 308 400c0 113 -55 186 -168 186c-181 0 -312 -206 -312 -403zM529 832c49 0 77 33 84 58h76
c-13 -46 -58 -123 -169 -123c-90 0 -120 65 -120 113c0 4 0 7 1 10h73v-6c0 -25 12 -52 55 -52z" />
    <glyph glyph-name="Ohungarumlaut" unicode="&#x150;" horiz-adv-x="769" 
d="M505 742c-260 0 -430 -252 -430 -501c0 -152 91 -261 257 -261c239 0 426 225 426 501c0 158 -100 261 -253 261zM177 252c0 197 131 403 312 403c113 0 168 -73 168 -186c0 -216 -148 -400 -308 -400c-112 0 -172 74 -172 183zM630 772h-70l100 129h101zM470 772h-70
l98 129h101z" />
    <glyph glyph-name="Oslash" unicode="&#xd8;" horiz-adv-x="770" 
d="M507 742c85 0 153 -32 197 -88l77 68l38 -46l-84 -74c15 -35 23 -76 23 -121c0 -276 -190 -501 -429 -501c-91 0 -158 32 -201 86l-73 -65l-39 45l81 72c-16 36 -23 77 -23 123c0 249 173 501 433 501zM176 252c0 -21 2 -41 6 -59l445 393c-27 44 -74 69 -140 69
c-183 0 -311 -206 -311 -403zM348 69c162 0 307 184 307 400c0 20 -2 40 -6 57l-442 -390c29 -42 76 -67 141 -67z" />
    <glyph glyph-name="Oslashacute" unicode="&#x1fe;" horiz-adv-x="770" 
d="M507 742c-260 0 -433 -252 -433 -501c0 -46 7 -87 23 -123l-81 -72l39 -45l73 65c43 -54 110 -86 201 -86c239 0 429 225 429 501c0 45 -8 86 -23 121l84 74l-38 46l-77 -68c-44 56 -112 88 -197 88zM176 252c0 197 128 403 311 403c66 0 113 -25 140 -69l-445 -393
c-4 18 -6 38 -6 59zM348 69c-65 0 -112 25 -141 67l442 390c4 -17 6 -37 6 -57c0 -216 -145 -400 -307 -400zM531 771h-73l91 129h123z" />
    <glyph glyph-name="Racute" unicode="&#x154;" horiz-adv-x="719" 
d="M410 308h-192l-72 -308h-106l171 722h320c111 0 188 -72 188 -170c0 -121 -99 -187 -196 -205c58 -14 96 -61 96 -126c0 -57 -18 -111 -18 -172c0 -20 2 -37 5 -49h-113c-2 9 -2 20 -2 34c0 56 24 114 24 171c0 65 -39 103 -105 103zM519 630h-224l-55 -232h200
c93 0 176 51 176 142c0 55 -35 90 -97 90zM491 771h-73l91 129h123z" />
    <glyph glyph-name="Rcaron" unicode="&#x158;" horiz-adv-x="719" 
d="M410 308h-192l-72 -308h-106l171 722h320c111 0 188 -72 188 -170c0 -121 -99 -187 -196 -205c58 -14 96 -61 96 -126c0 -57 -18 -111 -18 -172c0 -20 2 -37 5 -49h-113c-2 9 -2 20 -2 34c0 56 24 114 24 171c0 65 -39 103 -105 103zM519 630h-224l-55 -232h200
c93 0 176 51 176 142c0 55 -35 90 -97 90zM464 825l76 70h88l-117 -124h-106l-67 124h79z" />
    <glyph glyph-name="Rcommaaccent" unicode="&#x156;" horiz-adv-x="719" 
d="M410 308h-192l-72 -308h-106l171 722h320c111 0 188 -72 188 -170c0 -121 -99 -187 -196 -205c58 -14 96 -61 96 -126c0 -57 -18 -111 -18 -172c0 -20 2 -37 5 -49h-113c-2 9 -2 20 -2 34c0 56 24 114 24 171c0 65 -39 103 -105 103zM519 630h-224l-55 -232h200
c93 0 176 51 176 142c0 55 -35 90 -97 90zM268 -221l-25 28c19 7 49 27 54 53l-43 20l20 79h91l-20 -81c-13 -51 -42 -85 -77 -99z" />
    <glyph glyph-name="Sacute" unicode="&#x15a;" horiz-adv-x="649" 
d="M420 742c133 0 216 -74 251 -151l-87 -57c-16 38 -59 121 -177 121c-106 0 -180 -56 -180 -131c0 -41 27 -74 101 -97c42 -13 87 -27 133 -38c82 -20 144 -83 144 -163c0 -154 -144 -246 -319 -246c-105 0 -246 53 -269 202l101 35c7 -52 35 -143 186 -143
c126 0 190 68 190 135c0 52 -31 76 -84 91c-43 12 -89 26 -133 40c-74 24 -156 85 -156 168c0 150 133 234 299 234zM451 771h-73l91 129h123z" />
    <glyph glyph-name="Scircumflex" unicode="&#x15c;" horiz-adv-x="649" 
d="M420 742c133 0 216 -74 251 -151l-87 -57c-16 38 -59 121 -177 121c-106 0 -180 -56 -180 -131c0 -41 27 -74 101 -97c42 -13 87 -27 133 -38c82 -20 144 -83 144 -163c0 -154 -144 -246 -319 -246c-105 0 -246 53 -269 202l101 35c7 -52 35 -143 186 -143
c126 0 190 68 190 135c0 52 -31 76 -84 91c-43 12 -89 26 -133 40c-74 24 -156 85 -156 168c0 150 133 234 299 234zM446 842l-75 -71h-88l117 124h106l67 -124h-79z" />
    <glyph glyph-name="Scaron" unicode="&#x160;" horiz-adv-x="649" 
d="M420 742c133 0 216 -74 251 -151l-87 -57c-16 38 -59 121 -177 121c-106 0 -180 -56 -180 -131c0 -41 27 -74 101 -97c42 -13 87 -27 133 -38c82 -20 144 -83 144 -163c0 -154 -144 -246 -319 -246c-105 0 -246 53 -269 202l101 35c7 -52 35 -143 186 -143
c126 0 190 68 190 135c0 52 -31 76 -84 91c-43 12 -89 26 -133 40c-74 24 -156 85 -156 168c0 150 133 234 299 234zM435 825l76 70h88l-117 -124h-106l-67 124h79z" />
    <glyph glyph-name="Scedilla" unicode="&#x15e;" horiz-adv-x="649" 
d="M196 -88l32 73c-93 16 -192 74 -211 197l101 35c7 -52 35 -143 186 -143c126 0 190 68 190 135c0 52 -31 76 -84 91c-43 12 -89 26 -133 40c-74 24 -156 85 -156 168c0 150 133 234 299 234c133 0 216 -74 251 -151l-87 -57c-16 38 -59 121 -177 121
c-106 0 -180 -56 -180 -131c0 -41 27 -74 101 -97c42 -13 87 -27 133 -38c82 -20 144 -83 144 -163c0 -154 -144 -246 -319 -246h-5l-9 -20h13c42 0 80 -23 70 -71c-11 -48 -69 -85 -143 -85c-38 0 -80 14 -92 33l43 52c15 -14 40 -27 65 -27c30 0 53 11 57 27
c3 17 -13 23 -41 23h-48z" />
    <glyph glyph-name="uni0218" unicode="&#x218;" horiz-adv-x="649" 
d="M420 742c133 0 216 -74 251 -151l-87 -57c-16 38 -59 121 -177 121c-106 0 -180 -56 -180 -131c0 -41 27 -74 101 -97c42 -13 87 -27 133 -38c82 -20 144 -83 144 -163c0 -154 -144 -246 -319 -246c-105 0 -246 53 -269 202l101 35c7 -52 35 -143 186 -143
c126 0 190 68 190 135c0 52 -31 76 -84 91c-43 12 -89 26 -133 40c-74 24 -156 85 -156 168c0 150 133 234 299 234zM218 -221l-25 28c19 7 49 27 54 53l-43 20l20 79h91l-20 -81c-13 -51 -42 -85 -77 -99z" />
    <glyph glyph-name="Tcaron" unicode="&#x164;" horiz-adv-x="554" 
d="M325 631h-225l20 91h544l-19 -91h-214l-148 -631h-107zM405 825l76 70h88l-117 -124h-106l-67 124h79z" />
    <glyph glyph-name="uni0162" unicode="&#x162;" horiz-adv-x="554" 
d="M163 -88l38 88h-25l149 631h-225l20 91h544l-19 -91h-214l-148 -631h-26l-18 -40h13c42 0 80 -23 70 -71c-11 -48 -69 -85 -143 -85c-38 0 -80 14 -92 33l43 52c15 -14 40 -27 65 -27c30 0 53 11 57 27c3 17 -13 23 -41 23h-48z" />
    <glyph glyph-name="uni021A" unicode="&#x21a;" horiz-adv-x="554" 
d="M325 631h-225l20 91h544l-19 -91h-214l-148 -631h-107zM168 -221l-25 28c19 7 49 27 54 53l-43 20l20 79h91l-20 -81c-13 -51 -42 -85 -77 -99z" />
    <glyph glyph-name="Tbar" unicode="&#x166;" horiz-adv-x="554" 
d="M325 631h-225l20 91h544l-19 -91h-214l-64 -273h149l-13 -60h-150l-70 -298h-107l70 298h-140l13 60h141z" />
    <glyph glyph-name="Ugrave" unicode="&#xd9;" horiz-adv-x="729" 
d="M92 251l110 471h106l-110 -466c-4 -17 -8 -38 -8 -54c0 -78 46 -129 135 -129c122 0 193 77 217 179l110 470h108l-110 -461c-43 -180 -159 -281 -339 -281c-139 0 -226 83 -226 206c0 20 2 42 7 65zM376 900h112l35 -129h-67z" />
    <glyph glyph-name="Uacute" unicode="&#xda;" horiz-adv-x="729" 
d="M202 722l-110 -471c-5 -23 -7 -45 -7 -65c0 -123 87 -206 226 -206c180 0 296 101 339 281l110 461h-108l-110 -470c-24 -102 -95 -179 -217 -179c-89 0 -135 51 -135 129c0 16 4 37 8 54l110 466h-106zM516 771h-73l91 129h123z" />
    <glyph glyph-name="Ucircumflex" unicode="&#xdb;" horiz-adv-x="729" 
d="M202 722l-110 -471c-5 -23 -7 -45 -7 -65c0 -123 87 -206 226 -206c180 0 296 101 339 281l110 461h-108l-110 -470c-24 -102 -95 -179 -217 -179c-89 0 -135 51 -135 129c0 16 4 37 8 54l110 466h-106zM503 842l-75 -71h-88l117 124h106l67 -124h-79z" />
    <glyph glyph-name="Utilde" unicode="&#x168;" horiz-adv-x="729" 
d="M202 722l-110 -471c-5 -23 -7 -45 -7 -65c0 -123 87 -206 226 -206c180 0 296 101 339 281l110 461h-108l-110 -470c-24 -102 -95 -179 -217 -179c-89 0 -135 51 -135 129c0 16 4 37 8 54l110 466h-106zM621 873l50 -13c-16 -49 -54 -90 -110 -90c-45 0 -73 37 -119 37
c-24 0 -40 -12 -52 -35l-48 13c17 49 48 92 111 92c43 0 72 -36 116 -36c22 0 39 8 52 32z" />
    <glyph glyph-name="Udieresis" unicode="&#xdc;" horiz-adv-x="729" 
d="M202 722l-110 -471c-5 -23 -7 -45 -7 -65c0 -123 87 -206 226 -206c180 0 296 101 339 281l110 461h-108l-110 -470c-24 -102 -95 -179 -217 -179c-89 0 -135 51 -135 129c0 16 4 37 8 54l110 466h-106zM347 778l24 98h96l-24 -98h-96zM525 778l24 98h95l-24 -98h-95z
" />
    <glyph glyph-name="Umacron" unicode="&#x16a;" horiz-adv-x="729" 
d="M202 722l-110 -471c-5 -23 -7 -45 -7 -65c0 -123 87 -206 226 -206c180 0 296 101 339 281l110 461h-108l-110 -470c-24 -102 -95 -179 -217 -179c-89 0 -135 51 -135 129c0 16 4 37 8 54l110 466h-106zM627 780h-276l17 73h276z" />
    <glyph glyph-name="Ubreve" unicode="&#x16c;" horiz-adv-x="729" 
d="M92 251l110 471h106l-110 -466c-4 -17 -8 -38 -8 -54c0 -78 46 -129 135 -129c122 0 193 77 217 179l110 470h108l-110 -461c-43 -180 -159 -281 -339 -281c-139 0 -226 83 -226 206c0 20 2 42 7 65zM501 832c49 0 77 33 84 58h76c-13 -46 -58 -123 -169 -123
c-90 0 -120 65 -120 113c0 4 0 7 1 10h73v-6c0 -25 12 -52 55 -52z" />
    <glyph glyph-name="Uring" unicode="&#x16e;" horiz-adv-x="729" 
d="M202 722l-110 -471c-5 -23 -7 -45 -7 -65c0 -123 87 -206 226 -206c180 0 296 101 339 281l110 461h-108l-110 -470c-24 -102 -95 -179 -217 -179c-89 0 -135 51 -135 129c0 16 4 37 8 54l110 466h-106zM479 765c-48 0 -78 37 -68 84c8 46 53 84 101 84
c47 0 77 -38 69 -84c-10 -47 -55 -84 -102 -84zM503 888c-24 0 -42 -18 -46 -39c-5 -22 7 -40 31 -40s42 18 47 40c4 21 -8 39 -32 39z" />
    <glyph glyph-name="Uhungarumlaut" unicode="&#x170;" horiz-adv-x="729" 
d="M202 722l-110 -471c-5 -23 -7 -45 -7 -65c0 -123 87 -206 226 -206c180 0 296 101 339 281l110 461h-108l-110 -470c-24 -102 -95 -179 -217 -179c-89 0 -135 51 -135 129c0 16 4 37 8 54l110 466h-106zM585 772h-70l100 129h101zM425 772h-70l98 129h101z" />
    <glyph glyph-name="Uogonek" unicode="&#x172;" horiz-adv-x="729" 
d="M436 -108l-4 -62c-34 -21 -70 -24 -86 -24c-59 0 -86 30 -86 68c0 42 27 79 61 106h-10c-139 0 -226 83 -226 206c0 20 2 42 7 65l110 471h106l-110 -466c-4 -17 -8 -38 -8 -54c0 -78 46 -129 135 -129c122 0 193 77 217 179l110 470h108l-110 -461
c-32 -134 -104 -224 -212 -261c-48 -27 -95 -62 -95 -104c0 -15 8 -28 33 -28c28 0 60 24 60 24z" />
    <glyph glyph-name="Wgrave" unicode="&#x1e80;" horiz-adv-x="943" 
d="M521 722h132l8 -584l276 584h111l-363 -722h-109l-10 609l-297 -609h-110l-29 722h105l8 -586zM498 900h112l35 -129h-67z" />
    <glyph glyph-name="Wacute" unicode="&#x1e82;" horiz-adv-x="943" 
d="M521 722h132l8 -584l276 584h111l-363 -722h-109l-10 609l-297 -609h-110l-29 722h105l8 -586zM626 771h-73l91 129h123z" />
    <glyph glyph-name="Wcircumflex" unicode="&#x174;" horiz-adv-x="943" 
d="M521 722h132l8 -584l276 584h111l-363 -722h-109l-10 609l-297 -609h-110l-29 722h105l8 -586zM614 842l-75 -71h-88l117 124h106l67 -124h-79z" />
    <glyph glyph-name="Wdieresis" unicode="&#x1e84;" horiz-adv-x="943" 
d="M521 722h132l8 -584l276 584h111l-363 -722h-109l-10 609l-297 -609h-110l-29 722h105l8 -586zM470 778l24 98h96l-24 -98h-96zM648 778l24 98h95l-24 -98h-95z" />
    <glyph glyph-name="Ygrave" unicode="&#x1ef2;" horiz-adv-x="559" 
d="M171 0l62 264l-123 458h108l83 -367l258 367h120l-339 -458l-63 -264h-106zM296 900h112l35 -129h-67z" />
    <glyph glyph-name="Yacute" unicode="&#xdd;" horiz-adv-x="559" 
d="M171 0l62 264l-123 458h108l83 -367l258 367h120l-339 -458l-63 -264h-106zM431 771h-73l91 129h123z" />
    <glyph glyph-name="Ycircumflex" unicode="&#x176;" horiz-adv-x="559" 
d="M171 0l62 264l-123 458h108l83 -367l258 367h120l-339 -458l-63 -264h-106zM414 842l-75 -71h-88l117 124h106l67 -124h-79z" />
    <glyph glyph-name="Ydieresis" unicode="&#x178;" horiz-adv-x="559" 
d="M171 0l62 264l-123 458h108l83 -367l258 367h120l-339 -458l-63 -264h-106zM262 778l24 98h96l-24 -98h-96zM440 778l24 98h95l-24 -98h-95z" />
    <glyph glyph-name="Zacute" unicode="&#x179;" horiz-adv-x="586" 
d="M-35 0l22 94l535 534l-397 -2l25 94l521 2l-22 -97l-535 -528l422 2l-22 -97zM436 771h-73l91 129h123z" />
    <glyph glyph-name="Zcaron" unicode="&#x17d;" horiz-adv-x="586" 
d="M-35 0l22 94l535 534l-397 -2l25 94l521 2l-22 -97l-535 -528l422 2l-22 -97zM420 825l76 70h88l-117 -124h-106l-67 124h79z" />
    <glyph glyph-name="Zdotaccent" unicode="&#x17b;" horiz-adv-x="586" 
d="M-35 0l22 94l535 534l-397 -2l25 94l521 2l-22 -97l-535 -528l422 2l-22 -97zM360 779l26 108h108l-28 -108h-106z" />
    <glyph glyph-name="one.ss01" horiz-adv-x="610" 
d="M88 86h151l106 459l-153 -39l17 73c81 13 163 54 202 121h67l-141 -614h162l-20 -86h-411z" />
    <glyph glyph-name="oneinferior.alt" 
d="M66 -184l13 58h101l65 274l-95 -29l12 54c41 9 100 36 126 82h49l-88 -381h105l-13 -58h-275z" />
    <glyph glyph-name="onesuperior.alt" 
d="M66 436l13 58h101l65 274l-95 -29l12 54c41 9 100 36 126 82h49l-88 -381h105l-13 -58h-275z" />
    <glyph glyph-name="one.dnom.alt" 
d="M66 -4l13 58h101l65 274l-95 -29l12 54c41 9 100 36 126 82h49l-88 -381h105l-13 -58h-275z" />
    <glyph glyph-name="one.numr.alt" 
d="M66 256l13 58h101l65 274l-95 -29l12 54c41 9 100 36 126 82h49l-88 -381h105l-13 -58h-275z" />
    <glyph glyph-name="onehalf.alt" horiz-adv-x="920" 
d="M708 361c75 0 135 -48 135 -123c0 -92 -70 -135 -142 -168l-82 -39c-40 -19 -64 -38 -76 -59h242l-15 -61h-317c15 80 97 147 136 168l101 52c40 20 85 52 85 105c0 34 -26 65 -73 65c-75 0 -104 -56 -118 -100l-66 21c24 70 87 139 190 139zM108 -89l620 784h75
l-623 -784h-72zM52 314l-13 -58h275l13 58h-105l88 381h-49c-26 -46 -85 -73 -126 -82l-12 -54l95 29l-65 -274h-101z" />
    <glyph glyph-name="onequarter.alt" horiz-adv-x="920" 
d="M444 0h211l-21 -89h72l20 89h69l11 56h-66l63 294h-69c-94 -108 -274 -276 -274 -276zM719 264l-52 -209h-153c116 100 205 209 205 209zM131 -89l620 784h75l-623 -784h-72zM67 314l-13 -58h275l13 58h-105l88 381h-49c-26 -46 -85 -73 -126 -82l-12 -54l95 29l-65 -274
h-101z" />
    <glyph glyph-name="RP" horiz-adv-x="810" 
d="M381 433l-140 246l6 4l140 -247zM470 433l140 246l-6 4l-140 -247zM381 297l-140 -246l6 -4l140 247zM470 297l140 -246l-6 -4l-140 247zM358 319l-230 -164l4 -6l230 165zM493 411l230 164l-4 6l-230 -165zM358 411l-230 164l4 6l230 -165zM493 319l230 -164l-4 -6
l-230 165zM397 441l-87 269l7 2l86 -269zM397 289l-87 -269l7 -2l86 269zM454 441l87 269l-7 2l-86 -269zM454 289l87 -269l-7 -2l-86 269zM369 307l-190 -210l5 -5l190 211zM369 423l-190 210l5 5l190 -211zM482 423l190 210l-5 5l-190 -211zM482 307l190 -210l-5 -5
l-190 211zM350 335l-260 -114l3 -6l260 114zM501 395l260 114l-3 6l-260 -114zM501 335l260 -114l-3 -6l-260 114zM350 395l-260 114l3 6l260 -114zM345 379l-277 57l2 7l276 -58zM345 351l-277 -57l2 -7l276 58zM506 379l277 57l-2 7l-276 -58zM506 351l277 -57l-2 -7
l-276 58zM414 285l-31 -281l7 -1l30 281zM437 445l31 281l-7 1l-30 -281zM437 285l31 -281l-7 -1l-30 281zM414 445l-31 281l7 1l30 -281zM60 368h284v-6h-284v6zM790 368h-283v-6h283v6zM510 476l133 181l-6 5l-133 -182zM341 476l-133 181l6 5l133 -182zM341 254
l-133 -181l6 -5l133 182zM510 254l133 -181l-6 -5l-133 182zM393 501l-46 219l7 2l46 -220zM393 229l-46 -219l7 -2l46 220zM458 501l46 219l-7 2l-46 -220zM458 229l46 -219l-7 -2l-46 220zM422 225v-225h7v225h-7zM422 505v225h7v-225h-7zM548 299l196 -112l-3 -6
l-197 112zM303 299l-196 -112l3 -6l197 112zM303 431l-196 112l3 6l197 -112zM548 431l196 112l-3 6l-197 -112zM560 325l214 -68l-2 -7l-214 69zM560 405l214 68l-2 7l-214 -69zM291 325l-214 -68l2 -7l214 69zM291 405l-214 68l2 7l214 -69zM699 606l-5 5l-167 -151l4 -5z
M152 606l5 5l167 -151l-4 -5zM699 124l-5 -5l-167 151l4 5zM152 124l5 -5l167 151l-4 5zM367 491l-92 206l6 3l92 -206zM484 491l92 206l-6 3l-92 -206zM484 239l92 -206l-6 -3l-92 206zM367 239l-92 -206l6 -3l92 206zM789 331l-1 -7l-224 24l1 6zM62 399l1 7l224 -24
l-1 -6zM789 399l-1 7l-224 -24l1 -6zM62 331l1 -7l224 24l-1 6z" />
    <glyph glyph-name="interfinity" horiz-adv-x="407" 
d="M318 742c86 0 149 -49 149 -125c0 -80 -61 -131 -133 -168c27 -20 47 -49 47 -92c0 -91 -83 -146 -176 -146c-77 0 -125 45 -125 105c0 64 42 108 101 142c-34 23 -65 62 -65 114c0 106 97 170 202 170zM309 671c-51 0 -112 -33 -112 -92c0 -34 21 -58 47 -74l23 -14
l29 14c40 19 91 55 91 107c0 36 -29 59 -78 59zM265 408l-15 11l-21 -11c-29 -15 -71 -41 -71 -81c0 -27 20 -45 60 -45s86 25 86 71c0 22 -19 40 -39 55zM101 0l26 110h100l-25 -110h-101z" />
    <glyph glyph-name="because" unicode="&#x2235;" horiz-adv-x="865" 
d="M326 0l30 130h114l-30 -130h-114zM150 508l30 130h114l-30 -130h-114zM734 508l30 130h114l-30 -130h-114z" />
    <glyph glyph-name="therefore" unicode="&#x2234;" horiz-adv-x="865" 
d="M443 508l30 130h114l-30 -130h-114zM33 0l30 130h114l-30 -130h-114zM617 0l30 130h114l-30 -130h-114z" />
    <glyph glyph-name="asterism" unicode="&#x2042;" horiz-adv-x="968" 
d="M304 582l177 -43l-177 -41v84zM430 722l52 -180l-126 138zM355 402l127 134l-52 -179zM487 539l177 43v-84zM486 542l52 180l74 -42zM486 536l127 -134l-75 -45zM70 205l177 -43l-177 -41v84zM196 345l52 -180l-126 138zM121 25l127 134l-52 -179zM253 162l177 43v-84z
M252 165l52 180l74 -42zM252 159l127 -134l-75 -45zM538 205l177 -43l-177 -41v84zM664 345l52 -180l-126 138zM589 25l127 134l-52 -179zM721 162l177 43v-84zM720 165l52 180l74 -42zM720 159l127 -134l-75 -45z" />
    <glyph glyph-name="uni2160" unicode="&#x2160;" horiz-adv-x="357" 
d="M288 73l-17 -73h-291l17 73h95l127 549h-96l17 73h292l-17 -73h-98l-127 -549h98z" />
    <glyph glyph-name="uni2161" unicode="&#x2161;" horiz-adv-x="597" 
d="M-20 0l17 73h94l127 549h-95l17 73h532l-17 -73h-98l-127 -549h98l-17 -73h-531zM188 73h145l127 549h-145z" />
    <glyph glyph-name="uni2162" unicode="&#x2162;" horiz-adv-x="835" 
d="M-20 0l17 73h94l127 549h-95l17 73h770l-17 -73h-95l-127 -549h95l-17 -73h-769zM429 73h145l127 549h-145zM315 622l-127 -549h145l127 549h-145z" />
    <glyph glyph-name="uni2163" unicode="&#x2163;" horiz-adv-x="867" 
d="M568 695l1 -610l279 610h99l-324 -695h-140l-8 695h93zM288 73l-17 -73h-291l17 73h95l127 549h-96l17 73h292l-17 -73h-98l-127 -549h98z" />
    <glyph glyph-name="uni2164" unicode="&#x2164;" horiz-adv-x="532" 
d="M233 695l1 -610l279 610h99l-324 -695h-140l-8 695h93z" />
    <glyph glyph-name="uni2165" unicode="&#x2165;" horiz-adv-x="877" 
d="M233 695l1 -610l279 610h99l-324 -695h-140l-8 695h93zM808 73l-17 -73h-291l17 73h95l127 549h-97l18 73h292l-17 -73h-98l-127 -549h98z" />
    <glyph glyph-name="uni2166" unicode="&#x2166;" horiz-adv-x="1114" 
d="M492 0l18 73h101l127 549h-97l18 73h530l-17 -73h-95l-127 -549h95l-17 -73h-536zM708 73h145l127 549h-145zM233 695l1 -610l279 610h99l-324 -695h-140l-8 695h93z" />
    <glyph glyph-name="uni2167" unicode="&#x2167;" horiz-adv-x="1349" 
d="M495 0l17 73h96l127 549h-96l17 73h768l-17 -73h-95l-127 -549h95l-17 -73h-768zM944 73h144l127 549h-144zM831 622l-127 -549h144l127 549h-144zM233 695v-610l279 610h100l-324 -695h-140l-8 695h93z" />
    <glyph glyph-name="uni2168" unicode="&#x2168;" horiz-adv-x="853" 
d="M294 73l-56 -73h-258l17 73h97l127 549h-98l17 73h294l-17 -73h-98l-127 -549h102zM414 0l205 276l81 -276h104l-113 363l252 332h-109l-181 -246l-68 246h-100l97 -330l-279 -365h111z" />
    <glyph glyph-name="uni2169" unicode="&#x2169;" horiz-adv-x="510" 
d="M276 276l-205 -276h-111l279 365l-97 330h100l68 -246l181 246h109l-252 -332l113 -363h-104z" />
    <glyph glyph-name="uni216A" unicode="&#x216a;" horiz-adv-x="905" 
d="M505 0l-22 73h102l127 549h-98l17 73h294l-17 -73h-98l-127 -549h98l-17 -73h-259zM254 276l-205 -276h-111l279 365l-97 330h100l68 -246l181 246h109l-252 -332l113 -363h-104z" />
    <glyph glyph-name="uni216B" unicode="&#x216b;" horiz-adv-x="1109" 
d="M527 0l-22 73h101l127 549h-97l17 73h531l-17 -73h-95l-127 -549h95l-17 -73h-496zM276 276l-205 -276h-111l279 365l-97 330h100l68 -246l181 246h109l-252 -332l113 -363h-104zM703 73h145l127 549h-145z" />
    <glyph glyph-name="uni216C" unicode="&#x216c;" horiz-adv-x="529" 
d="M290 695l-138 -602h287l-22 -93h-387l161 695h99z" />
    <glyph glyph-name="uni216D" unicode="&#x216d;" horiz-adv-x="616" 
d="M441 713c116 0 188 -78 201 -190l-92 -50c0 79 -39 149 -120 149c-170 0 -270 -239 -270 -382c0 -91 27 -165 129 -165c79 0 145 59 188 138l82 -59c-70 -107 -173 -171 -286 -171c-149 0 -213 112 -213 242c0 220 148 488 381 488z" />
    <glyph glyph-name="uni2180" unicode="&#x2180;" horiz-adv-x="1029" 
d="M604 0h-169l10 42c-47 -38 -110 -58 -171 -58c-144 0 -214 110 -214 235c0 217 147 493 380 493c60 0 114 -19 147 -55l9 38h185c150 0 248 -94 248 -247c0 -257 -183 -448 -425 -448zM431 626c-172 0 -276 -247 -276 -390c0 -91 34 -164 139 -164c82 0 146 52 186 123
l70 304c-1 74 -41 127 -119 127zM934 445c0 105 -59 164 -168 164h-93l-120 -518h75c194 0 306 185 306 354z" />
    <glyph glyph-name="uni216E" unicode="&#x216e;" horiz-adv-x="631" 
d="M631 445c0 -243 -154 -445 -430 -445h-171l161 695h192c145 0 248 -91 248 -250zM232 91c189 0 301 172 301 355c0 101 -56 163 -165 163h-99l-120 -518h83z" />
    <glyph glyph-name="uni216F" unicode="&#x216f;" horiz-adv-x="791" 
d="M309 65l-50 522l-137 -587h-92l161 695h145l48 -491l274 491h153l-161 -695h-93l136 587l-292 -522h-92z" />
    <glyph glyph-name="uni2181" unicode="&#x2181;" horiz-adv-x="630" 
d="M630 439c0 -246 -159 -439 -434 -439h-166l161 695h181c145 0 258 -97 258 -256zM220 89c190 0 312 141 312 333c0 115 -78 189 -191 189h-76l-14 -60h65c89 0 147 -55 147 -149c0 -138 -103 -255 -255 -255h-49l-13 -58h74zM231 228c89 0 145 78 145 167
c0 50 -31 77 -81 77h-61l-55 -244h52z" />
    <glyph glyph-name="uni00A0" unicode="&#xa0;" horiz-adv-x="210" 
 />
    <glyph glyph-name="uni00AD" unicode="&#xad;" horiz-adv-x="360" 
d="M52 269l33 84h275l-35 -84h-273z" />
    <glyph glyph-name="space" unicode=" " horiz-adv-x="210" 
 />
    <glyph glyph-name="bullet.001" horiz-adv-x="399" 
d="M78 259c0 67 55 121 122 121s122 -54 122 -121s-55 -121 -122 -121s-122 54 -122 121z" />
    </font>
</defs>
</svg>
